<?xml version="1.0" encoding="UTF-8"?> <!-- Generator: Adobe Illustrator 19.2.0, SVG Export Plug-In . SVG Version: 6.00 Build 0) --> <svg xmlns="http://www.w3.org/2000/svg" xmlns:xlink="http://www.w3.org/1999/xlink" x="0px" y="0px" viewBox="0 0 753 650.4" style="enable-background:new 0 0 753 650.4;" xml:space="preserve"> <style type="text/css"> .st0{opacity:0.14;fill:#8DCFE6;enable-background:new ;} .st1{fill:#B2B2B2;} .st2{fill:#353535;} .st3{fill:#686868;} .st4{fill:#F9C117;} .st5{fill:#009E82;} .st6{fill:#FF5656;} .st7{fill:#F7F7F8;} .st8{fill:#E5A643;} .st9{fill:#2C7EEA;} .st10{fill:#7653A5;} .st11{fill:#BCD0E2;} .st12{fill:#FFFFFF;} .st13{fill:#133248;} .st14{fill:#44C1BD;} .st15{fill:#EA9C75;} .st16{fill:#1AA4AC;} .st17{fill:#2B4159;} .st18{fill:#31314C;} .st19{fill:#FDAD80;} .st20{fill:#7C4550;} .st21{fill:#011B2E;} .st22{fill:#B7C0C6;} .st23{fill:#8B99A3;} .st24{fill:#E5ECF1;} .st25{fill:#2E3136;} .st26{fill:#F59F08;} .st27{fill:#FFD364;} .st28{fill:#4B5059;} .st29{fill:#35393F;} .st30{fill:#513747;} .st31{fill:#151E35;} .st32{fill:#A49FAE;} .st33{fill:#C4C5C7;} .st34{fill:#1D1D18;} .st35{fill:#995C4B;} .st36{fill:#855243;} .st37{fill:#908B99;} .st38{fill:#304965;} .st39{fill:#1070B1;} .st40{fill:#09578C;} .st41{fill:#583180;} .st42{opacity:0.55;} .st43{fill:#9B9B9B;} .st44{fill:#DDDDDD;} .st45{fill:#E2E2E2;} .st46{opacity:0.2;enable-background:new ;} .st47{fill:#5B5B5B;} .st48{opacity:5.000000e-02;fill:#FFFFFF;enable-background:new ;} .st49{fill:#C6C6C6;} .st50{fill:#F68768;} .st51{opacity:0.5;fill:#666666;enable-background:new ;} .st52{opacity:0.5;fill:#494967;enable-background:new ;} </style> <g id="Layer_2"> <path class="st0" d="M294.2,96.2c0-32.6-103.7-46.4-133.2-32.7c-80.2,37,35.2,86.5,2.6,136.4c-4.5,6.9-22.7,10.4-30.5,12.9 c-14.6,4.7-67.6,8-82.9,7.9c-41.2-0.4-61.3,64.7-26.7,72.9c4.4,1,45.2,17.1,67.2,56.8c7.8,14,16.9,28.8-4.3,63.9 c-8.8,14.5-23.2,36.5-41.8,49.7C-4.9,499.2-6.8,567.4,16.7,595.4c38.1,45.6,148.1,15.4,207.5,12.8c38.3-1.7,115.6-9.3,151.8-21.9 c22.6-7.8,59.1-45.1,82.8-47.9c19.2-2.2,58.3,10.8,73.9,22.2c8,5.8,13.9,27.6,22.5,32.4c33.1,18.6,119.8,30.4,151.5,9.5 c23.9-15.8,48.3-81.2,38.2-108.1c-3.8-10.2-37.1-10.6-38-21.5c-1.4-14.9,35.2-29.3,42.5-42.4c8.1-14.6,2-52.8-7.6-66.6 c-10.5-15.2-49.6-24.8-65.9-33.6C649.1,316.1,566.7,301,570.4,271c4.8-38.7,35-33.9,26-68.2c-17-64.6-52.3-23.9-102.8-39.2 c-5.9-1.8-19.2-7-21.1-12.9c-1.4-4.3,3.9-13.5,7-16.9c5.9-6.7-8.4-10.4-3.3-17.8c4.3-6.3,2.7-8.4-1.8-14.5 c-2.1-2.9-10.5-23.6-14.1-23.8C408.5,74.9,294.2,44.5,294.2,96.2"></path> </g> <g id="Layer_4"> </g> <g id="Layer_3"> <ellipse class="st1" cx="374" cy="412.7" rx="196" ry="14.2"></ellipse> <ellipse class="st1" cx="631.8" cy="565.8" rx="66.8" ry="14.2"></ellipse> <ellipse class="st1" cx="200.2" cy="594.8" rx="161.2" ry="22.6"></ellipse> <g> <rect x="209.3" y="195" class="st2" width="331.7" height="212.9"></rect> <rect x="209.3" y="178.6" class="st3" width="331.7" height="17.9"></rect> <circle class="st4" cx="219.9" cy="187.6" r="2.8"></circle> <circle class="st5" cx="229" cy="187.6" r="2.8"></circle> <circle class="st6" cx="237.7" cy="187.6" r="2.8"></circle> </g> <path class="st7" d="M293,223.4h-63.3c-0.8,0-1.5-0.7-1.5-1.5v-2.3c0-0.8,0.7-1.5,1.5-1.5H293c0.8,0,1.5,0.7,1.5,1.5v2.3 C294.4,222.7,293.8,223.4,293,223.4z"></path> <path class="st7" d="M316.2,236h-86.5c-0.8,0-1.5-0.7-1.5-1.5v-2.3c0-0.8,0.7-1.5,1.5-1.5h86.5c0.8,0,1.5,0.7,1.5,1.5v2.3 C317.6,235.3,317,236,316.2,236z"></path> <path class="st7" d="M288.5,248.6h-41.4c-0.8,0-1.5-0.7-1.5-1.5v-2.3c0-0.8,0.7-1.5,1.5-1.5h41.4c0.8,0,1.5,0.7,1.5,1.5v2.3 C290,247.9,289.4,248.6,288.5,248.6z"></path> <path class="st7" d="M321.7,261.2h-52.4c-0.8,0-1.5-0.7-1.5-1.5v-2.3c0-0.8,0.7-1.5,1.5-1.5h52.4c0.8,0,1.5,0.7,1.5,1.5v2.3 C323.1,260.5,322.5,261.2,321.7,261.2z"></path> <path class="st6" d="M366.2,261.2h-23.6c-0.8,0-1.5-0.7-1.5-1.5v-2.3c0-0.8,0.7-1.5,1.5-1.5h23.6c0.8,0,1.5,0.7,1.5,1.5v2.3 C367.6,260.5,367,261.2,366.2,261.2z"></path> <path class="st8" d="M410.1,261.2h-23.6c-0.8,0-1.5-0.7-1.5-1.5v-2.3c0-0.8,0.7-1.5,1.5-1.5h23.6c0.8,0,1.5,0.7,1.5,1.5v2.3 C411.6,260.5,410.9,261.2,410.1,261.2z"></path> <path class="st7" d="M354.5,273.8h-85.2c-0.8,0-1.5-0.7-1.5-1.5V270c0-0.8,0.7-1.5,1.5-1.5h85.2c0.8,0,1.5,0.7,1.5,1.5v2.3 C356,273.1,355.3,273.8,354.5,273.8z"></path> <path class="st7" d="M383.8,286.4H269.3c-0.8,0-1.5-0.7-1.5-1.5v-2.3c0-0.8,0.7-1.5,1.5-1.5h114.5c0.8,0,1.5,0.7,1.5,1.5v2.3 C385.3,285.7,384.7,286.4,383.8,286.4z"></path> <path class="st6" d="M414.8,273.8h-39.3c-0.8,0-1.5-0.7-1.5-1.5V270c0-0.8,0.7-1.5,1.5-1.5h39.3c0.8,0,1.5,0.7,1.5,1.5v2.3 C416.2,273.1,415.6,273.8,414.8,273.8z"></path> <path class="st8" d="M475,273.8h-39.3c-0.8,0-1.5-0.7-1.5-1.5V270c0-0.8,0.7-1.5,1.5-1.5H475c0.8,0,1.5,0.7,1.5,1.5v2.3 C476.5,273.1,475.8,273.8,475,273.8z"></path> <path class="st7" d="M288.5,300.7h-41.4c-0.8,0-1.5-0.7-1.5-1.5v-2.3c0-0.8,0.7-1.5,1.5-1.5h41.4c0.8,0,1.5,0.7,1.5,1.5v2.3 C290,300.1,289.4,300.7,288.5,300.7z"></path> <path class="st7" d="M288.5,351.1h-41.4c-0.8,0-1.5-0.7-1.5-1.5v-2.3c0-0.8,0.7-1.5,1.5-1.5h41.4c0.8,0,1.5,0.7,1.5,1.5v2.3 C290,350.5,289.4,351.1,288.5,351.1z"></path> <path class="st7" d="M229.7,363.7h14.6c0.8,0,1.5-0.7,1.5-1.5v-2.3c0-0.8-0.7-1.5-1.5-1.5h-14.6c-0.8,0-1.5,0.7-1.5,1.5v2.3 C228.2,363.1,228.9,363.7,229.7,363.7z"></path> <path class="st7" d="M321.7,313.3h-52.4c-0.8,0-1.5-0.7-1.5-1.5v-2.3c0-0.8,0.7-1.5,1.5-1.5h52.4c0.8,0,1.5,0.7,1.5,1.5v2.3 C323.1,312.7,322.5,313.3,321.7,313.3z"></path> <path class="st9" d="M412.9,313.3h-70.4c-0.8,0-1.5-0.7-1.5-1.5v-2.3c0-0.8,0.7-1.5,1.5-1.5h70.4c0.8,0,1.5,0.7,1.5,1.5v2.3 C414.4,312.7,413.7,313.3,412.9,313.3z"></path> <path class="st7" d="M354.5,325.9h-85.2c-0.8,0-1.5-0.7-1.5-1.5v-2.3c0-0.8,0.7-1.5,1.5-1.5h85.2c0.8,0,1.5,0.7,1.5,1.5v2.3 C356,325.3,355.3,325.9,354.5,325.9z"></path> <path class="st7" d="M383.8,338.5H269.3c-0.8,0-1.5-0.7-1.5-1.5v-2.3c0-0.8,0.7-1.5,1.5-1.5h114.5c0.8,0,1.5,0.7,1.5,1.5v2.3 C385.3,337.9,384.7,338.5,383.8,338.5z"></path> <path class="st6" d="M414.8,325.9h-39.3c-0.8,0-1.5-0.7-1.5-1.5v-2.3c0-0.8,0.7-1.5,1.5-1.5h39.3c0.8,0,1.5,0.7,1.5,1.5v2.3 C416.2,325.3,415.6,325.9,414.8,325.9z"></path> <path class="st10" d="M523.2,325.9h-87.5c-0.8,0-1.5-0.7-1.5-1.5v-2.3c0-0.8,0.7-1.5,1.5-1.5h87.5c0.8,0,1.5,0.7,1.5,1.5v2.3 C524.7,325.3,524,325.9,523.2,325.9z"></path> <path class="st6" d="M423.6,236h-86.5c-0.8,0-1.5-0.7-1.5-1.5v-2.3c0-0.8,0.7-1.5,1.5-1.5h86.5c0.8,0,1.5,0.7,1.5,1.5v2.3 C425,235.3,424.4,236,423.6,236z"></path> <path class="st9" d="M481.8,236h-37.3c-0.8,0-1.5-0.7-1.5-1.5v-2.3c0-0.8,0.7-1.5,1.5-1.5h37.3c0.8,0,1.5,0.7,1.5,1.5v2.3 C483.3,235.3,482.6,236,481.8,236z"></path> <g> <g> <path class="st11" d="M355.4,34.1l-14.2-14.3l-13.8,11.6c-5.6-3.8-11.6-6.5-18-8l-1.5-18.5l-20.2-0.1l-1.6,18 c-6.4,1.2-12.6,3.6-18.4,7l-14.2-12.1l-14.4,14.2l11.6,13.8c-3.8,5.6-6.5,11.7-8,18l-18.5,1.5l-0.1,20.2l18,1.6 c1.2,6.4,3.5,12.6,7,18.4l-12.1,14.2l14.2,14.4l13.8-11.6c5.6,3.8,11.6,6.5,18,8l1.5,18.5l20.2,0.1l1.6-18 c6.4-1.2,12.6-3.5,18.4-7l14.2,12.1l14.3-14.3l-11.6-13.8c3.8-5.6,6.5-11.7,8-18l18.5-1.5l0.1-20.2l-18-1.6 c-1.2-6.4-3.5-12.6-7-18.4L355.4,34.1z"></path> </g> <g> <g> <g> <g> <rect x="294" y="35.7" class="st12" width="5.3" height="9"></rect> </g> <g> <rect x="311.5" y="42.7" transform="matrix(0.4996 -0.8663 0.8663 0.4996 118.7851 296.3898)" class="st12" width="9" height="5.3"></rect> </g> <g> <rect x="325.6" y="56.9" transform="matrix(0.866 -0.5001 0.5001 0.866 14.4724 173.0629)" class="st12" width="9" height="5.3"></rect> </g> <g> <rect x="330.8" y="76.2" class="st12" width="9" height="5.3"></rect> </g> <g> <rect x="327.4" y="93.7" transform="matrix(0.5 -0.866 0.866 0.5 80.0022 334.9655)" class="st12" width="5.3" height="9"></rect> </g> <g> <rect x="313.3" y="107.9" transform="matrix(0.8661 -0.4998 0.4998 0.8661 -13.8636 172.9498)" class="st12" width="5.3" height="9"></rect> </g> <g> <rect x="294" y="113.1" class="st12" width="5.3" height="9"></rect> </g> <g> <rect x="272.8" y="109.7" transform="matrix(0.5005 -0.8657 0.8657 0.5005 41.2261 296.1635)" class="st12" width="9" height="5.3"></rect> </g> <g> <rect x="258.6" y="95.6" transform="matrix(0.8662 -0.4997 0.4997 0.8662 -13.8644 144.6286)" class="st12" width="9" height="5.3"></rect> </g> <g> <rect x="253.4" y="76.2" class="st12" width="9" height="5.3"></rect> </g> <g> <rect x="260.5" y="55.1" transform="matrix(0.5003 -0.8659 0.8659 0.5003 79.9383 257.5722)" class="st12" width="5.3" height="9"></rect> </g> <g> <rect x="274.6" y="40.9" transform="matrix(0.8663 -0.4994 0.4994 0.8663 14.3919 144.5432)" class="st12" width="5.3" height="9"></rect> </g> </g> <g> <g> <polygon class="st12" points="297.2,80.2 279.3,69 282.1,64.5 296.4,73.5 315.3,54 319.1,57.7 "></polygon> </g> </g> </g> </g> </g> <g> <path class="st13" d="M447.4,179.6c0,0,37.2,0.1,51.6,0.3c9.9,0.1,10.8-14,6.9-16.2c-11.9-6.5-49-9.8-49-9.8l-25.3,23.2 C431.6,177.2,433,177.1,447.4,179.6z"></path> <path class="st14" d="M482.5,103.7c0,0,9.6-2.7,13.7,9.8c6.4,19.2,5.8,36.8,4.9,40.5c-0.4,1.7-1.6,7.7-12.3,7.9 c-4.3,0.1-2.6-9.2-2.6-9.2s-2.8-7.9-5.7-21.2C477.5,118.2,482.5,103.7,482.5,103.7z"></path> <path class="st14" d="M490,104.8l-24.5-7.9l-18.6-1.3l-20.3,6.2c0,0-6.7,4.6-0.5,19.3c6.2,14.8,3.8,37.9,3.8,37.9l52.5,1.7 c0,0,1-21.4,4.5-42.7C487.6,113.1,487.7,107.5,490,104.8z"></path> <g> <path class="st15" d="M464.4,102.6c-0.4,2.8-2.7,5.3-5.1,5.4c-2.3,0-4.6,0-6.9,0c-2.4-0.1-4.8-2.6-5.1-5.4 c-0.6-4.7-1.1-9.4-1.7-14c-0.4-2.8,1.3-8.4,5-10.1c3.4-1.5,7.2-1.5,10.6,0c3.7,1.7,5.4,7.3,5,10.1 C465.6,93.3,465,97.9,464.4,102.6z"></path> </g> <polygon class="st16" points="455.6,108.4 451.2,115.6 443.1,105.5 444.4,100.2 447,98.1 447,102 "></polygon> <polygon class="st16" points="456.1,108.4 460.5,115.6 468,106.2 466.8,100.4 464.9,98 464.1,102.7 "></polygon> <path class="st17" d="M454.8,69.6c-1.9,0-3.7,1-4.6,2.5h-1.9c-2.4,0-4.3,1.9-4.3,4.3V87h3v-4.3c0-1.7,1.4-3,3-3h1.8H449h1.8 c3.1,0,5.6-2.5,5.6-5.6v-4.5H454.8z"></path> <path class="st15" d="M449.4,91c0,1.5-1.2,2.6-2.6,2.6h-0.2c-1.5,0-2.6-1.2-2.6-2.6v-3.2c0-1.5,1.2-2.6,2.6-2.6h0.2 c1.1,0,2,0.6,2.4,1.6"></path> <path class="st18" d="M452.4,73.8v-4.2h1.7h4.6h2.8c3.1,0,5.6,2.5,5.6,5.6v4.2h-1.8h-4.6H458C454.9,79.3,452.4,76.9,452.4,73.8z"></path> <path class="st15" d="M463.4,87.8c0-1.4,1.2-2.6,2.6-2.6h0.2c1.5,0,2.6,1.2,2.6,2.6V91c0,1.5-1.2,2.6-2.6,2.6H466 c-1.1,0-2-0.6-2.4-1.6"></path> <path class="st19" d="M466.3,95c0,2.2-1.7,5.9-4.5,7.1c-3.8,1.6-8.3,1.6-12.1,0c-2.8-1.2-4.5-4.9-4.5-7.1c0-6.3,0-12.5,0-18.8 c0-2.2,2.2-4.1,4.9-4.1c3.7,0,7.5,0,11.2,0c2.7,0.1,5,1.9,4.9,4.1C466.3,82.5,466.3,88.7,466.3,95z"></path> <path class="st18" d="M458,69.6c1.9,0,3.6,1,4.6,2.5h1.9c2.4,0,4.3,1.9,4.3,4.3V87h-3v-4.3c0-1.7-1.4-3-3-3h0h1.1h-4.9 c-3.1,0-5.6-2.5-5.6-5.6v-4.5H458z"></path> <path class="st18" d="M453.3,74.9c0.1-0.3,0.1-0.7,0.1-1.1v-4.2h-1.7h-2.2c-3.1,0-5.6,2.5-5.6,5.6v4.2h1.2h0.6h2.2 c0.4,0,0.8,0,1.1-0.1C449.5,77.1,451.2,75.3,453.3,74.9z"></path> <path class="st20" d="M404.6,250.8c-0.6,0.7-0.1,2.5-0.1,2.5s10,1.1,13.2,0.4c0.8-0.2,2.3-0.9,3.6-1.7c0.2-0.1,0.6-0.9,0.8-1 c0.4-0.2,0.6,0.2,1-0.1c0.9-0.6,1.5-1,1.5-1.1c0.9-4.6-0.3-6.4-0.3-6.4s-8.5-2.8-10.1-0.9C410.4,247.2,405.9,249.3,404.6,250.8z"></path> <path class="st20" d="M498.2,245.8l0.7,7.6l7.6,0.7c0,0,0.5-1,1.2-0.9c0.5,0.1,1.1,1.2,1.9,1.2c1.6,0.2,3.4,0.3,4.1,0.4 c1.4,0.1,15.2,1.5,15.2,1.5s0.5-1.5,0.1-2.1c-0.2-0.3-1.4-0.9-2.2-1.2c-3.8-1.5-14.7-6-16.3-9.9 C508.5,238.2,498.2,245.8,498.2,245.8z"></path> <g> <path class="st19" d="M486.8,150l-25.6,10.5c0,0,18.2,2.6,29.5,0.3C498.4,159.2,487.1,149.7,486.8,150z"></path> </g> <path class="st13" d="M428.6,165.9c0,0-2.5,23.4-2.1,35.7c0.3,9.3,0.3,27.2-1.9,42.4c-0.1,0.9-12.1,0.2-12.1,0.2s-4.3-58-5.5-67.5 C405.7,167.3,409.4,160.4,428.6,165.9z"></path> <path class="st21" d="M503.6,171.6c0,0-3.8,6.1-14.4,7.5c-3.8,0.5,6.1,67.9,6.1,67.9l15.6-5l-3-74.5L503.6,171.6z"></path> <path class="st21" d="M460.6,179.1c0,0-20.3,2.9-33.9,4.3c-5,0.5-9.3-13.4-9.9-14c-3.6-3.8-7.2-3.3-7.1-3.5 c2.9-3.2,18.2-6.1,34.1-9.9c15.9-3.7,18.3-1.4,18.3-1.4L460.6,179.1z"></path> <path class="st21" d="M443.9,156c-15.9,3.7-31.2,6.7-34.1,9.9c-0.1,0.1,3.5-0.3,7.1,3.5c0.2,0.2,1.1,4.6,1.7,6.2 c-2.6-4.7,34.8-17.9,42.9-21.3C460,153.8,455.6,153.3,443.9,156z"></path> <polygon class="st21" points="426.4,178.9 424.8,224.4 423.3,235 423.1,224.4 423.4,217.8 419.8,207.6 417.9,183.9 420.7,184.9 420.3,174.6 "></polygon> <path class="st13" d="M503,165.9l3.8,1l1.4,54.7l-8,19.6l3.8-13.3l-1.6-27.5c0,0-5.5,13.3-5.5,12.6c0-0.7,4.7-28.9,4.7-28.9 s-5.2,4.3-4.7,4.2C497.5,188.1,500.1,168.5,503,165.9z"></path> <path class="st14" d="M437.8,102c0,0-8.2-6.4-16.2,5.5c-11.7,17.4-16.8,36-18.7,41.3c-1.4,4.1-0.6,15.7,4.2,20.5 c1.2,1.2,8.1,0.2,8.1,0.2l4.5-3.1l-1.9-3.7l-0.1-2.9c0,0,5.8-14,12.9-27.3C437.8,119.3,437.8,102,437.8,102z"></path> <g> <path class="st19" d="M417.8,155.2l26.5,1.4c0,0-25.6,11.7-26.4,9.7C413.2,154.9,417.8,155.2,417.8,155.2z"></path> <g> <path class="st19" d="M432.4,154.4c1.5-0.7,1.4-0.8,1.4-0.8s1.4,1.7,3.5,2c1,0.2,4.3,0.2,4.3,0.2l4.9,0.1l2.3-0.1 c0,0,1.3-0.2,1.6,0.1c1,0.6,0.1,1.1,0.1,1.1l-8.8,1.2l8.4,1c0,0,1.1,0.3,1.1,0.9c0,0.5-0.3,0.5-0.3,0.5l-9.8,1l4.3,1 c0,0,1,0.3,1.1,0.9c0.1,0.6,0.1,0.8,0.1,0.8l-9-0.9C437.7,163.6,430.9,155.2,432.4,154.4z"></path> <path class="st19" d="M442.1,159.8l5.9,1.1c0,0,1.3,0.1,1.9,0.5c0.7,0.5,0.3,1.1,0.3,1.1l-9-0.8L442.1,159.8z"></path> </g> </g> <g> <path class="st22" d="M479,164.5C479,164.5,479.1,164.4,479,164.5v-1.7h-52.3v1.7c0,0,0,0,0,0.1l0.2,0.3c0.9,1.5,2.5,1.7,4.3,1.7 h43.3c1.8,0,3.4-0.3,4.3-1.7L479,164.5z"></path> <g> <rect x="435.6" y="163.1" class="st23" width="34.6" height="1.2"></rect> </g> <g> <path class="st24" d="M479,162.9l0.1-34.3c0-0.9-0.7-1.6-1.6-1.6h-49c-0.9,0-1.6,0.7-1.6,1.6l-0.1,34.3H479z"></path> <path class="st22" d="M456.1,145c0,1.7-1.4,3.2-3.2,3.2c-1.8,0-3.2-1.4-3.2-3.2c0-1.8,1.4-3.2,3.2-3.2 C454.7,141.8,456.1,143.2,456.1,145z"></path> </g> </g> <polygon class="st16" points="414.4,168.5 412.5,156.9 415.6,153.8 422.3,154.8 420.9,167.7 "></polygon> <polygon class="st16" points="495.8,160.2 496.5,155.9 488,148.3 483.4,150.3 489.4,161.8 "></polygon> </g> <g> <g> <path class="st25" d="M171.4,384.5h34.8c1.2,0,2.2-1,2.2-2.2c0-1.2-1-2.2-2.2-2.2h-34.8c-1.2,0-2.2,1-2.2,2.2 C169.2,383.5,170.2,384.5,171.4,384.5L171.4,384.5z"></path> </g> <path class="st26" d="M145.5,295.4c0-23.9,19.4-43.3,43.3-43.3c23.9,0,43.3,19.4,43.3,43.3c0,1.4-1,21.4-17.3,42.4 c-4.8,6.3-4,19.1-3.9,19.1c-6.7,0-12.2,0-18.9,0c-2.1,0-4.1,0-6.1,0c-6.7,0-12.3,0-19,0c0,0,0.9-12.7-3.8-19.1 C146.5,316.8,145.5,296.8,145.5,295.4z"></path> <path class="st4" d="M174.9,351.3c-0.3-5.5-1.6-15.7-5-20.2c-15.5-20-16.2-38.9-16.2-39.1c0-20.7,16.9-37.6,37.6-37.6 c20.8,0,37.7,16.9,37.7,37.6c0,0.2-0.7,19.1-16.2,39c-3.4,4.5-4.8,14.8-5.1,20.3H174.9z"></path> <g> <g> <path class="st27" d="M222.9,298.8c-1.9,0-3.4-1.5-3.4-3.4c0-16.9-13.8-30.7-30.7-30.7c-1.9,0-3.4-1.5-3.4-3.4 c0-1.9,1.5-3.4,3.4-3.4c20.7,0,37.5,16.8,37.5,37.5C226.2,297.3,224.7,298.8,222.9,298.8z"></path> </g> </g> <g> <g> <g> <polygon class="st28" points="177.7,360.3 172.1,315.6 174.3,315 179.9,359.6 "></polygon> </g> </g> <g> <g> <polygon class="st28" points="199.7,360.3 205.3,315.6 203.1,315 197.5,359.6 "></polygon> </g> </g> <g> <path class="st28" d="M203.5,321.2c-1.6,0-2.2-1.5-2.7-2.6c-0.2-0.5-0.6-1.4-0.9-1.4c-0.2,0-0.7,1-0.9,1.4 c-0.5,1.1-1.2,2.6-2.7,2.6c-1.6,0-2.2-1.5-2.7-2.6c-0.1-0.3-0.3-0.7-0.5-1c-0.8,1.5-2.2,3.6-4,3.6c-1.6,0-2.2-1.5-2.7-2.6 c-0.2-0.5-0.6-1.4-0.9-1.4c-0.2,0-0.7,1-0.9,1.4c-0.5,1.1-1.2,2.6-2.7,2.6c-1.6,0-2.2-1.5-2.7-2.6c-0.2-0.5-0.6-1.4-0.9-1.4 c-0.2,0-0.7,1-0.9,1.4c-0.5,1.1-1.2,2.6-2.7,2.6v-2c0.2,0,0.7-1,0.9-1.4c0.5-1.1,1.2-2.6,2.7-2.6c1.6,0,2.2,1.5,2.7,2.6 c0.2,0.5,0.6,1.4,0.9,1.4s0.7-1,0.9-1.4c0.5-1.1,1.2-2.6,2.7-2.6c1.6,0,2.2,1.5,2.7,2.6c0.2,0.5,0.6,1.4,0.9,1.4 c0.6,0,1.9-1.6,2.7-3.4c0.2-0.4,0.5-0.6,0.9-0.6c1.6,0,2.2,1.5,2.7,2.6c0.2,0.5,0.6,1.4,0.9,1.4c0.2,0,0.7-1,0.9-1.4 c0.5-1.1,1.2-2.6,2.7-2.6c1.6,0,2.2,1.5,2.7,2.6c0.2,0.5,0.6,1.4,0.9,1.4V321.2z"></path> </g> </g> <path class="st25" d="M210.8,357.2v22.6c0,1.6-1.3,2.8-2.8,2.8h-38.4c-1.6,0-2.8-1.3-2.8-2.8v-22.6H210.8z"></path> <g> <path class="st25" d="M211.7,361.6h-45.9c-1.2,0-2.2-1-2.2-2.2c0-1.2,1-2.2,2.2-2.2h45.9c1.2,0,2.2,1,2.2,2.2 C213.9,360.6,212.9,361.6,211.7,361.6z"></path> </g> <g> <path class="st28" d="M191.4,360.4H166c-0.7,0-1.2-0.6-1.2-1.2c0-0.7,0.5-1.2,1.2-1.2h25.4c0.7,0,1.2,0.5,1.2,1.2 C192.6,359.9,192.1,360.4,191.4,360.4z"></path> </g> <g> <path class="st25" d="M211.7,369h-45.9c-1.2,0-2.2-1-2.2-2.2c0-1.2,1-2.2,2.2-2.2h45.9c1.2,0,2.2,1,2.2,2.2 C213.9,368,212.9,369,211.7,369z"></path> </g> <g> <path class="st25" d="M211.7,376.4h-45.9c-1.2,0-2.2-1-2.2-2.2c0-1.2,1-2.2,2.2-2.2h45.9c1.2,0,2.2,1,2.2,2.2 C213.9,375.4,212.9,376.4,211.7,376.4z"></path> </g> <g> <path class="st28" d="M191.4,367.5H166c-0.7,0-1.2-0.5-1.2-1.2c0-0.7,0.5-1.2,1.2-1.2h25.4c0.7,0,1.2,0.5,1.2,1.2 C192.6,366.9,192.1,367.5,191.4,367.5z"></path> </g> <g> <path class="st28" d="M191.4,375H166c-0.7,0-1.2-0.6-1.2-1.2c0-0.7,0.5-1.2,1.2-1.2h25.4c0.7,0,1.2,0.6,1.2,1.2 C192.6,374.4,192.1,375,191.4,375z"></path> </g> <rect x="172.8" y="361.6" class="st29" width="21.7" height="2.3"></rect> <rect x="172.8" y="368.8" class="st29" width="21.7" height="2.3"></rect> <rect x="172.8" y="376" class="st29" width="21.7" height="2.3"></rect> </g> <g> <g> <rect x="249.5" y="564.9" transform="matrix(0.8907 -0.4547 0.4547 0.8907 -232.3732 178.1834)" class="st30" width="9.6" height="14.6"></rect> <path class="st17" d="M234.3,512.9l23.8,51.9l-10.5,4.7c0,0-30.3-49.9-27.6-54C222.6,511.4,232.9,510.2,234.3,512.9z"></path> <path class="st31" d="M263.4,580.5l-6.2,3.2l-1-1.9l-1.7,3.3l-15.7,8c0,0-1-2.7,9.3-8.5c2.7-1.5,2.7-6.1,2.7-6.1s0.7-1.9,4.2-0.1 c0.9,0.5,5.9-3.8,5.9-3.8S263.3,578,263.4,580.5z"></path> </g> <g> <g> <path class="st28" d="M77.6,539.9c-1.7,0-4.3-0.4-6.6-2.4c-3.3-2.9-4.8-8-4.3-15.3c0.3-4.9,2.3-9.8,4.3-15.1 c3.4-8.8,7.3-18.8,5.3-32l3.8-0.6c2.2,14.2-2.1,25.2-5.5,34c-2,5.2-3.8,9.6-4,14c-0.4,5.9,0.6,10.1,2.9,12.1 c2.2,1.9,4.9,1.4,5.1,1.4l0.8,3.7C79.2,539.7,78.6,539.9,77.6,539.9z"></path> </g> <g> <g> <path class="st32" d="M106.9,570.2l3.7,5.7l-31.3,10c0,0-2.1-2,5.6-6C93.9,575.2,106.9,570.2,106.9,570.2z"></path> <path class="st32" d="M112.5,570.2l-3.7,5.7l31.3,10c0,0,2.1-2-5.6-6C125.5,575.2,112.5,570.2,112.5,570.2z"></path> </g> <rect x="106.4" y="553.3" class="st32" width="6.5" height="23.3"></rect> <g> <path class="st33" d="M106.5,571.4l3.2,5.4l-26.8,9.6c0,0-1.8-1.9,4.8-5.7C95.4,576.1,106.5,571.4,106.5,571.4z"></path> <path class="st33" d="M112.9,571.4l-3.2,5.4l26.8,9.6c0,0,1.8-1.9-4.8-5.7C124,576.1,112.9,571.4,112.9,571.4z"></path> </g> <ellipse class="st34" cx="83.7" cy="588.5" rx="2.3" ry="2.3"></ellipse> <circle class="st34" cx="135.5" cy="588.5" r="2.3"></circle> <circle class="st28" cx="78.2" cy="588.5" r="2.3"></circle> <ellipse class="st28" cx="141" cy="588.5" rx="2.3" ry="2.3"></ellipse> </g> <rect x="107.2" y="544.8" class="st28" width="4.8" height="8.4"></rect> <path class="st28" d="M115.6,540.4c0,2.6-2.1,4.7-4.7,4.7h-2.6c-2.6,0-4.7-2.1-4.7-4.7l0,0c0-2.6,2.1-4.7,4.7-4.7h2.6 C113.5,535.7,115.6,537.8,115.6,540.4L115.6,540.4z"></path> <path class="st35" d="M145.1,536.1c0.1-0.6,0.2-4,0.2-4.6c0-3.8-2.4-6.8-5.4-6.8H79.4c-3,0-5.4,3-5.4,6.8c0,0.6,0.1,4,0.2,4.6 H145.1z"></path> <path class="st28" d="M73.4,537.9c0,1.2,0.7,2.1,1.5,2.1h69.5c0.8,0,1.5-0.9,1.5-2.1l0,0c0-1.2-0.7-2.1-1.5-2.1H74.9 C74.1,535.9,73.4,536.8,73.4,537.9L73.4,537.9z"></path> <g> <path class="st35" d="M76.8,501.2c1.5,0.1,11,0.3,12.6,0.3c10.4,0.1,19.3-1.8,19.8-4.4c2.1-10.6,2.1-21.5,0.3-32.2 c-0.4-2.6-9.5-4.5-20.1-4.4c-1.7,0-11.3,0.2-12.9,0.3C79.7,474.1,79.8,487.9,76.8,501.2z"></path> <path class="st28" d="M75.3,460.9c-1.2,0-2,0.6-1.8,1.2c2.9,12.5,3,25.4,0.3,37.9c-0.1,0.7,0.7,1.2,1.8,1.2l0,0 c1.1,0,2.2-0.5,2.3-1.2c2.7-12.5,2.6-25.5-0.2-37.9C77.6,461.4,76.5,460.8,75.3,460.9L75.3,460.9z"></path> <path class="st36" d="M74.9,501.1c0.3,0.1,2.4,0.2,2.7,0.2c2.3,0,4.6-2,5-4.5c1.9-10.5,1.8-21.2-0.1-31.7 c-0.5-2.5-2.9-4.5-5.2-4.5c-0.4,0-2.5,0.1-2.8,0.2C77.8,474.1,77.9,487.9,74.9,501.1z"></path> </g> </g> <g> <g> <path class="st28" d="M320.9,539.9c1.7,0,4.3-0.4,6.6-2.4c3.3-2.9,4.8-8,4.3-15.3c-0.3-4.9-2.2-9.8-4.3-15.1 c-3.4-8.8-7.3-18.8-5.3-32l-3.8-0.6c-2.2,14.2,2.1,25.2,5.5,34c2,5.2,3.8,9.6,4,14c0.4,5.9-0.6,10.1-2.9,12.1 c-2.2,1.9-4.9,1.4-5.1,1.4l-0.8,3.7C319.3,539.7,319.9,539.9,320.9,539.9z"></path> </g> <g> <path class="st28" d="M294.4,539.9c1.7,0,4.3-0.4,6.6-2.4c3.3-2.9,4.8-8,4.3-15.3c-0.3-4.9-2.2-9.8-4.3-15.1 c-3.4-8.8-7.3-18.8-5.3-32l-3.8-0.6c-2.2,14.2,2.1,25.2,5.5,34c2,5.2,3.8,9.6,4,14c0.4,5.9-0.6,10.1-2.9,12.1 c-2.2,1.9-4.9,1.4-5.1,1.4l-0.8,3.7C292.8,539.7,293.5,539.9,294.4,539.9z"></path> </g> <g> <g> <path class="st32" d="M291.6,570.2l-3.7,5.7l31.3,10c0,0,2.1-2-5.6-6C304.6,575.2,291.6,570.2,291.6,570.2z"></path> <path class="st32" d="M286,570.2l3.7,5.7l-31.3,10c0,0-2.1-2,5.6-6C273,575.2,286,570.2,286,570.2z"></path> </g> <rect x="285.5" y="553.3" class="st32" width="6.5" height="23.3"></rect> <g> <path class="st33" d="M292,571.4l-3.2,5.4l26.8,9.6c0,0,1.8-1.9-4.8-5.7C303.1,576.1,292,571.4,292,571.4z"></path> <path class="st33" d="M285.6,571.4l3.2,5.4l-26.8,9.6c0,0-1.8-1.9,4.8-5.7C274.5,576.1,285.6,571.4,285.6,571.4z"></path> </g> <ellipse class="st34" cx="314.8" cy="588.5" rx="2.3" ry="2.3"></ellipse> <circle class="st34" cx="263" cy="588.5" r="2.3"></circle> <ellipse class="st28" cx="320.3" cy="588.5" rx="2.3" ry="2.3"></ellipse> <ellipse class="st28" cx="257.5" cy="588.5" rx="2.3" ry="2.3"></ellipse> </g> <rect x="286.5" y="544.8" class="st28" width="4.8" height="8.4"></rect> <path class="st28" d="M282.9,540.4c0,2.6,2.1,4.7,4.7,4.7h2.6c2.6,0,4.7-2.1,4.7-4.7l0,0c0-2.6-2.1-4.7-4.7-4.7h-2.6 C285,535.7,282.9,537.8,282.9,540.4L282.9,540.4z"></path> <path class="st35" d="M253.4,536.1c-0.1-0.6-0.2-4-0.2-4.6c0-3.8,2.4-6.8,5.4-6.8h60.5c3,0,5.4,3,5.4,6.8c0,0.6-0.1,4-0.2,4.6 H253.4z"></path> <path class="st28" d="M325.1,537.9c0,1.2-0.7,2.1-1.5,2.1h-69.5c-0.8,0-1.5-0.9-1.5-2.1l0,0c0-1.2,0.7-2.1,1.5-2.1h69.5 C324.5,535.9,325.1,536.8,325.1,537.9L325.1,537.9z"></path> <g> <path class="st35" d="M321.7,501.2c-1.5,0.1-11,0.3-12.6,0.3c-10.4,0.1-19.3-1.8-19.8-4.4c-2-10.6-2.1-21.5-0.3-32.2 c0.4-2.6,9.5-4.5,20.1-4.4c1.7,0,11.3,0.2,12.9,0.3C318.8,474.1,318.7,487.9,321.7,501.2z"></path> <path class="st28" d="M323.2,460.9c1.2,0,2,0.6,1.8,1.2c-2.9,12.5-3,25.4-0.3,37.9c0.1,0.7-0.7,1.2-1.8,1.2l0,0 c-1.1,0-2.2-0.5-2.3-1.2c-2.7-12.5-2.6-25.5,0.2-37.9C320.9,461.4,322,460.8,323.2,460.9L323.2,460.9z"></path> <path class="st36" d="M322.9,500.9c-0.3,0.1-2.4,0.2-2.7,0.2c-2.3,0-4.6-2-5-4.5c-1.9-10.5-1.8-21.2,0.1-31.7 c0.5-2.5,2.9-4.5,5.2-4.5c0.4,0,2.5,0.1,2.8,0.2C320,473.9,319.9,487.7,322.9,500.9z"></path> </g> </g> <g> <rect x="191.5" y="484" class="st32" width="18.7" height="102.7"></rect> <polygon class="st37" points="191.5,520.8 191.5,484 210.1,484 210.1,507.7 "></polygon> <rect x="139.7" y="480.6" class="st32" width="122.3" height="6"></rect> <rect x="166.4" y="580.9" class="st37" width="68.8" height="6"></rect> </g> <g> <path class="st17" d="M304.6,471.1c0,0,6.2,19,10.2,24.8c2.9,4.1,5.4,12.7,5.1,16.6c-0.3,3.8-0.7,16.2-7.3,16.9 c-9.6,1-27.7-0.3-27.7-0.3s-10.5-27.1-10.2-30.6c0.3-3.5,2.6-7.7,3-9.4c0.5-1.7-2.7-8.4-2.7-8.4L304.6,471.1z"></path> <g> <path class="st17" d="M283.9,509.7l-51.1,26.6c0,0-17.7-18-10.4-22.8c14.2-9.2,55.3-24.4,55.3-24.4L283.9,509.7z"></path> </g> <polygon class="st30" points="231.4,583.6 230.6,597.3 219.9,597 222.7,581.4 "></polygon> <path class="st38" d="M312,529.4l-67.5-0.2c0,0-12.4-5.5-6.4-12.7c3.8-4.6,50.6-13.6,64.1-13.8C329.5,502.3,312,529.4,312,529.4z "></path> <path class="st38" d="M254.6,527.8l-22.2,61.3l-11.8-5c0,0,9.9-63.1,17.4-64.9C245.6,517.4,255.2,525.7,254.6,527.8z"></path> <path class="st31" d="M230.6,598.9l-7.3,0.2l-0.1-2.2l-3.1,2.3l-18.5,0.6c0,0,0.2-3,12.6-3.9c3.2-0.2,5.3-4.6,5.3-4.6 s1.5-1.5,4,1.8c0.6,0.8,7.3-1,7.3-1S231.6,596.5,230.6,598.9z"></path> <path class="st17" d="M285.5,504.4c3.2,10.8,5.6,18.7,5.6,18.7l25-2.2c2.7-7.9,3.1-18.4-14-18.2 C298.5,502.7,292.4,503.3,285.5,504.4z"></path> <path class="st15" d="M225.8,432.1l2.4-7.9l-2.2-4.5l-5.7,1.9l-3.8,2.1l-1,3.1c0,0,2.2,6.2,5.5,7.6 C224.4,435.9,225.8,432.1,225.8,432.1z"></path> <path class="st15" d="M267.1,396.3c0,0-0.2,8.6,6.2,14.6c6.4,6-17.4,8.6-17.4,8.6s4.2-9.2-8.7-10 C240.4,409.1,264.3,393.9,267.1,396.3z"></path> <path class="st17" d="M245.2,424.5c0,0-9.3,45.1-18.2,51.8c-8.6,6.5-5.5-4.3-4.5-12.7c1-8.4,7.2-33.4,9.1-36.3 C233.5,424.5,242.3,420.2,245.2,424.5z"></path> <path class="st39" d="M286.6,413.2c0,0-10.8,0.6-22.7,3.1c-11.1,2.3-22,6.2-23.6,7.7c-3.2,3.2,2.2,25.8,15.3,38.5 c13.1,12.7,18.8,25.5,18.8,25.5s36.9,3.5,39.2,2.2c-3.5,2-4.8-21.1-5.7-22.6c-2.9-4.8-13.4-36.6-11.5-43 C298.3,418.3,292.9,411.6,286.6,413.2z"></path> <path class="st38" d="M262.9,471.1c0,0-8-15-8.6-22c-0.6-7-0.3-30.6-0.3-30.6l-16.6,4.8c0,0,2.9,25.8,6.7,31.2 C248,460,262.9,471.1,262.9,471.1z"></path> <rect x="291.2" y="470.4" transform="matrix(4.191874e-02 -0.9991 0.9991 4.191874e-02 -208.3191 761.8931)" class="st35" width="3.8" height="38.4"></rect> <rect x="278.2" y="488.5" transform="matrix(4.186701e-02 -0.9991 0.9991 4.186701e-02 -219.1329 749.8383)" class="st17" width="6.4" height="1.4"></rect> <polygon class="st17" points="294.3,493.1 292.8,493.1 293.1,486.7 294.5,486.8 "></polygon> <polygon class="st17" points="310.6,493.8 309.1,493.7 309.4,487.4 310.8,487.4 "></polygon> <path class="st38" d="M228.2,472.7c0,0-1.9,6.4-6.7,6.7c-4.8,0.2-7.4-9.3-6.7-22.2c0.7-12.9,2.9-23.6,2.9-23.6l7.4-1 C225.1,432.6,230.6,469.9,228.2,472.7z"></path> <path class="st19" d="M263.3,389.8c-2.6-5.3-14.6-9.9-16.5-7c-0.8,1.3-1.4,2.6-1.7,3.8c-0.2,1.5-0.5,2.9-0.7,4.3 c-0.1,0.3-0.1,0.6-0.1,1c0,0,0,0,0,0.1v16.6c0,0.5,0.4,0.9,0.9,0.9h10.9c0.5,0,6.5-5.2,7.5-6.4c1.2-1.3,2.5-2.2,3-3.3 C267.4,398.4,265.7,394.6,263.3,389.8z"></path> <polygon class="st19" points="248.9,387.6 252.9,394.5 256.8,401.3 248.9,401.3 241,401.3 245,394.5 "></polygon> <path class="st13" d="M267.6,400.3l-2.5-14.7c0,0-0.7-2.5-8.4-3.7c-7.8-1.2-10.4,0.1-10.4,0.1l-3.4,2.1l1.8,3.7l8.9-0.7l-1.6,5.8 l1.9,6.4l2.2,0.1l0.1,0.2c0,0-0.6-3.6,1.5-5.3c2.1-1.7,3.9,0.5,3.1,2.8c-0.8,2.3-0.6,3.1-0.6,3.1l3,2.4L267.6,400.3z"></path> <polygon class="st40" points="262,413.5 262,417.3 258.8,422.7 254,418.6 255.6,413.2 "></polygon> <polygon class="st40" points="274.1,410 276.6,414.1 268.7,421.1 262,417.3 262,413.5 "></polygon> <path class="st38" d="M284.3,410.3l-9.4,0.8c0,0-9.6,15.3,0.8,52.4c6.6,23.5,15.9,54.1,15.9,54.1l32.8-2.9c0,0-12-20.7-14-41.1 c-1.6-16.2-0.7-33.1-2.6-38.2c-2.3-6.5,1.4-13-1.1-16.6C299.8,409.2,286.6,410.1,284.3,410.3z"></path> <path class="st15" d="M247,478.9c0,0-1.6,0.5-4.1,0.9c-1.6,0.3-4.1,0.8-4.1,0.8l-6.4-0.5l-3-0.8l1.8-4.1l4-2.9c0,0,4.1-3,5.1-2.5 c1,0.4,6.2,1.8,6.2,1.8L247,478.9z"></path> <path class="st17" d="M294.1,482.5c0,0-1.7,5.7-12.9,3.7c-11.3-2-35.9-7.1-35.9-7.1l-0.5-10.8c0,0,28.2,2.8,33.3,3.5 C283.1,472.4,294.3,470.8,294.1,482.5z"></path> <path class="st17" d="M284.1,480.6l9.6,3.7c0,0,13.1-31.9,15.4-43.2c1.2-6.1,1.2-20.6-3.2-24.6c-6.5-5.9-15.1-5.9-15.1-5.9 s-4.8,17.5-5.3,23.6C284.9,440.2,284.1,480.6,284.1,480.6z"></path> </g> <g> <path class="st41" d="M133.8,448.9L130,487v2.3l-11.3-0.7c0,0,3.3-30.4,3.8-31.9c0.5-1.5,1.6-14.2,1.5-16.5 c-0.2-2.3,4-17.7,8.4-11.3C138.7,438.1,133.8,448.9,133.8,448.9z"></path> <ellipse transform="matrix(0.2186 -0.9758 0.9758 0.2186 -321.6961 428.0882)" class="st13" cx="106.5" cy="414.9" rx="14.7" ry="15"></ellipse> <path class="st13" d="M134.9,410.1c-1.4,6.1-7.4,9.9-13.5,8.6l-1.6-5.9c-6.1-1.4-9.9-7.4-8.6-13.5l0.9-4.1 c1.4-6.1,7.4-9.9,13.5-8.6l2.8,0.6c6.1,1.4,9.9,7.4,8.6,13.5L134.9,410.1z"></path> <path class="st19" d="M134.2,392.9c-0.2,1-0.6,2-1,3c-2.7,6.8-8.2,11.2-13.1,10.9c-0.9,3.2-2.2,5.9-3.5,8.2 c-1.5,2.6-5.4,4.8-5.4,4.8c-1.9,4.8,12.3,15.3,13.1,14.9c1.7-0.9,3.5-6.9,0.4-10.5c-1.5-1.7-3-3.6-3-4.7c-0.1-3.9,1.1-4.8,3-6.6 c3.3-2.5,7.1-1.6,7.1-1.6c0.4,0.1,0.7,0,1-0.2c0.4-0.7,0.7-1.4,0.9-2.2l2-9.1C136.4,397.2,135.7,394.7,134.2,392.9z"></path> <path class="st10" d="M114.4,494.3c0,0,4.9,4.4,6.3,4.8c1.8,0.5,7-1.7,7-1.7s-1.4-23-0.9-32c0.5-9.1,2.7-11.7,2.4-14.5 c-0.4-4.5-0.8-5.5-1.9-8.9c-1.1-3.4-2.7-9.1-3.7-9.7c-1.6-1-3.3-2.3-4.5-4C118.5,427.2,114.4,494.3,114.4,494.3z"></path> <path class="st10" d="M125.2,421.4c0,0,7.1,6.1,7,8.2c-0.1,2.2,1.5,14.1,0.8,23.9c-0.7,9.8-1.7,12.3-1.4,19.4 c0.3,7.1,2.1,8.5,2.2,17.3c0.1,6.8-0.5,12.9-0.5,12.9s-3,1.1-5.5-1.2c-2.5-2.3-3.6-26-3.2-31.9c0.4-5.9,2.6-21.4,2-25.5 c-0.5-4-2.9-16.5-3.7-17.7C120.8,423.7,124.7,421.7,125.2,421.4z"></path> <path class="st41" d="M125.2,420.8c0,0-0.3,0.6-0.7,0.9c-0.8,0.7-1.8,1.9-1.8,1.9s1.3-0.7,1.8,0.4c0.7,1.3,1.4,4.4,1.4,4.4 s2.1-4.2,1.4-5.4C126,420.8,125.2,420.8,125.2,420.8z"></path> <ellipse transform="matrix(0.2186 -0.9758 0.9758 0.2186 -344.9049 438.7603)" class="st13" cx="101.5" cy="434.7" rx="15.4" ry="15.7"></ellipse> <polygon class="st19" points="149.1,572.8 146.2,595.3 158.9,601.1 165.9,602.6 153.4,593.2 157.5,572.9 "></polygon> <path class="st20" d="M145.4,598.7l2.8,0.7l1.8-1.7l10.1,4.9l9,2.1c0,0,0.1-0.7-0.2-1.1c-1.1-1.4-7.4-4.6-7.4-4.6s-0.1,2.1-1,2.1 c-0.9,0.1-8.7-3.9-10.5-5c-3.1-1.9-3.7-3.1-3.9-2.9C145.5,593.6,145.4,598.7,145.4,598.7z"></path> <polygon class="st19" points="179.7,541.5 189.8,560.6 203.7,560 210.7,558 195.3,555.5 186.9,539.1 "></polygon> <path class="st20" d="M190.6,564l2.8-0.6l0.9-2.3l12.5-0.2l7.5-1.7c0,0-0.9-1-1.5-1.2c-1.7-0.7-7.6-1-7.6-1s0.6,1.6-0.1,2.1 c-0.8,0.5-9.4,0.7-11.5,0.6c-3.6-0.3-4.7-1-4.8-0.8C188.4,559.5,190.6,564,190.6,564z"></path> <path class="st38" d="M106.1,484.1l7.5,3.3l3.3,9.8l48.4-8c0,0,4.9-1.5,8.1,6.3c4.5,11.1,15.8,45.5,15.8,45.5l-7.2,7.5 l-22.6-38.9c0,0-46.2,21.7-61.5,17c-5.8-1.8-10.3-12.1-9.5-22.6c0.7-8.2,2.3-15.7,2.3-15.7L106.1,484.1z"></path> <path class="st17" d="M112.7,526.4l37-2.7l-3.2,57.1l10.9,0.3l8.1-66.8c0,0-2.2-9.9-9.2-8.4C149.1,507.3,132,520.4,112.7,526.4z"></path> <path class="st10" d="M117.3,498.6c0,0,0.9-23.2,1.6-34.2c0.7-11,0.5-32.3,0.7-34.9c0.1-2.6-0.6-6.4-0.6-6.4s-3.3-5.7-7.1-5.2 c-3.3,0.4-16,8.5-20.8,10.8c-3.4,1.6,4.2,36.9,4.1,38.9c-0.6,7.1-3.6,15.3-5.6,21c-1.6,4.5-2.5,11.2-2.5,11.2 S105.9,496.2,117.3,498.6z"></path> <polygon class="st41" points="113.1,416.1 115.7,418.7 119.5,422.7 117.6,427.2 111,417.9 "></polygon> <g> <path class="st19" d="M108,476.7c0,0,0.4,2.8,15.6,1.2c15.2-1.7,37.2-7.6,37.2-7.6l-35.4,0.9C125.4,471.2,111.8,472.1,108,476.7 z"></path> <path class="st19" d="M148.9,472.7c7.3-0.6,10.6,2.4,13.6,3.2c3,0.8,6,2.1,5.9,2.1c-1.8-2.7-4.2-2.6-5.4-3.4 c-1.2-0.8-0.9-0.4,1.7-0.8c1.5-0.2,4.2,1.9,6.2,3.1c1.7,1,2.7,1,2.7,1s-2.1-2.2-4.6-3.9c-3.1-2.1-6.8-3.7-7.7-3.9 c-1.6-0.4-6.5-0.2-9.9,0.5C147.6,471.3,143.7,473.1,148.9,472.7z"></path> <path class="st19" d="M160.9,470.2c0,0,5.6,0.8,6.7,1.4c0.7,0.4,3.8,2.9,3.8,2.9s-2.1-0.1-3.4-1.1 C166.7,472.5,160.9,470.2,160.9,470.2z"></path> </g> <path class="st41" d="M114.3,470.2l-7.8-33.6c0,0-4.8-5.9-7.6-7.6c-3.3-2.1-8.2,0-8.2,0s0.1,5.8,6.1,31.6 c4.1,17.7,5.1,25.1,13.5,23.8c7.8-1.2,16.7-3,16.7-3l3.1-12.1L114.3,470.2z"></path> </g> </g> <g> <g> <g> <path class="st15" d="M597.2,420l2.7,3.4c0,0,1.3,1.8,3.1,2.8c1.8,1,3.1-0.8,3.9-3.9c0.8-3.1,0.7-4.9,0.7-4.9s-1.5-3.4-3.3-1.9 c-1.7,1.5-6.3,0.1-6.4,1.6C597.8,418.6,597.2,420,597.2,420z"></path> <polygon class="st15" points="606.9,416 610.1,419.1 613.1,422.3 612.5,423.2 610.3,421.5 606.2,422.1 606.4,420.1 "></polygon> <polygon class="st15" points="609.6,423.6 611.7,427.7 611.2,428.9 608.8,425.5 605.7,423.7 606.4,420.1 "></polygon> <polygon class="st15" points="610.3,430.4 608.7,426.9 607.8,424.3 606.2,423.1 605.1,425.7 606.9,426.8 609.4,430.8 "></polygon> <polygon class="st15" points="608.2,432.5 605.9,425.4 604.7,424.7 603.9,426.4 605.6,428.8 607.4,432.3 "></polygon> </g> <path class="st15" d="M596.5,415.5c1.7,1.8,3.6,0.2,3.6,0.2s4.7-3.7,5.7-2.8c1,0.9,3.2,0.7,3.2,0.7s1,0.7-0.9,2.3 c-1.2,1-2.5,1.2-2.5,1.2s-2.2,3.9-3.1,4.2c-1.8,0.6-5.9-3.9-5.9-3.9S596.3,415.2,596.5,415.5z"></path> <path class="st39" d="M603.3,345.3c0,0-5.4-6-13.7,6.6c-5.7,8.8-6.9,14.7-8.5,19.6c-0.2,0.6-1,3.1-1.1,3.1c-1.4,0-1.3-0.5-1.8,1 c-1.4,4.5-0.9,6.7-0.9,6.7l0.9,3.9l13.4,7.3l0.9-9.2l-0.4-1.3c0,0,0.2-2,1.2-2.7c0.9-0.6,4.5-11,12.3-17 C609.1,360.8,603.8,346.9,603.3,345.3z"></path> <g> <path class="st40" d="M594.3,377.2c-0.7,1.3-0.7,2.1-1.4,3.4c-1,2.1-1.4,0.1-0.7-2.6c0.8-3.2,1-4.7,2.5-7.4 c2.2-3.9,4.2-6.5,5.7-8.6c1.5-2.1-0.9,6-1.5,6.7C597,371.2,596.7,372.7,594.3,377.2z"></path> </g> <path class="st19" d="M592.2,393.5c0,0-3.6,16.8,8.9,25c3.7,2.5-0.3,2.5-4.1,1.9c-3.8-0.6-12.5-10.1-15.5-24.4 c-1-4.8-0.9-7.2-0.8-8.4c0.1-1.3,3.1-0.2,4.2,0.3C589,389.8,592.2,393.5,592.2,393.5z"></path> <path class="st40" d="M585.4,378.1l-6.4-2.1c-0.7,0.8-0.9,3.1-0.9,3.1l-0.1,3l0.8,3.4l0.8-2.2l7.4,4.1l1.1-5.4L585.4,378.1z"></path> </g> <g> <rect x="594.2" y="548.1" class="st30" width="8" height="12.2"></rect> <rect x="652.5" y="548.1" class="st30" width="6.5" height="12.2"></rect> <path class="st31" d="M601.8,563.8H596v-1.8l-2.5,1.8h-14.7c0,0,0.3-2.4,10.2-2.8c2.5-0.1,4.3-3.6,4.3-3.6s1.3-1.1,3.2,1.5 c0.5,0.7,5.8-0.6,5.8-0.6S602.7,561.9,601.8,563.8z"></path> <path class="st17" d="M594.4,413.5l-0.7,66.1l14,7.7c0,0,8.4-15.8,9.4-35.9C618.2,431.3,594.4,413.5,594.4,413.5z"></path> <path class="st38" d="M594.4,413.5l30.7,72.4l5.6,7.7l21.2,60.2l8-2.3c0,0,2.9-33.1-5.5-47.2c-8.4-14.1-12.6-21.8-12.6-21.8 l-18.5-71.1L594.4,413.5z"></path> <path class="st17" d="M602.9,555c2.5-13,8.1-35.6,8.3-43.9c0.4-15.4-2.1-26.2-2.1-26.2l-15.4-5.4l-0.1,75.4H602.9z"></path> <path class="st31" d="M651.6,566.1h4l1.3-1.2l0.5-3.1l1.3,1.3l4.1-4.1c-0.7-2-3.6-4.1-3.6-4.1s-2.8,4.7-3.7,4.6 c-3.2-0.5-3.3,1.2-3.3,1.2S653.3,564.2,651.6,566.1z"></path> <path class="st31" d="M655.7,561.6c-0.8,0.9-1.8,1.7-3.1,1.7c-9.9,0.4-10.2,2.8-10.2,2.8h13.2V561.6z"></path> <path class="st19" d="M655.9,398.8l-13.5,37.5c0,0,2.9,0.9,4.6-0.6c4.6-4.1,12.7-15.3,15.5-21.4c3.8-8.4,5.9-17.4,5.9-17.4 L655.9,398.8z"></path> <polygon class="st15" points="646.4,436.1 636.1,439.9 635.2,432.5 637.3,433.3 639.8,431.2 643.7,434.8 "></polygon> <path class="st39" d="M593.4,414.5l31.1-0.7l12.9-43.3c0,0,8.4-26.2-7.7-26.5c-16.1-0.3-34.6-0.3-34.6-0.3 S584.3,353.2,593.4,414.5z"></path> <path class="st19" d="M621.6,311.3c0,0-16.3,15.2-14.3,20.5c0.1,0.2,2.7,2.7,2.9,5.2c0.3,2.4-0.8,3.7-0.8,4.7 c0,0.3-0.8,2.3-0.9,2.9c-0.4,2.7,1,4.9,2.1,4.7c1.4-0.3,7.3-2.7,8.3-3.2c0.7-0.4,1.4-0.5,1.6-1.6c0.4-2.4,1.6-6.5,2.8-7.6 c3.5-3.4,13.4-6.6,10.7-16.4C633.3,317.6,623,310.6,621.6,311.3z"></path> <polygon class="st40" points="611.1,349.2 611.9,354.6 621.8,346.4 620.6,344.4 "></polygon> <polygon class="st40" points="608.2,345.7 608.5,343.9 606.7,347 606.6,352.7 610.5,349.3 "></polygon> <path class="st15" d="M607.5,331.5c0,0,0.8,0.2,2.3,0.4c0.5,0.1,1.9,0.3,2.6,0.6c2.9,1.3,2.6,1.5,4.5,1.9 c2.2,0.5,6.9,0.7,6.9,0.7s-2.4,0.9-3.4,1.3c-1.8,0.7-3.3,0.5-4.5,0c-5.3-1.8-5.3-1.3-5.8-1.7 C610.1,334.6,609.9,334.2,607.5,331.5z"></path> <path class="st19" d="M615.8,318.3c-0.3,0.3-3.7,2-4.3,2.3c-0.6,0.3-1.5,0.7-1.5,1c-0.1,0.3,0,1.2,0.1,1.6 c0.1,0.4,0.2,1.9,1.5,0.8C612.9,322.8,615.8,318.3,615.8,318.3z"></path> <path class="st17" d="M635,320c-1-5.1-7.7-10-15.6-9.7c0,0-0.7,1.1,0.1,3.2c0,0,5.3-1,8.9,3c3.8,4.2-0.9,3.7-0.8,5.6 c0.1,1.6,0.2,3,0.2,3l-1.4,2.9l1,1.1c0,0,2.8-2,2.7-0.8c-0.1,1.5-2.1,3.1-2.3,3.4c-0.3,0.3-0.7,0.7-0.6,0.9 c0,0.1-1.5,1.3-3.4,4.1c0.5,0.5,1.8,0.3,3.5-1C630.9,332.8,636.1,326.2,635,320z"></path> <path class="st15" d="M629.9,328c1,0.8,1.1,2.2,0.3,3.2c-0.8,1-2.2,1.1-3.2,0.3"></path> <path class="st15" d="M613.1,324.2c0,0-1.6-2.3-1.8-2.4c-0.3-0.1-0.8-0.5-1-0.3c-0.2,0.2-0.3,1,0.2,2.4 C610.5,324.3,610.9,323.7,613.1,324.2z"></path> <path class="st39" d="M635.3,369.3l18.2,27.8l2.4,0.3l-0.7,2.3l13.2-1l2.9-11.4l-25.5-37.6c0,0-7.9-7.2-21-5.4 C615.4,345.8,633.9,366.9,635.3,369.3z"></path> <path class="st40" d="M667.2,391.5c0,0-8.1,3.9-12.4,5.8l1.1,0.1l-0.7,2.3l4.5-0.4l6.4-1.5l0.3-2.7h-2L667.2,391.5z"></path> </g> </g> <g> <g class="st42"> <path class="st9" d="M672.4,282.1c0,4.4-3.5,7.9-7.9,7.9h-49.9c-4.4,0-7.9-3.5-7.9-7.9v-30.8c0-4.4,3.5-7.9,7.9-7.9h49.9 c4.4,0,7.9,3.5,7.9,7.9V282.1z"></path> <polygon class="st9" points="618.8,298.3 618.8,289.6 627.5,289.6 "></polygon> </g> <g> <g> <path class="st12" d="M646.3,253.4h-7.5v-4.7h7.5V253.4z M640.6,251.5h3.8v-0.9h-3.8V251.5z"></path> </g> <g> <path class="st12" d="M642.5,281.7c-7.3,0-13.2-5.9-13.2-13.2h1.9c0,6.2,5.1,11.3,11.3,11.3c6.2,0,11.3-5.1,11.3-11.3 c0-6.2-5.1-11.3-11.3-11.3c-5.5,0-10.2,4-11.2,9.4l-1.9-0.3c1.1-6.4,6.6-11,13-11c7.3,0,13.2,5.9,13.2,13.2 C655.7,275.8,649.8,281.7,642.5,281.7z"></path> </g> <g> <rect x="641.6" y="252.4" class="st12" width="1.9" height="3.8"></rect> </g> <g> <rect x="641.6" y="259" class="st12" width="1.9" height="10.4"></rect> </g> <g> <rect x="649.4" y="256.5" transform="matrix(0.707 -0.7072 0.7072 0.707 8.9185 536.3221)" class="st12" width="4.7" height="1.9"></rect> </g> <g> <rect x="652.4" y="253.7" transform="matrix(0.7071 -0.7071 0.7071 0.7071 10.5233 536.8984)" class="st12" width="1.9" height="4"></rect> </g> <g> <path class="st12" d="M651,268.5h-1.9c0-3-2-5.6-5-6.4l0.5-1.8C648.4,261.2,651,264.6,651,268.5z"></path> </g> <g> <rect x="625.5" y="267.5" class="st12" width="8.5" height="1.9"></rect> </g> <g> <rect x="619.9" y="267.5" class="st12" width="3.8" height="1.9"></rect> </g> <g> <rect x="619.9" y="261.9" class="st12" width="6.6" height="1.9"></rect> </g> <g> <rect x="622.7" y="273.2" class="st12" width="5.7" height="1.9"></rect> </g> </g> </g> <path class="st0" d="M-367.5,73.8c-30.6-14.2-71.2-0.9-87.4,28.6c-1.7,3.1-3.3,6.6-6.3,8.6c-4,2.7-9.4,2-14.1,1.1 c-45.2-8.6-89.6-24.6-135.6-24.2c-22,0.2-44.9,4.6-62,18.4c-5.6,4.4-10.6,10.1-12,17.1c-1.1,5.3,0,10.8,1.5,16 c5.9,20.3,18.3,39,19.6,60.1c0.2,2.9,0.1,5.9-1.1,8.5c-1.5,3.2-4.6,5.3-7.8,6.9c-10.9,5.5-23.6,5.8-35.6,7.7 c-12.1,1.8-24.9,5.8-31.9,15.9c-8.6,12.4-4.7,30.5,5.6,41.4c10.3,10.9,25.6,16,40.5,18.1c14.9,2.1,30.1,1.7,45,4 c3.1,0.5,6.4,1.1,8.7,3.2c5.7,5,2.8,14.7-2.3,20.3c-9.2,10.1-22.9,14.3-35.5,19.3c-17,6.7-33.6,16.1-44.1,31.1 c-1.7,2.5-3.3,5.3-3,8.3c0.4,4.4,4.8,7.3,8.9,9c32.7,13.1,69.1-12.4,104-7.8c-3.3,25.4-41.5,31.4-50.2,55.5c-0.8,2.3-1.3,5,0.1,6.9 c1.2,1.7,3.5,2.3,5.6,2.8c20.9,4.5,42.3,6.6,63.6,6.3c12.1-0.2,26.3-0.1,33.4,9.6c4.3,6,5.5,15.1,12.4,17.7 c3.1,1.2,6.5,0.7,9.7-0.2c16.9-4.4,30.5-16.7,46.3-24.2c4.5-2.2,9.7-3.9,14.4-2.2c3.4,1.3,5.9,4.2,8.3,6.9 c11.8,13.5,29.4,25.9,46.3,20.2c13.6-4.6,22.2-19.7,36.3-22.2c11-2,21.5,4.4,32.3,7.5c11.8,3.5,25,2.9,35.9-2.9s19-17,19.7-29.3 c0.8-13.2-6.6-26.2-4.3-39.2c3.8-20.6,30.7-35,25.8-55.4c-2.3-9.8-11.7-16.3-21.1-20.2c-9.3-3.9-19.5-6.2-27.7-12.1 s-13.8-17.3-9.2-26.3c1.7-3.3,4.6-5.9,7.6-8c12.1-8.4,27.5-10.8,39.7-19c12.2-8.2,19.5-27.6,8.4-37.1c-2.7-2.3-6-3.7-8.6-6.1 c-9.4-8.9-2.6-24.6,5-35.1c3.9-5.4,8-11.1,8.1-17.7c0.1-11.3-11.1-18.9-21.3-23.8c-20.6-9.9-57.3,5.4-67.6-14.9 c-5.7-11.2,26.6-22.2,28-34.7c1.4-12.3-21.2-13.4-33.5-14.6"></path> <ellipse class="st43" cx="-494" cy="421" rx="176" ry="11.3"></ellipse> <path class="st13" d="M-313.8,148.4v183.9h-363.3V148.4c0-9.7,7.9-17.6,17.6-17.6h328.1C-321.7,130.9-313.8,138.7-313.8,148.4z"></path> <path class="st21" d="M-677.1,240.7h363.3v91.7h-363.3V240.7z"></path> <path class="st12" d="M-313.8,332.4c0,4.8-1.2,9.4-3.3,13.3c-1.4,2.6-3.1,4.9-5.1,7c-5.2,5.2-12.4,8.4-20.3,8.4h-305.8 c-11.1,0-20.7-6.2-25.5-15.4c-2.1-4-3.3-8.5-3.3-13.3H-313.8z"></path> <path class="st44" d="M-317.1,345.7c-1.4,2.6-3.1,4.9-5.1,7c-5.2,5.2-12.4,8.4-20.3,8.4h-305.8c-11.1,0-20.6-6.2-25.5-15.4H-317.1z "></path> <path class="st13" d="M-468.3,345.3v0.8c0,1.8-1.5,3.3-3.3,3.3h-47.7c-1.8,0-3.3-1.5-3.3-3.3v-0.8c0-1.8,1.5-3.3,3.3-3.3h47.7 C-469.8,341.9-468.3,343.4-468.3,345.3z"></path> <path class="st44" d="M-549.1,361.1h107.4v44.8h-107.4V361.1z"></path> <path class="st1" d="M-549.1,361.1h107.4v16.4h-107.4V361.1z"></path> <path class="st45" d="M-403.1,421.3h-184.7v-6c0-5.2,4.2-9.4,9.4-9.4h166c5.2,0,9.4,4.2,9.4,9.4L-403.1,421.3L-403.1,421.3z"></path> <circle class="st12" cx="-494" cy="138.9" r="3.4"></circle> <path class="st46" d="M-468.3,345.7v0.4c0,1.8-1.5,3.3-3.3,3.3h-47.7c-1.8,0-3.3-1.5-3.3-3.3v-0.4H-468.3z"></path> <path class="st2" d="M-326.2,150.9v159.4c0,2.2-1.8,4-4,4h-330.6c-0.8,0-1.6-0.3-2.2-0.7c-1-0.7-1.7-1.9-1.7-3.3V150.9 c0-2.2,1.8-4,4-4H-330c1.4,0,2.6,0.7,3.3,1.8C-326.4,149.3-326.2,150.1-326.2,150.9z"></path> <path class="st3" d="M-648.7,179.1h26.4V305h-26.4V179.1z"></path> <path class="st47" d="M-648.7,179.1h26.4v7.9h-26.4V179.1z"></path> <path class="st3" d="M-365.2,239.4h26.4v66.9h-26.4V239.4z"></path> <path class="st47" d="M-365.2,239.4h26.4v8.4h-26.4V239.4z"></path> <path class="st3" d="M-365.2,179.1h26.4v34.3h-26.4V179.1z"></path> <path class="st47" d="M-365.2,179.1h26.4v8.4h-26.4V179.1z"></path> <path class="st3" d="M-326.1,150.9v12.5h-338.7v-12.5c0-2.2,1.8-4,4-4h330.7c1.4,0,2.6,0.7,3.3,1.8 C-326.4,149.3-326.1,150.1-326.1,150.9z"></path> <circle class="st4" cx="-357.9" cy="154.4" r="2.8"></circle> <circle class="st5" cx="-348.8" cy="154.4" r="2.8"></circle> <circle class="st6" cx="-340.1" cy="154.4" r="2.8"></circle> <path class="st48" d="M-403.4,146.7l-0.2,0.2l-167.3,167.3h-58l167.3-167.3L-403.4,146.7z M-326.2,176.1v58l-80.1,80.1h-58 L-326.2,176.1z M-551.1,146.7l-113.7,113.6v-58l55.4-55.4L-551.1,146.7z"></path> <g id="setting"> <path class="st49" d="M-437.6,256.6c-2.7,9.2-7.6,17.5-14,24.2c-1.9,2-4.8,2.4-7.2,1l-7.9-4.6c-2.6,2-7.3,4.7-10.3,6v9.2 c0,2.7-1.9,5.1-4.5,5.7c-9.2,2.2-18.8,2.2-27.9,0c-2.6-0.6-4.5-3-4.5-5.7v-9.2c-3.1-1.3-7.7-4-10.3-6l-7.9,4.6 c-2.3,1.4-5.3,0.9-7.2-1c-6.4-6.8-11.3-15.1-14-24.2c-0.8-2.6,0.4-5.3,2.7-6.7l7.9-4.6c-0.2-1.6-0.4-4.3-0.4-6 c0-1.6,0.2-4.3,0.4-5.9l-7.9-4.6c-2.3-1.3-3.5-4.1-2.7-6.7c2.7-9.2,7.6-17.5,14-24.2c1.9-2,4.8-2.4,7.2-1l7.9,4.6 c2.6-2,7.3-4.7,10.3-6v-9.2c0-2.7,1.9-5.1,4.5-5.7c9.2-2.2,18.8-2.2,27.9,0c2.6,0.6,4.5,3,4.5,5.7v9.2c3.1,1.3,7.7,4,10.3,6 l7.9-4.6c2.3-1.4,5.3-0.9,7.2,1c6.4,6.8,11.3,15.1,14,24.2c0.8,2.6-0.4,5.3-2.7,6.7l-7.9,4.6c0.2,1.6,0.4,4.3,0.4,5.9 c0,1.6-0.2,4.3-0.4,6l7.9,4.6C-438,251.2-436.9,254-437.6,256.6L-437.6,256.6z M-445.6,255.9l-11.3-6.5c1.6-8.6,1.6-11.4,0-20 l11.3-6.5c-2.2-6.8-5.9-13.1-10.7-18.5l-11.3,6.5c-6.7-5.7-9-7.1-17.3-10v-13c-2.9-0.6-7.7-1.1-10.7-1.1s-7.8,0.5-10.7,1.1v13 c-8.3,2.9-10.6,4.3-17.3,10l-11.3-6.5c-4.8,5.4-8.4,11.7-10.7,18.5l11.3,6.5c-1.6,8.6-1.6,11.4,0,20l-11.3,6.5 c2.2,6.8,5.9,13.1,10.7,18.5l11.3-6.5c6.7,5.8,9.1,7.1,17.3,10v13c2.9,0.6,7.7,1.1,10.7,1.1s7.8-0.5,10.7-1.1v-13 c8.4-3,10.7-4.4,17.3-10l11.3,6.5C-451.4,269-447.8,262.7-445.6,255.9z M-472.1,239.4c0,12.9-10.5,23.4-23.4,23.4 s-23.4-10.5-23.4-23.4s10.5-23.4,23.4-23.4S-472.1,226.5-472.1,239.4z M-479.9,239.4c0-8.6-7-15.6-15.6-15.6s-15.6,7-15.6,15.6 s7,15.6,15.6,15.6S-479.9,248-479.9,239.4z"></path> </g> <g> <ellipse class="st43" cx="-419.2" cy="484.6" rx="65.8" ry="4.9"></ellipse> <path class="st21" d="M-424.2,396.8h-6.3l-4-48.7l4.5-44.7l17.1-1.6l-10.3,50.9C-420.3,364.5-422.8,379.6-424.2,396.8 L-424.2,396.8z"></path> <path class="st20" d="M-424.1,396.4c0,0,0.4,0.5,0.4,1.6s-0.1,4.9-0.1,4.9h-18.5c0,0-0.1-2.9,2.3-4.4c2.3-1.5,6,0,9.4-2.5 C-430.6,396.1-429.7,396.9-424.1,396.4L-424.1,396.4z"></path> <path class="st13" d="M-393.4,396.4c-1.2-13.2-7-39.8-10.7-45.5v-49.8l-16.7,4l5,46l16,45C-397.9,397.1-395.7,396.9-393.4,396.4 L-393.4,396.4z"></path> <path class="st20" d="M-393.4,396.4c0,0,0.4,0.6,0.4,1.7v4.9h-18.5c0,0-0.1-2.9,2.3-4.4c2.3-1.5,6,0,9.4-2.5 C-399.8,396.1-399.1,396.9-393.4,396.4L-393.4,396.4z"></path> <path class="st10" d="M-431.4,272.3l-0.1,34.5c16.7,6,28.5-1.9,28.5-1.9l-5.2-28.5l6.4-23.9l-4.3-2.2l-0.9-0.4l-1.9-1l-6-3 l-12,1.6l-1.7,0.2l-1,0.1l-1.3,0.2c0.6,3.9,0.2,8.7-0.3,13.5c-0.9,1.9-1.6,4.1-1.7,6c0,1.7,0.5,3,1.3,4c0,0.1,0.1,0.1,0.1,0.2 L-431.4,272.3L-431.4,272.3z"></path> <path class="st41" d="M-431.3,271.7v0.6c1.6,0.4,5.2,1.2,9.7,1.2c2.2,0,4.6-0.2,7.1-0.7c0.2,0,0.3-0.2,0.3-0.4 c0-0.2-0.2-0.3-0.4-0.3c-8.1,1.6-14.9-0.1-16.8-0.6C-431.4,271.5-431.4,271.6-431.3,271.7L-431.3,271.7z"></path> <path class="st13" d="M-426.6,221c0,0-2.2,1.8-2.6,4.3c-0.4,2.4,0.7,4.3,0.7,4.3L-426.6,221z"></path> <path class="st13" d="M-425.9,223.3c4,2.4,11.8,2.3,11.8,2.3c6,2,2.5,15.5,2.5,15.5c5.8-0.6,7-12.4,7-12.4c0.5,0.1,1,0.2,1.5,0.2 c6.5,0.4,7-8.7,1.5-10.5c-3.2-1-4.8,1-5.5,2.4c-0.3,0.7-0.5,1.2-0.5,1.2c-1.8-2.4-11.1-6.9-15.5-6.1 C-427.4,216.6-429.2,221.4-425.9,223.3L-425.9,223.3z"></path> <path class="st4" d="M-407.6,221.9c0,0,2.5,2.4,3,6.7c0.5,0.1,1,0.2,1.5,0.2c-0.1-1.3-0.8-6.3-4-8.1 C-407.5,221.4-407.6,221.9-407.6,221.9L-407.6,221.9z"></path> <path class="st19" d="M-420.9,241.3l-0.3,4.6l-0.1,2.1c2.4,2.3,6.9,0.1,6.9,0.1l1.2-7.3c-1.1-1-4.2-0.1-6.1,0.2 C-420.2,241.1-420.9,241.3-420.9,241.3L-420.9,241.3z"></path> <path class="st50" d="M-420.9,241.3l-0.3,4.6c3.2-0.3,6.2-4.3,6.2-4.3l-4.4-0.6C-420.2,241.1-420.9,241.3-420.9,241.3 L-420.9,241.3z"></path> <path class="st19" d="M-426,242c5.2,3.2,12.1,0.2,14.3-0.8c0.4-0.2,0.7-0.4,0.7-0.4s0.3-1.1,0.7-2.7c0.4-1.7,0.8-4,0.9-6.2 c0.1-2.6-0.2-5.1-1.7-6.3l-15.7-3.7c0,0-0.1,0.2-0.2,0.5C-427.8,225.3-431.6,238.6-426,242L-426,242z"></path> <path class="st13" d="M-411.7,241.2c0.4-0.2,0.7-0.4,0.7-0.4s0.3-1.1,0.7-2.7l-1.3,0.4C-411.7,238.5-412.8,239.9-411.7,241.2 L-411.7,241.2z"></path> <path class="st19" d="M-412,233c0,0,2.2-2.2,3.7-0.3c1.6,2.1-0.7,7.4-4.6,6.4L-412,233L-412,233z"></path> <path class="st13" d="M-426.9,222.4c1.5,0.8,8.1,3.9,13.1,3.6c0,0-0.1,0.4-0.2,1v0.1c-0.1,0.8-0.9,5.4-0.7,8 c0.2,2.8-0.6,5.1-1.7,5.1c0,0,0.9,0.5,1.9-1.1s1.9-5.3,1.9-5.3c0.7-0.7,1.7-2.2,3.3-1.9c0.1-2.6-0.2-5.1-1.7-6.3l-15.7-3.7 C-426.8,221.9-426.8,222.1-426.9,222.4L-426.9,222.4z"></path> <path class="st41" d="M-406.6,252.1c-5.2,3-14,9.6-17.1,12.5c0,0-6.7-1.1-11.4-1.4c-4.3-0.2-17.5-4-17.5-4l-1.7,4.8 c0,0,22.2,9,31.3,7.5c4.5-0.7,8.9-2.8,12.4-4.8c3.7-2.1,7-4.9,9.7-8.1c0.3-0.3,0.5-0.6,0.5-0.6 C-398.4,254.2-402.8,249.8-406.6,252.1L-406.6,252.1z"></path> <path class="st19" d="M-452.7,259.2c0,0-0.8-0.6-1.3-1.1c-1.3-1.3-4.4-3.4-4.6-2.7c-0.2,0.5,0.7,0.9,0.9,1.6 c0.2,0.8-2.3-0.2-3.6-0.4c-2.4-0.4-2.4,3.2-0.6,5.2c1.8,1.9,5.1,3.3,7.5,2.1L-452.7,259.2L-452.7,259.2z"></path> <path class="st41" d="M-436.4,252.1c2.4-2,5.7-4.2,5.7-4.2c1.2,4.8,0.2,7.9,0.2,7.9s-3,3.2-5.8,4.3v-8H-436.4z"></path> <g> <path class="st26" d="M-416.9,405.4l19.9,77.8c0.2,0.7-0.2,1.2-0.9,1.2s-1.4-0.6-1.6-1.2l-19.9-77.8H-416.9z M-384.4,405.4 l19.9,77.8c0.2,0.7-0.2,1.2-0.9,1.2s-1.4-0.6-1.6-1.2l-19.9-77.8H-384.4z"></path> <path class="st26" d="M-418.4,405.4h33c0.6,0.1,1.1,0.6,1.3,1.2c0.2,0.7-0.2,1.2-0.9,1.2h-32.5c-0.7,0-1.4-0.6-1.6-1.2 C-419.3,406.1-419,405.6-418.4,405.4z M-381.1,423.4h-32.5c-0.7,0-1.4-0.6-1.6-1.2c-0.2-0.7,0.2-1.2,0.9-1.2h32.5 c0.7,0,1.4,0.6,1.6,1.2S-380.4,423.4-381.1,423.4z M-377.2,438.9h-32.5c-0.7,0-1.4-0.6-1.6-1.2c-0.2-0.7,0.2-1.2,0.9-1.2h32.5 c0.7,0,1.4,0.6,1.6,1.2S-376.5,438.9-377.2,438.9z M-373.2,454.4h-32.5c-0.7,0-1.4-0.6-1.6-1.3c-0.2-0.7,0.2-1.3,0.9-1.3h32.5 c0.7,0,1.4,0.6,1.6,1.3C-372.1,453.8-372.5,454.4-373.2,454.4z M-369.2,469.9h-32.5c-0.7,0-1.4-0.6-1.6-1.2 c-0.2-0.7,0.2-1.2,0.9-1.2h32.5c0.7,0,1.4,0.6,1.6,1.2C-368.1,469.4-368.5,469.9-369.2,469.9z"></path> <g> <path class="st4" d="M-417.6,405.4h2.5l-19.9,77.8c-0.2,0.7-0.9,1.2-1.6,1.2s-1.1-0.6-0.9-1.2L-417.6,405.4z M-470,483.2 l19.9-77.8h2.5l-19.9,77.8c-0.2,0.7-0.9,1.2-1.6,1.2C-469.7,484.5-470.1,483.9-470,483.2z"></path> <path class="st4" d="M-449.1,405.4h33c0.5,0.1,0.8,0.6,0.7,1.2c-0.2,0.7-0.9,1.2-1.6,1.2h-32.5c-0.7,0-1.1-0.6-0.9-1.2 C-450.2,406.1-449.6,405.6-449.1,405.4z"></path> <path class="st4" d="M-449.5,407.9h65.4c1.1,0,2-0.9,2-2V405c0-1.1-0.9-2-2-2h-65.4c-1.1,0-2,0.9-2,2v0.9 C-451.5,407-450.6,407.9-449.5,407.9z M-453.4,423.4h32.5c0.7,0,1.4-0.6,1.6-1.2c0.2-0.7-0.2-1.2-0.9-1.2h-32.5 c-0.7,0-1.4,0.6-1.6,1.2S-454.1,423.4-453.4,423.4z M-457.4,438.9h32.5c0.7,0,1.4-0.6,1.6-1.2c0.2-0.7-0.2-1.2-0.9-1.2h-32.5 c-0.7,0-1.4,0.6-1.6,1.2C-458.5,438.4-458,438.9-457.4,438.9z M-461.3,454.4h32.5c0.7,0,1.4-0.6,1.6-1.3 c0.2-0.7-0.2-1.3-0.9-1.3h-32.5c-0.7,0-1.4,0.6-1.6,1.3C-462.4,453.8-462,454.4-461.3,454.4z M-465.3,469.9h32.5 c0.7,0,1.4-0.6,1.6-1.2c0.2-0.7-0.2-1.2-0.9-1.2h-32.5c-0.7,0-1.4,0.6-1.6,1.2C-466.4,469.4-466,469.9-465.3,469.9z"></path> </g> </g> </g> <g> <ellipse class="st43" cx="-692.7" cy="454.3" rx="40.2" ry="4.9"></ellipse> <path class="st21" d="M-634,278.2l9,9l-49,49l-9-9L-634,278.2z"></path> <path class="st4" d="M-642.9,286.9l8.8-8.8l9,9l-8.8,8.8L-642.9,286.9z"></path> <path class="st4" d="M-683.1,327.2l3.5-3.5l9,9l-3.5,3.5L-683.1,327.2z"></path> <path class="st26" d="M-683.1,327.2l1.7-1.7l9,9l-1.7,1.7L-683.1,327.2z"></path> <path class="st26" d="M-625,287.2l-3.2,3.2c-1.7-1.2-3.4-2.5-4.9-4.1c-1.5-1.5-2.9-3.2-4.1-4.9l3.2-3.2L-625,287.2z"></path> <path class="st21" d="M-581.6,234.8c-13.6-13.6-35.6-13.6-49.2,0c-13.6,13.6-13.6,35.6,0,49.2c13.6,13.6,35.6,13.6,49.2,0 C-568,270.4-568,248.4-581.6,234.8z M-580.5,262.1c-0.2,1.9-0.6,3.8-1.2,5.7c-0.5,1.4-1.1,2.7-1.8,4c-0.1,0.2-0.3,0.5-0.4,0.7 c-0.9,1.6-2,3.1-3.3,4.5c-0.2,0.2-0.4,0.5-0.7,0.7c-0.6,0.6-1.2,1.2-1.9,1.7c-0.5,0.4-1,0.8-1.5,1.1c-0.1,0.1-0.2,0.2-0.3,0.2 c-1.6,1.1-3.3,2-5,2.6c-0.9,0.4-1.8,0.7-2.8,0.9c-1.4,0.4-2.7,0.6-4.1,0.8c-6.7,0.7-13.5-1.2-19-5.7c-0.7-0.5-1.3-1.1-1.9-1.7 c-0.2-0.2-0.4-0.5-0.7-0.7c-1.5-1.6-2.7-3.4-3.7-5.2c-0.7-1.3-1.3-2.6-1.8-4c-0.5-1.5-0.9-3.1-1.1-4.7c-0.1-0.5-0.1-1.1-0.2-1.6 c0-0.4-0.1-0.7-0.1-1.1v-0.1c0-1.4,0-2.9,0.2-4.3c0.1-1.1,0.4-2.1,0.6-3.2c0-0.1,0.1-0.2,0.1-0.3c0.1-0.5,0.3-1,0.5-1.5 c0.5-1.5,1.2-2.9,1.9-4.3c1.1-2,2.5-3.8,4.2-5.5c0.1,0,0.1-0.1,0.2-0.1c0.3-0.3,0.6-0.6,0.9-0.8c2.5-2.3,5.4-3.9,8.4-5 c8.7-3.1,18.8-1.5,26,5c0.4,0.3,0.7,0.7,1.1,1c1.7,1.7,3.1,3.5,4.2,5.5c0.2,0.3,0.3,0.6,0.5,0.9c0.9,1.7,1.6,3.4,2,5.3 c0.3,1.1,0.5,2.1,0.6,3.2c0.2,1.5,0.3,2.9,0.2,4.4C-580.4,260.9-580.5,261.5-580.5,262.1L-580.5,262.1z"></path> <path class="st51" d="M-580.4,260.3c0,0.6-0.1,1.2-0.1,1.7c-0.2,1.9-0.6,3.8-1.2,5.7c-0.5,1.4-1.1,2.7-1.8,4 c-0.1,0.2-0.3,0.5-0.4,0.7c-0.9,1.6-2,3.1-3.3,4.5c-0.2,0.2-0.4,0.5-0.7,0.7c-0.6,0.6-1.2,1.2-1.9,1.7c-0.5,0.4-1,0.8-1.5,1.1 c-0.1,0.1-0.2,0.2-0.3,0.2c-1.6,1.1-3.3,2-5,2.6c-0.9,0.4-1.8,0.7-2.7,0.9c-1.4,0.4-2.7,0.6-4.1,0.8c-6.7,0.7-13.5-1.2-19-5.7 c-0.7-0.5-1.3-1.1-1.9-1.7c-0.2-0.2-0.4-0.5-0.7-0.7c-1.5-1.6-2.7-3.4-3.7-5.2c-0.7-1.3-1.3-2.6-1.8-4c-0.5-1.5-0.9-3.1-1.1-4.7 c-0.1-0.5-0.1-1.1-0.2-1.6c0-0.4-0.1-0.7-0.1-1.1c0-1.4,0-2.9,0.2-4.3c0.1-1.1,0.4-2.1,0.6-3.2c0-0.1,0.1-0.2,0.1-0.3 c0.1-0.5,0.3-1,0.5-1.5c0.5-1.5,1.1-2.9,1.9-4.3c1.1-2,2.5-3.8,4.2-5.5c0.1,0,0.1-0.1,0.2-0.2c0.3-0.3,0.6-0.6,0.9-0.8 c2.5-2.3,5.4-3.9,8.4-5c8.7-3.1,18.8-1.5,26,5c0.4,0.3,0.7,0.7,1.1,1c1.7,1.7,3.1,3.5,4.2,5.5c0.2,0.3,0.3,0.6,0.5,0.9 c0.9,1.7,1.6,3.4,2,5.3c0.3,1.1,0.5,2.1,0.6,3.2C-580.4,257.4-580.3,258.9-580.4,260.3L-580.4,260.3z"></path> <path class="st21" d="M-684,449.3h6.4l4.1-49.5l-4.6-45.4l-17.4-1.6l10.4,51.8C-688,416.5-685.5,431.8-684,449.3z"></path> <path class="st20" d="M-684.2,448.9c0,0-0.4,0.5-0.4,1.7s0.1,5,0.1,5h18.8c0,0,0.1-2.9-2.3-4.5c-2.4-1.6-6.1,0-9.6-2.5 C-677.5,448.6-678.5,449.4-684.2,448.9z"></path> <path class="st13" d="M-719.3,448.9c1.2-13.4,7.1-40.4,10.8-46.2v-50.6l17,4l-5.1,46.7l-16.3,45.8 C-714.7,449.7-716.9,449.5-719.3,448.9L-719.3,448.9z"></path> <path class="st20" d="M-719.3,448.9c0,0-0.4,0.6-0.4,1.7v4.9h18.8c0,0,0.1-2.9-2.3-4.5s-6.1,0-9.6-2.5 C-712.8,448.6-713.5,449.4-719.3,448.9z"></path> <g> <path class="st39" d="M-677,354.6c-0.8,1.4-3.6,2.4-6,3c-0.2,0-0.3,0.1-0.5,0.1c-0.4,0.1-0.8,0.2-1.2,0.2c-4,0.7-7.9,1-11.9,1 c-0.7,0-1.5-0.1-2.3-0.2c-0.2,0-0.3,0-0.5-0.1c-4.2-0.6-8.8-2.4-11.1-4.7l3.4-15.2l-6.7-37.5l8.6-3l0.5-0.2l1.9-0.7l1.5-0.5 l9.2,1.2l1.5,0.2l0.5,0.1l6.5,0.9L-677,354.6L-677,354.6z"></path> </g> <g> <path class="st13" d="M-684.9,271.5c0,0,2.4,1.4,1.8,5.5c-0.6,4.1-2.1,4.7-2.1,4.7S-688.2,272.8-684.9,271.5z"></path> <path class="st19" d="M-692.5,291.6l-0.1,5.2l-0.1,2.4c-2.9,2.3-7.9-0.6-7.9-0.6l-0.7-8.1c1.3-1,4.9,0.1,7,0.6 C-693.2,291.4-692.5,291.6-692.5,291.6z"></path> <path class="st50" d="M-692.5,291.6l-0.1,5.2c-3.5-0.7-6.6-5.4-6.6-5.4l5-0.2C-693.2,291.4-692.5,291.6-692.5,291.6z"></path> <path class="st19" d="M-683.5,278v0.5c0.1,1.6,0,3.4-0.1,5.2c0,0.4,0,0.7-0.1,1.1c0,0.3,0,0.6-0.1,1c-0.1,0.7-0.1,1.3-0.2,2 c0,0.4-0.1,0.9-0.1,1.3c0,0.3-0.1,0.6-0.2,0.9c-0.2,0.9-0.6,1.7-1.2,2.3c-1.3,1.6-3.4,2.6-5.6,2.3c-1.8-0.2-3.8-0.6-5.7-1 c-0.1,0-0.2,0-0.3-0.1c-1.5-0.3-2.9-0.7-4.1-1.1c-0.2-0.2-0.3-0.4-0.5-0.6c-1.3-1.8-2.2-3.9-2.7-6.1c-0.2-0.9-0.4-1.7-0.5-2.6 v-0.2c-0.3-4.5-0.3-8.9-0.3-8.9c4.5-6.4,18.4-4.9,20.7-0.6C-683.9,274.3-683.6,276-683.5,278L-683.5,278z"></path> <path class="st13" d="M-701.5,291.8c-1.3-1.8-2.2-3.9-2.7-6.1c0.7,0,1.5,0.1,2.7,0.5C-701.6,286.2-701.1,289.5-701.5,291.8z M-704.9,281c0,0,2.1-1.6,4.1,0.9l1.4-0.1c0,0-0.3-2.9,0.3-4.6c0.6-1.6,3.3-1.8,3.6-3.7c0,0,7.3,3.2,11.2,0.1 c4.4-3.4-10.6-9.1-17.2-5.3C-706.8,271.4-706.3,276-704.9,281L-704.9,281z"></path> <path class="st19" d="M-700.8,281.8c0,0-2.4-2.5-4.1-0.9c-1.9,1.8,0,7.5,4.1,7.1V281.8L-700.8,281.8z"></path> <path class="st13" d="M-693,267.2c0,0,4.2,0.4,7.7-1.4c3.8-1.9,6.4,5.5,1.8,7.2C-688.2,274.8-693,267.2-693,267.2z M-685.3,285.7 c-1.9,0.5-3.7,0.7-5.6,0.1c-0.7-0.2-1.5-0.4-2.4-0.3c-1.6,0.1-3,0.9-3.9,1.5c-1.6-2.2-2.3-5.1-2.3-5.1l-1.4,0.1 c0,0,0.5,5,2.1,8.6c0.5,1.2,1.2,2.2,2.1,3.1c1.1,1.1,2.4,2,3.9,2.5c1,0.3,1.9,0.5,2.7,0.4c2.2-0.3,7.1-3.3,6.2-9l-0.4-0.3 c-0.1,3.4-1.7,5.2-3.5,5.5c-2.6,0.4-4.8-0.9-6.7-2.8c-1.1-1.1-0.3-2.8,1.3-2.8c1.2,0,2.6,0.5,3.6,0.8c1.2,0.3,1.8-0.1,2.7-0.5 c1.8-0.6,2.5-0.1,2.9,0.3c0.2-0.2,0.4-0.6,0.4-1c0-0.3,0-0.6-0.1-1.1C-683.8,285.3-684.4,285.5-685.3,285.7z"></path> </g> <path class="st40" d="M-709.3,302c4.5,3.9,11.9,12.1,14.4,15.6c0,0,6.8,0.2,11.5,0.8c4.3,0.6,18-0.5,18-0.5l0.8,5 c0,0-23.5,4.5-32.2,1.3c-4.2-1.6-8.2-4.5-11.2-7.1c-3.2-2.8-5.9-6.1-8-9.8c-0.2-0.4-0.4-0.6-0.4-0.7 C-717.8,302.4-712.7,299-709.3,302L-709.3,302z"></path> <path class="st19" d="M-665.5,318c0,0,0.9-0.4,1.5-0.8c1.5-1.1,4.9-2.5,5-1.7c0.1,0.6-0.9,0.8-1.2,1.4c-0.4,0.7,2.2,0.3,3.6,0.3 c2.4,0.1,1.7,3.6-0.4,5.2c-2.1,1.6-5.7,2.3-7.7,0.6L-665.5,318z"></path> <path class="st40" d="M-668.8,313.2c-1.9-0.4-13.5-4.1-13.5-4.1s-1-5.8-1.2-10c0,0,17.6,8.2,19.6,8.9L-668.8,313.2z M-647.4,309.5 l-0.6,0.6l-7.1,7.1c0,0,5-0.7,7.7-2.9V309.5L-647.4,309.5z"></path> <path class="st19" d="M-647.9,307.5l0.6-0.7c1.3-1.6,3.9-0.5,3.7,1.5v0.1c-0.2,1.7-1,4.7-3.8,5.9c-0.7,0.3-1.5,0.4-2.1,0.3 c-1.7-0.2-2.5-2.2-1.4-3.4L-647.9,307.5L-647.9,307.5z"></path> </g> <g> <path class="st14" d="M-536.4,120.5l1.5-44.3c0,0-3.9-1-8.8-1.6c-0.3,0-0.6-0.1-1-0.1c-3.1-0.3-6.4-0.3-9.5,0.2l-0.5,0.1l-9.7,1.7 l1,44H-536.4z"></path> <path class="st19" d="M-545.9,68v6.6c-0.1,0.1-0.2,0.1-0.4,0.2c-2.3,0.9-4.7,0.9-7-0.2V68C-553.3,68-545.9,68-545.9,68z"></path> <path class="st50" d="M-545.9,69.6v5c-0.1,0.1-0.2,0.1-0.4,0.2c-2.7-0.3-5.3-1.7-7-2.8v-2.4C-553.3,69.6-545.9,69.6-545.9,69.6z M-557.8,57.2c0,0-0.8-1.9-2.4-2.3c-1.6-0.4-1.6,3.7-0.6,6.6c1,2.9,3.5,1.8,3.5,1.8S-557.8,57.2-557.8,57.2z M-541.4,57.2 c0,0,0.8-1.9,2.4-2.3c1.6-0.4,1.6,3.7,0.6,6.6c-1,2.9-3.5,1.8-3.5,1.8S-541.4,57.2-541.4,57.2z"></path> <path class="st19" d="M-549.6,71c-4.9,0-8.9-5.3-8.9-9.9V50.6h17.8v10.5C-540.7,65.7-544.7,71-549.6,71L-549.6,71z"></path> <path class="st18" d="M-558.5,58.2c0,0-3-4.6-0.9-7.6c0,0-1.3-2.6,0-5.1s6.8-5.4,14.4-3.9c7.6,1.5,6.2,7.1,5.2,8.7 c0,0,1.9,3.5-1,7.9c0,0-1.7-2.3-1.2-7.1c0,0-8.5,2.4-15.4-0.5C-557.3,50.6-556.3,56.2-558.5,58.2z"></path> <path class="st14" d="M-564.3,76.5c0,0-7,9.9-9.6,18.3c0,0,3.6,4.3,6.1,5.2l4.4-11.7C-563.4,88.2-561.2,81.4-564.3,76.5z"></path> <path class="st14" d="M-567.8,100c0,0,3.3,5.5,9.5,15.2l-3.5,2.5l-11.4-12.9c-1.6-1.4-2.5-3.7-2-5.8l1.3-4.3 C-573.9,94.7-569.3,96.5-567.8,100L-567.8,100z M-534.9,76.2c0,0,7,9.9,9.6,18.3c0,0-3.6,4.3-6.1,5.2l-4.4-11.5 C-535.8,88.2-537.9,81.1-534.9,76.2L-534.9,76.2z"></path> <path class="st14" d="M-531.3,99.7c0,0-3.3,5.5-9.5,15.2l3.5,2.5l11.4-12.8c1.6-1.4,2.5-3.7,2-5.8l-1.3-4.3 C-525.2,94.5-529.9,96.2-531.3,99.7L-531.3,99.7z"></path> <path class="st21" d="M-549.6,130.4c-0.1-1.1,0.1-2.2,0.3-3.2c0.7-3.8,2.9-11.5,9.5-10.6c8.6,1.2,5.9,17.6,5.9,17.6l-5.1,40.3 h-6.2C-545.2,174.5-547.5,151-549.6,130.4z"></path> <path class="st21" d="M-575.5,116.5c0,0,8.1,12,17,16.7c9.6,5,13.9-4.3,13.9-4.3S-565.9,113.8-575.5,116.5z"></path> <path class="st18" d="M-536.5,112.3c0,0,0.6,7.6-1.7,9.8c-2.3,2.2-16.3,2.3-21,0.8s-3.9-11.1-3.9-11.1L-536.5,112.3L-536.5,112.3z "></path> <g> <path class="st12" d="M-533.4,114.1h-33l-3-17.8c-0.3-1.5,0.9-3,2.5-3h34.1c1.6,0,2.8,1.4,2.5,3L-533.4,114.1L-533.4,114.1z M-536.5,117.9h-26.7c-1.7,0-3.1-1.4-3.1-3.1v-0.7h33v0.7C-533.4,116.5-534.8,117.9-536.5,117.9z"></path> <circle class="st52" cx="-549.6" cy="104.4" r="2.9"></circle> </g> <g> <path class="st20" d="M-517.3,134.5c-1.7,1.7-3.9,1.7-6,0.4c-0.9-0.5-2.2-1.3-3.5-1.9c-1.7-0.9-3.2-1.7-3.2-1.7l2-4.5h2.9 c1.4,0,3.2-0.1,4.9-0.3c3.7-0.4,5.5-1.4,6,0.1C-513.9,128.1-515.6,132.8-517.3,134.5L-517.3,134.5z"></path> <path class="st13" d="M-564,107.3c0,0-6.5-3.9-12-0.1s0.3,11,6.3,13.4s41.3,12.2,41.3,12.2c0.6-1.3,1.1-3.6,1.7-6.1 c0,0-10.5-6-16.4-9.8C-556.5,108.3-564,107.3-564,107.3L-564,107.3z"></path> </g> <path class="st20" d="M-539,174.5c0,0,3.6,5.6,5.9,10.5c2.2,4.8,0.1,6.3-3.1,6.1c-5.3-0.4-9.5-12.9-9.5-12.9l0.5-3.7 C-545.2,174.5-544,174.6-539,174.5L-539,174.5z"></path> </g> </g> </svg> 