<svg xmlns="http://www.w3.org/2000/svg" xmlns:xlink="http://www.w3.org/1999/xlink" width="424" height="300" viewBox="0 0 424 300">
    <defs>
        <path id="a" d="M5.935.82a4.293 4.293 0 0 0-2.248.684l-2.55 1.644a2.11 2.11 0 0 0-.968 1.775V7.27l1.154 172.438 113.272 65.398 2.245-1.122a2.736 2.736 0 0 0 1.512-2.444V71.614c0-3.577-2.535-7.968-5.636-9.76L8.157 1.398A4.28 4.28 0 0 0 6.084.82h-.15z"/>
        <path id="c" d="M3.282 1.307C1.52 2.324.551 4.373.551 7.076c0 4.331 2.283 9.774 5.908 12.833.03.025.143.012.256.001.111-.013.223-.026.254-.001l1.289-1.583c-3.284-2.676-5.666-7.408-5.666-11.25 0-1.944.607-3.365 1.711-4.002 1.103-.636 2.638-.453 4.32.518 2.329 1.346 4.035 4.044 5.367 7.087.007.014.131.007.255 0s.249-.013.256 0l1.873-.808c-1.496-3.469-4.013-6.476-6.731-8.045C8.3 1.05 6.983.659 5.772.659c-.899 0-1.74.215-2.49.648zm13.353 10.706l-1.452.563c.326 1.134.49 2.222.49 3.23 0 1.943-.607 3.365-1.711 4.001-1.102.637-2.636.453-4.319-.518h-.51l-.51 1.768c1.343.775 2.66 1.166 3.871 1.166.9 0 1.739-.215 2.489-.649 1.762-1.017 2.732-3.065 2.732-5.768 0-1.199-.192-2.475-.571-3.793h-.509z"/>
        <linearGradient id="d" x1="50%" x2="50%" y1="0%" y2="100%">
            <stop offset="0%" stop-color="#B4EC51"/>
            <stop offset="100%" stop-color="#429321"/>
        </linearGradient>
        <path id="f" d="M3.242.916C1.48 1.933.509 3.981.509 6.684h2.042c0-1.943.608-3.363 1.711-4 1.103-.638 2.637-.453 4.319.518.556.319.775.872 1.315 1.338.028.026.14.013.252 0 .114-.013.228-.026.258 0l1.362-1.521a13.073 13.073 0 0 0-2.166-1.585C8.259.659 6.942.268 5.731.268c-.899 0-1.739.215-2.489.648zm9.462 3.577l-1.032 1.338c2.407 2.774 3.962 6.537 3.962 9.585h2.041c0-3.566-1.709-7.751-4.461-10.923h-.51zM2.174 8.32l-1.505.319c.752 4.756 4.079 9.813 7.912 12.027 1.337.77 2.658 1.161 3.875 1.161a4.99 4.99 0 0 0 2.151-.467c1.556-.737 2.601-2.281 2.943-4.35l-1.786-.295-.738-.037c-.232 1.408-.345 2.389-1.292 2.836-1.085.515-2.552.295-4.132-.616-3.344-1.931-6.253-6.38-6.916-10.578h-.512z"/>
        <linearGradient id="g" x1="50%" x2="46.797%" y1="0%" y2="97.37%">
            <stop offset="0%" stop-color="#B4EC51"/>
            <stop offset="100%" stop-color="#429321"/>
        </linearGradient>
        <path id="i" d="M0 .267h11.257v6.417H0z"/>
        <path id="k" d="M4.895.499l.3 2.018c.971-.144 2.127.151 3.344.853 3.822 2.207 7.051 7.8 7.051 12.214 0 1.942-.607 3.363-1.71 4-1.104.638-2.637.453-4.321-.518h-.638l-.382 1.767c1.344.776 2.66 1.167 3.872 1.167.899 0 1.739-.215 2.489-.648 1.761-1.017 2.732-3.065 2.732-5.768 0-5.14-3.621-11.412-8.073-13.982C8.232.836 6.909.441 5.686.441c-.269 0-.533.02-.791.058zm-2.669.797C1.135 2.141.863 3.6.59 5.266l1.377.331h.637c.197-1.206.691-2.114 1.427-2.627L2.864 1.296c-.032.023-.172.011-.315 0a3.061 3.061 0 0 0-.229-.014c-.046 0-.08.004-.094.014zM.467 6.852c0 3.914 1.663 8.807 4.814 11.971.032.034.176.017.319.001.143-.016.285-.032.319-.001l1.421-1.464c-2.845-2.761-4.832-7.082-4.832-10.507H.467z"/>
        <path id="m" d="M.256.442h12.738V22H.256z"/>
        <path id="o" d="M3.397.185c-.377 0-.753.107-1.082.319l-1.19.766a.985.985 0 0 0-.451.828v1.095l.538 52.31L54.034 86l1.047-.524c.418-.209.687-.628.705-1.092V33.119c-.037-1.653-1.205-3.65-2.627-4.472L4.399.454A1.998 1.998 0 0 0 3.4.185h-.003z"/>
        <linearGradient id="p" x1="5.986%" x2="92.666%" y1="0%" y2="61.61%">
            <stop offset="0%" stop-color="#B4EC51"/>
            <stop offset="100%" stop-color="#429321"/>
        </linearGradient>
        <path id="r" d="M0 .383h53.966v40.381H0z"/>
        <path id="t" d="M2.558.372A2.48 2.48 0 0 0 .593 1.384l-.152.207A2.283 2.283 0 0 0 0 2.938v28.52c0 1.206.855 2.686 1.899 3.289l36.359 20.927c.366.211.777.322 1.194.326h.051a2.42 2.42 0 0 0 .369-.032l.078-.014a2.406 2.406 0 0 0 2.014-2.374V24.649c0-1.206-.857-2.683-1.903-3.281L3.826.699A2.463 2.463 0 0 0 2.635.372h-.077z"/>
        <path id="v" d="M.667 3.15l-.24 1.763v70.296a5.47 5.47 0 0 0 2.724 4.732L102.594 138h1.246a3.433 3.433 0 0 0 3.434-3.434V63.765a5.474 5.474 0 0 0-2.723-4.732L4.938 1.064a2.842 2.842 0 0 0-1.433-.39C2.143.674.869 1.659.667 3.15"/>
        <path id="x" d="M0 .645h112.814v29.403H0z"/>
        <path id="z" d="M24.254 1.116L1.376 14.248c-1.823 1.048-1.836 2.782-.028 3.855l15.558 9.236c1.808 1.073 4.777 1.091 6.599.04l22.888-13.215c.907-.524 1.364-1.217 1.37-1.913v-.024c-.004-.693-.455-1.386-1.353-1.916L30.866 1.153c-.918-.54-2.134-.812-3.347-.812-1.183 0-2.364.258-3.265.775"/>
        <linearGradient id="A" x1="-5.45%" y1="56.438%" y2="45.803%">
            <stop offset="0%" stop-color="#B4EC51"/>
            <stop offset="100%" stop-color="#429321"/>
        </linearGradient>
        <path id="C" d="M0 .782h47.764v27.814H0z"/>
        <path id="E" d="M24.255 1.556L1.376 14.69c-1.823 1.048-1.837 2.782-.028 3.856l15.557 9.234c1.808 1.074 4.778 1.092 6.6.04l22.887-13.213c1.822-1.052 1.83-2.786.018-3.854L30.865 1.594c-.917-.54-2.133-.811-3.346-.811-1.183 0-2.364.257-3.264.773"/>
        <path id="G" d="M24.254 1.56L1.376 14.691c-1.823 1.047-1.836 2.782-.028 3.855l15.558 9.235c1.808 1.074 4.777 1.091 6.599.04l22.888-13.215c.907-.523 1.364-1.217 1.37-1.913v-.024c-.004-.693-.455-1.386-1.353-1.915L30.866 1.596c-.918-.54-2.134-.812-3.347-.812-1.183 0-2.364.258-3.265.775"/>
        <linearGradient id="H" x1="-34.197%" y1="56.374%" y2="46.768%">
            <stop offset="0%" stop-color="#B4EC51"/>
            <stop offset="100%" stop-color="#429321"/>
        </linearGradient>
        <path id="J" d="M0 .343h47.764v27.815H0z"/>
        <path id="L" d="M0 .425h15.113v34.199H0z"/>
        <path id="N" d="M.536.331h19.295v10.086H.536z"/>
        <path id="P" d="M.19.259h17.217v17.769H.19z"/>
        <path id="R" d="M24.135 1.147L1.428 14.182c-1.81 1.038-1.822 2.76-.028 3.825l15.441 9.167c1.794 1.065 4.742 1.083 6.55.04l22.717-13.116c1.807-1.043 1.815-2.764.016-3.823l-15.428-9.09c-.91-.537-2.118-.807-3.322-.807-1.174 0-2.345.256-3.239.769"/>
        <linearGradient id="S" x1="-2.059%" x2="98.865%" y1="58.581%" y2="47.067%">
            <stop offset="0%" stop-color="#B4EC51"/>
            <stop offset="100%" stop-color="#429321"/>
        </linearGradient>
        <path id="U" d="M24.542 1.485L1.835 14.519C.024 15.558.013 17.28 1.807 18.345l15.441 9.167c1.794 1.064 4.742 1.082 6.55.039l22.716-13.115c1.808-1.043 1.816-2.764.017-3.823L31.103 1.522c-.91-.536-2.117-.806-3.322-.806-1.174 0-2.345.256-3.239.769"/>
        <linearGradient id="V" x1="9.524%" x2="98.298%" y1="87.852%" y2="46.86%">
            <stop offset="0%" stop-color="#B4EC51"/>
            <stop offset="100%" stop-color="#429321"/>
        </linearGradient>
        <path id="X" d="M14.987 1.236l-.564.266L.101 1.416l.055 6.567c0 .592.313 1.139.825 1.438L13.618 16.8c1.055.61 2.783.61 3.839 0l12.955-7.377c.351-.2.567-.572.565-.976l-.003-1.205c0-.055-.011-.107-.019-.159l-.118-5.481-11.514-.07-.491-.287C18.301.938 17.6.784 16.899.784c-.693 0-1.385.151-1.912.452"/>
        <linearGradient id="Y" x1="0%" x2="98.059%" y1="46.201%" y2="46.201%">
            <stop offset="0%" stop-color="#B4EC51"/>
            <stop offset="100%" stop-color="#429321"/>
        </linearGradient>
        <path id="aa" d="M6.047 3.684c8.062-4.656 21.254-4.656 29.316 0 8.062 4.654 8.062 12.271 0 16.925-8.062 4.655-21.254 4.655-29.316 0"/>
        <path id="ac" d="M17.171 20c-4.196-.025-8.379-.956-11.562-2.794-6.454-3.727-6.454-9.823 0-13.549 6.453-3.725 17.013-3.725 23.466 0 3.194 1.844 4.808 4.269 4.84 6.7v.149c-.032 2.43-1.646 4.855-4.84 6.7-3.183 1.838-7.366 2.77-11.562 2.794h-.342"/>
        <path id="ad" d="M.632.925h81.586v47.177H.632z"/>
        <path id="af" d="M.75.797h16.27v13.5H.75z"/>
        <path id="ah" d="M.75.641h16.27v9.843H.75z"/>
        <path id="aj" d="M.991.328h1.914v9.083H.991z"/>
        <path id="al" d="M.923.839h8.143v5.437H.923z"/>
        <path id="an" d="M.529 1.23l-.155.253c-.209.146-.287 1.075-.287 1.33v32.541c0 1.562 1.056 3.566 2.409 4.348l12.165 7.021c.191.11.927.311 1.136.238l1.583-.555c.524-.184.875-.678.875-1.234V11.546c0-1.562-1.108-3.478-2.461-4.259L4.699.888a3.467 3.467 0 0 0-1.754-.48c-.831 0-1.659.298-2.416.822"/>
    </defs>
    <g fill="none" fill-rule="evenodd">
        <g transform="translate(278.277 -.544)">
            <mask id="b" fill="#fff">
                <use xlink:href="#a"/>
            </mask>
            <path fill="#4E7617" d="M5.935.82a4.293 4.293 0 0 0-2.248.684l-2.55 1.644a2.11 2.11 0 0 0-.968 1.775V7.27l1.154 172.438 113.272 65.398 2.245-1.122a2.736 2.736 0 0 0 1.512-2.444V71.614c0-3.577-2.535-7.968-5.636-9.76L8.157 1.398A4.28 4.28 0 0 0 6.084.82h-.15z" mask="url(#b)"/>
        </g>
        <path fill="#F9F9F9" d="M277 6.861c0-3.578 2.536-5.043 5.635-3.253L387.09 63.913c3.1 1.79 5.635 6.183 5.635 9.761v170.804L277 177.664V6.861z"/>
        <path fill="#8DC63F" d="M387.09 63.914L282.635 3.607c-3.1-1.79-5.635-.325-5.635 3.255v15.763l115.723 66.813V73.675c0-3.579-2.535-7.973-5.635-9.761"/>
        <path fill="#FFF" d="M288.006 16.604c-1.167-.672-2.12-.122-2.12 1.225 0 1.348.953 3 2.12 3.674 1.167.675 2.122.124 2.122-1.225 0-1.346-.955-3-2.122-3.674M298.408 22.714c-1.167-.674-2.12-.123-2.12 1.224 0 1.348.953 3.001 2.12 3.674 1.167.674 2.122.124 2.122-1.224 0-1.348-.955-3.001-2.122-3.674M308.81 28.822c-1.166-.674-2.12-.122-2.12 1.225 0 1.348.954 3.001 2.12 3.674 1.167.674 2.122.124 2.122-1.225 0-1.348-.955-3-2.122-3.674"/>
        <path fill="#D4D9EC" d="M286.643 94.422v22.272l19.287 11.136v-22.27zM319.13 113.619v22.27l19.287 11.136v-22.27zM351.618 132.814v22.271l19.286 11.136V143.95z"/>
        <path fill="#C4E29B" d="M298.72 136.806l60.108 34.703v6.94l-60.108-34.702zM282.342 144.568l105.04 60.547v3.47l-105.04-60.548zM282.342 157.582l105.04 60.547v3.47l-105.04-60.548zM282.342 170.594l105.04 60.55v3.47l-105.04-60.549z"/>
        <g>
            <g transform="translate(233 52.733)">
                <mask id="e" fill="#fff">
                    <use xlink:href="#c"/>
                </mask>
                <path fill="url(#d)" d="M3.282 1.307C1.52 2.324.551 4.373.551 7.076c0 4.331 2.283 9.774 5.908 12.833.03.025.143.012.256.001.111-.013.223-.026.254-.001l1.289-1.583c-3.284-2.676-5.666-7.408-5.666-11.25 0-1.944.607-3.365 1.711-4.002 1.103-.636 2.638-.453 4.32.518 2.329 1.346 4.035 4.044 5.367 7.087.007.014.131.007.255 0s.249-.013.256 0l1.873-.808c-1.496-3.469-4.013-6.476-6.731-8.045C8.3 1.05 6.983.659 5.772.659c-.899 0-1.74.215-2.49.648zm13.353 10.706l-1.452.563c.326 1.134.49 2.222.49 3.23 0 1.943-.607 3.365-1.711 4.001-1.102.637-2.636.453-4.319-.518h-.51l-.51 1.768c1.343.775 2.66 1.166 3.871 1.166.9 0 1.739-.215 2.489-.649 1.762-1.017 2.732-3.065 2.732-5.768 0-1.199-.192-2.475-.571-3.793h-.509z" mask="url(#e)"/>
            </g>
            <g transform="translate(214 42.733)">
                <mask id="h" fill="#fff">
                    <use xlink:href="#f"/>
                </mask>
                <path fill="url(#g)" d="M3.242.916C1.48 1.933.509 3.981.509 6.684h2.042c0-1.943.608-3.363 1.711-4 1.103-.638 2.637-.453 4.319.518.556.319.775.872 1.315 1.338.028.026.14.013.252 0 .114-.013.228-.026.258 0l1.362-1.521a13.073 13.073 0 0 0-2.166-1.585C8.259.659 6.942.268 5.731.268c-.899 0-1.739.215-2.489.648zm9.462 3.577l-1.032 1.338c2.407 2.774 3.962 6.537 3.962 9.585h2.041c0-3.566-1.709-7.751-4.461-10.923h-.51zM2.174 8.32l-1.505.319c.752 4.756 4.079 9.813 7.912 12.027 1.337.77 2.658 1.161 3.875 1.161a4.99 4.99 0 0 0 2.151-.467c1.556-.737 2.601-2.281 2.943-4.35l-1.786-.295-.738-.037c-.232 1.408-.345 2.389-1.292 2.836-1.085.515-2.552.295-4.132-.616-3.344-1.931-6.253-6.38-6.916-10.578h-.512z" mask="url(#h)"/>
            </g>
            <path fill="#4E7617" d="M239.459 72.64c-3.72-3.031-6.42-8.428-6.42-12.832 0-2.703.972-4.751 2.732-5.768 1.762-1.017 4.02-.833 6.362.518 2.718 1.57 5.234 4.577 6.73 8.045l-1.873.809c-1.33-3.08-3.526-5.73-5.878-7.086-1.682-.972-3.216-1.156-4.32-.52-1.104.638-1.711 2.059-1.711 4.002 0 3.842 2.384 8.574 5.667 11.25l-1.29 1.583z"/>
            <path fill="#F1F2F2" d="M244.984 74.956c-1.212 0-2.528-.391-3.872-1.167l1.02-1.767c1.683.97 3.217 1.155 4.321.518 1.103-.637 1.711-2.058 1.711-4.001 0-1.01-.165-2.096-.492-3.23l1.962-.563c.378 1.317.571 2.593.571 3.793 0 2.703-.97 4.75-2.732 5.769a4.917 4.917 0 0 1-2.489.648"/>
            <g transform="translate(214 42.733)">
                <mask id="j" fill="#fff">
                    <use xlink:href="#i"/>
                </mask>
                <path fill="#649323" d="M2.04 6.684H0C0 3.982.97 1.933 2.73.916c1.763-1.017 4.022-.833 6.363.518.736.426 1.465.959 2.164 1.585l-1.362 1.52a10.952 10.952 0 0 0-1.823-1.337c-1.682-.971-3.217-1.155-4.32-.518-1.104.637-1.711 2.058-1.711 4" mask="url(#j)"/>
            </g>
            <path fill="#4E7617" d="M231.165 58.148h-2.041c0-3.048-1.556-6.81-3.962-9.585l1.542-1.337c2.75 3.172 4.46 7.357 4.46 10.922"/>
            <path fill="#F1F2F2" d="M225.946 64.56c-1.217 0-2.539-.392-3.874-1.162-3.834-2.214-7.162-7.272-7.913-12.027l2.016-.318c.663 4.197 3.573 8.646 6.917 10.577 1.58.911 3.046 1.131 4.132.617.947-.447 1.57-1.429 1.802-2.837l2.014.332c-.342 2.07-1.387 3.614-2.944 4.35a4.99 4.99 0 0 1-2.15.467"/>
            <g transform="translate(253 63.733)">
                <mask id="l" fill="#fff">
                    <use xlink:href="#k"/>
                </mask>
                <path fill="url(#d)" d="M4.895.499l.3 2.018c.971-.144 2.127.151 3.344.853 3.822 2.207 7.051 7.8 7.051 12.214 0 1.942-.607 3.363-1.71 4-1.104.638-2.637.453-4.321-.518h-.638l-.382 1.767c1.344.776 2.66 1.167 3.872 1.167.899 0 1.739-.215 2.489-.648 1.761-1.017 2.732-3.065 2.732-5.768 0-5.14-3.621-11.412-8.073-13.982C8.232.836 6.909.441 5.686.441c-.269 0-.533.02-.791.058zm-2.669.797C1.135 2.141.863 3.6.59 5.266l1.377.331h.637c.197-1.206.691-2.114 1.427-2.627L2.864 1.296c-.032.023-.172.011-.315 0a3.061 3.061 0 0 0-.229-.014c-.046 0-.08.004-.094.014zM.467 6.852c0 3.914 1.663 8.807 4.814 11.971.032.034.176.017.319.001.143-.016.285-.032.319-.001l1.421-1.464c-2.845-2.761-4.832-7.082-4.832-10.507H.467z" mask="url(#l)"/>
            </g>
            <g>
                <path fill="#F1F2F2" d="M254.967 69.33l-2.015-.33c.289-1.763 1.076-3.136 2.275-3.972l1.167 1.675c-.737.513-1.23 1.421-1.427 2.626"/>
                <g transform="translate(257 63.733)">
                    <mask id="n" fill="#fff">
                        <use xlink:href="#m"/>
                    </mask>
                    <path fill="#4E7617" d="M7.772 22c-1.21 0-2.527-.39-3.87-1.167l1.02-1.767c1.682.971 3.216 1.155 4.32.518 1.102-.637 1.711-2.058 1.711-4 0-4.414-3.23-10.007-7.052-12.214-1.217-.703-2.373-.997-3.345-.853L.256.5C1.69.286 3.301.667 4.921 1.602c4.452 2.57 8.073 8.842 8.073 13.981 0 2.703-.97 4.751-2.733 5.77A4.917 4.917 0 0 1 7.772 22" mask="url(#n)"/>
                </g>
                <path fill="#FFC107" d="M258.281 82.556c-3.262-3.165-5.452-7.975-5.452-11.972h2.041c0 3.426 1.986 7.746 4.832 10.507l-1.42 1.465z"/>
            </g>
        </g>
        <g>
            <g transform="translate(215 86.815)">
                <mask id="q" fill="#fff">
                    <use xlink:href="#o"/>
                </mask>
                <path fill="url(#p)" d="M3.397.185c-.377 0-.753.107-1.082.319l-1.19.766a.985.985 0 0 0-.451.828v1.095l.538 52.31L54.034 86l1.047-.524c.418-.209.687-.628.705-1.092V33.119c-.037-1.653-1.205-3.65-2.627-4.472L4.399.454A1.998 1.998 0 0 0 3.4.185h-.003z" mask="url(#q)"/>
            </g>
            <path fill="#649323" d="M215 90.07c0-1.668 1.183-2.351 2.628-1.516l48.71 28.122c1.445.835 2.628 2.883 2.628 4.552v51.548L215 141.618V90.07z"/>
            <g transform="translate(215 87.815)">
                <mask id="s" fill="#fff">
                    <use xlink:href="#r"/>
                </mask>
                <path fill="#FFF" d="M51.338 28.861L2.628.739C1.183-.096 0 .587 0 2.256v7.351l53.966 31.157v-7.351c0-1.669-1.183-3.717-2.628-4.552" mask="url(#s)"/>
            </g>
            <path fill="#649323" d="M220.133 94.614c-.545-.313-.99-.057-.99.571s.445 1.4.99 1.713c.544.315.989.058.989-.57 0-.629-.445-1.4-.99-1.714M224.983 97.463c-.544-.313-.989-.057-.989.571s.445 1.4.99 1.714c.543.314.988.057.988-.571 0-.629-.445-1.4-.989-1.714M229.834 100.312c-.544-.313-.99-.057-.99.57 0 .629.446 1.4.99 1.715.545.314.989.057.989-.571 0-.63-.444-1.4-.99-1.714"/>
            <path fill="#FFF" d="M227.46 108.835l24.704 14.263v1.618l-24.703-14.262zM217.491 103.1l8.481 4.927v1.618l-8.48-4.927z"/>
            <path fill="#FFC107" d="M221.731 110.186l7.052 4.079v1.618l-7.052-4.08z"/>
            <path fill="#FFF" d="M229.992 114.906l9.594 5.585v1.618l-9.594-5.584zM245.478 128.58l20.996 12.122v1.62l-20.996-12.125z"/>
            <path fill="#FFC107" d="M237.66 124.08l5.57 3.21v1.618l-5.57-3.21z"/>
            <path fill="#FFF" d="M217.491 112.468l17.638 10.183v1.618l-17.638-10.183zM230.483 124.716l17.187 9.925v1.618l-17.187-9.925z"/>
            <path fill="#FFC107" d="M225.572 121.835l3.854 2.244v1.618l-3.854-2.244z"/>
            <path fill="#FFF" d="M232.542 130.486l30.198 17.39v1.618l-30.198-17.39zM219.907 123.27l11.161 6.407v1.618l-11.16-6.406zM238.548 138.713l27.927 16.041v1.618l-27.927-16.041zM225.487 131.202l11.587 6.702v1.618l-11.587-6.702z"/>
            <path fill="#FFC107" d="M217.491 126.519l6.892 3.968v1.618l-6.892-3.968zM229.992 138.43l3.966 2.272v1.62l-3.966-2.274z"/>
            <path fill="#FFF" d="M224.95 135.45l3.833 2.171v1.618l-3.834-2.17zM239.813 148.686l26.662 15.436v1.619l-26.663-15.437zM227.839 141.814l8.499 4.92v1.618l-8.5-4.92z"/>
            <path fill="#FFC107" d="M217.491 135.886l4.455 2.544v1.618l-4.455-2.543z"/>
        </g>
        <g>
            <g transform="translate(229 -.372)">
                <mask id="u" fill="#fff">
                    <use xlink:href="#t"/>
                </mask>
                <path fill="#4E7617" d="M2.558.372A2.48 2.48 0 0 0 .593 1.384l-.152.207A2.283 2.283 0 0 0 0 2.938v28.52c0 1.206.855 2.686 1.899 3.289l36.359 20.927c.366.211.777.322 1.194.326h.051a2.42 2.42 0 0 0 .369-.032l.078-.014a2.406 2.406 0 0 0 2.014-2.374V24.649c0-1.206-.857-2.683-1.903-3.281L3.826.699A2.463 2.463 0 0 0 2.635.372h-.077z" mask="url(#u)"/>
            </g>
            <path fill="#FFF" d="M230.904 1.274C229.857.674 229 1.172 229 2.378v28.56c0 1.206.854 2.686 1.898 3.289L267.31 55.25c1.045.602 1.9.109 1.9-1.097v-28.78c0-1.205-.857-2.682-1.904-3.281L230.904 1.274z"/>
            <path fill="#FFC107" d="M261.166 24.37c-1.797-1.037-3.267-.214-3.267 1.83s1.47 4.629 3.267 5.746c1.797 1.116 3.268.293 3.268-1.83s-1.47-4.71-3.268-5.746"/>
            <path fill="#8DC63F" d="M253.41 31.74l-4.306 2.75-7.606-15.975L229 25.73v5.207c0 1.206.854 2.686 1.898 3.289L267.31 55.25c1.045.602 1.9.109 1.9-1.097v-4.63l-8.215-4.742-7.585-13.04z"/>
        </g>
        <g>
            <g transform="translate(280 36.326)">
                <mask id="w" fill="#fff">
                    <use xlink:href="#v"/>
                </mask>
                <path fill="#4E7617" d="M.667 3.15l-.24 1.763v70.296a5.47 5.47 0 0 0 2.724 4.732L102.594 138h1.246a3.433 3.433 0 0 0 3.434-3.434V63.765a5.474 5.474 0 0 0-2.723-4.732L4.938 1.064a2.842 2.842 0 0 0-1.433-.39C2.143.674.869 1.659.667 3.15" mask="url(#w)"/>
            </g>
            <path fill="#FFF" d="M381.822 97.178l-98.614-57.274c-1.235-.717-2.782.173-2.782 1.601v70.562a5.47 5.47 0 0 0 2.724 4.731l98.615 57.275c1.234.716 2.781-.174 2.781-1.6V101.91a5.47 5.47 0 0 0-2.724-4.732"/>
            <path fill="#E6E7E8" d="M384.546 118.228v-2.047c-.258-.14-.518-.282-.779-.428-1.366-.756-2.777-1.54-4.34-1.844-4.123-.805-8.135.665-11.17 2.035-1.726.778-3.018 1.992-4.157 3.062-1.733 1.63-3.098 2.907-5.497 2.64-3.096-.359-4.826-4.393-6.215-7.634-.22-.513-.432-1.006-.639-1.463-.366-.805-.705-1.617-1.044-2.426-1.722-4.114-3.504-8.369-8.428-11.174-4.28-2.438-9.289-2.027-14.096 1.157-.574.381-1.155.783-1.74 1.19-3.297 2.286-6.708 4.654-10.232 3.904-1.85-.39-3.736-2.216-5.733-4.148-2.74-2.65-5.847-5.656-10.012-6.217-4.689-.628-8.434-.13-11.452 1.532-1.366.753-2.835 2.031-4.389 3.384-1.304 1.136-2.706 2.348-4.196 3.394v2.187c1.966-1.236 3.752-2.78 5.39-4.208 1.48-1.288 2.876-2.505 4.072-3.164 2.664-1.468 6.043-1.899 10.332-1.322 3.574.481 6.328 3.145 8.99 5.721 2.19 2.12 4.26 4.121 6.622 4.62 4.291.904 8.197-1.799 11.643-4.189.575-.398 1.145-.793 1.71-1.166 2.437-1.615 7.26-3.903 12.191-1.095 4.386 2.498 5.972 6.286 7.65 10.296.346.825.693 1.653 1.065 2.475.203.447.41.928.625 1.43 1.49 3.478 3.534 8.243 7.677 8.722.296.034.58.05.853.05 2.726 0 4.44-1.609 6.1-3.17 1.085-1.022 2.21-2.078 3.657-2.73 2.79-1.26 6.457-2.614 10.073-1.909 1.282.25 2.51.931 3.807 1.651.546.304 1.1.607 1.662.884"/>
            <g transform="translate(277 96.326)">
                <mask id="y" fill="#fff">
                    <use xlink:href="#x"/>
                </mask>
                <path fill="#FFC107" d="M81.762 30.048c-.291 0-.59-.017-.893-.052-4.65-.537-7.564-4.925-9.19-8.511-.607-1.34-1.141-2.75-1.657-4.111-1.415-3.741-2.753-7.273-5.6-9.88-4.274-3.916-10.098-.583-11.782.532-.425.28-.853.57-1.283.862-3.53 2.388-7.527 5.095-12 4.505-3.726-.49-6.461-3.061-9.108-5.548-2.07-1.945-4.211-3.957-6.754-4.848-2.98-1.045-6.677-.546-10.15 1.366-1.196.659-2.595 1.875-4.074 3.164-2.503 2.18-5.34 4.65-8.656 5.84L0 11.656c2.994-1.073 5.695-3.425 8.076-5.5C9.632 4.8 11.1 3.523 12.466 2.77 16.393.609 20.633.067 24.099 1.28c2.905 1.019 5.188 3.165 7.397 5.24 2.547 2.395 4.955 4.656 8.1 5.07 3.783.497 7.322-1.894 10.742-4.208.437-.295.868-.588 1.299-.873 5.233-3.467 10.473-3.6 14.017-.355 3.164 2.898 4.64 6.8 6.07 10.576.506 1.336 1.029 2.715 1.613 4.004 1.432 3.159 3.938 7.016 7.742 7.456 2.926.337 5.193-1.537 7.577-3.524.944-.785 1.919-1.598 2.936-2.255 3.252-2.098 7.366-2.866 11.29-2.1 1.564.304 2.975 1.088 4.34 1.845 1.799.998 3.495 1.943 5.338 1.682l.256 1.8c-2.442.346-4.493-.79-6.477-1.892-1.298-.72-2.523-1.4-3.805-1.65-3.465-.677-7.094-.004-9.956 1.844-.923.595-1.815 1.337-2.758 2.124-2.253 1.878-4.783 3.984-8.057 3.984" mask="url(#y)"/>
            </g>
            <path fill="#649323" d="M359.451 117.398h-.455l.001 43.451.454.264zM297.058 124.875l.455.265V91.813h-.455zM315.776 135.747l.455.265v-35.177h-.455zM337.893 148.592l.455.264V91.813h-.455z"/>
            <path fill="#649323" d="M297.987 91.814c0 .513-.313.93-.701.93-.388 0-.701-.417-.701-.93 0-.513.313-.93.7-.93.389 0 .702.416.702.93M316.704 100.835c0 .513-.313.93-.7.93-.389 0-.702-.417-.702-.93 0-.513.313-.929.701-.929.388 0 .701.416.701.929M338.822 91.814c0 .513-.313.93-.701.93-.388 0-.701-.417-.701-.93 0-.513.312-.93.7-.93.388 0 .701.416.701.93M359.925 117.398c0 .513-.313.929-.701.929-.387 0-.701-.416-.701-.929 0-.514.314-.93.701-.93.388 0 .701.416.701.93"/>
            <g fill="#4E7617" font-family="Montserrat-Bold, Montserrat" font-size="3.561" font-weight="bold">
                <text transform="translate(293 82.326)">
                    <tspan x="62.509" y="28.928">2019</tspan>
                </text>
                <text transform="translate(293 82.326)">
                    <tspan x="41.822" y="3.013">2018</tspan>
                </text>
                <text transform="translate(293 82.326)">
                    <tspan x="18.858" y="11.965">2017</tspan>
                </text>
                <text transform="translate(293 82.326)">
                    <tspan x=".672" y="3.011">2016</tspan>
                </text>
            </g>
        </g>
        <g>
            <path fill="#649323" d="M171.118 75.34a3.186 3.186 0 1 0 6.372 0 3.186 3.186 0 0 0-6.372 0"/>
            <path fill="#649323" d="M171.877 79.401a3.186 3.186 0 1 0 6.372 0 3.186 3.186 0 0 0-6.372 0"/>
            <path fill="#649323" d="M187.753 72.69l-.288 8.098c0 2.55-1.123 4.513-3.415 5.789-4.935 2.747-11.106-.687-11.106-6.182V72.69c0-2.55 1.411-4.905 3.703-6.18 4.936-2.747 11.106.686 11.106 6.18"/>
            <path fill="#FFC107" d="M203.416 122.925a2.677 2.677 0 0 0 1.42-4.947l-20.43-12.768v-5.754a2.678 2.678 0 0 0-5.353 0v8.721l22.948 14.341c.44.276.93.407 1.415.407M197.345 185.177l.006 2.058a1.63 1.63 0 0 1-1.382 1.614l-.343.054a4.327 4.327 0 0 1-2.915-.585l-10.6-6.487.068-3.048 12.264 8.114 2.902-1.72z"/>
            <path fill="#F1F2F2" d="M189.61 175.724l1.046 3.984 5.53 3.582c1.572.934 1.554 3.215-.032 4.123a2.384 2.384 0 0 1-2.38-.004l-11.624-7.299.029-4.386h7.43z"/>
            <path fill="#FFC107" d="M182.02 194.353l.004 2.059a1.63 1.63 0 0 1-1.38 1.615l-.344.053a4.324 4.324 0 0 1-2.915-.585l-10.599-6.487.067-3.048 12.264 8.114 2.902-1.72z"/>
            <path fill="#F1F2F2" d="M174.284 184.9l1.045 3.986 5.53 3.581c1.572.934 1.555 3.215-.031 4.123a2.385 2.385 0 0 1-2.38-.004l-11.625-7.299.03-4.386h7.43z"/>
            <path fill="#649323" d="M189.584 99.456v76.722a3.737 3.737 0 0 1-1.868 3.235c-2.49 1.438-5.604-.36-5.604-3.236V103.77l7.472-4.314z"/>
            <path fill="#649323" d="M189.584 99.456v32.666l-7.472 16.36v-46.641zM174.388 108.25v76.722a3.737 3.737 0 0 1-1.868 3.236c-2.49 1.438-5.604-.36-5.604-3.236v-72.407l7.472-4.314z"/>
            <path fill="#649323" d="M189.584 99.552v31.966c0 1.81-.965 3.481-2.532 4.387l-16.35 9.439c-1.683.972-3.786-.243-3.786-2.186v-31.966c0-1.81.965-3.482 2.532-4.386l16.35-9.44c1.683-.971 3.786.243 3.786 2.186"/>
            <path fill="#E6E7E8" d="M190.63 93.348v25.713a9.769 9.769 0 0 1-4.885 8.46l-10.74 6.2c-3.979 2.298-8.953-.574-8.953-5.17v-29.06a5.491 5.491 0 0 1 2.745-4.755l12.119-6.996c4.317-2.493 9.713.623 9.713 5.608"/>
            <path fill="#FFC107" d="M191.945 129.808a2.677 2.677 0 0 0 1.42-4.946l-20.43-12.768v-5.755a2.677 2.677 0 0 0-5.353 0v8.722l22.947 14.34c.44.275.931.407 1.416.407"/>
            <path fill="#D1D3D4" d="M170.258 112.007a2.677 2.677 0 0 0 2.677-2.676v-9.875a2.678 2.678 0 0 0-5.353 0v9.875a2.676 2.676 0 0 0 2.676 2.676"/>
            <path fill="#FFC107" d="M178.296 95.608c1.465 0 2.66-1.18 2.675-2.648l.093-8.559a2.678 2.678 0 0 0-2.649-2.705 2.68 2.68 0 0 0-2.705 2.648l-.092 8.559a2.678 2.678 0 0 0 2.649 2.705h.029z"/>
            <path fill="#FFC107" d="M175.706 89.459h5.99a6.056 6.056 0 0 0 6.057-6.057V73.298h-6.644a5.402 5.402 0 0 0-5.403 5.403v10.758z"/>
            <path fill="#FFC107" d="M174.304 77.635a1.402 1.402 0 1 0 2.805 0 1.402 1.402 0 0 0-2.805 0"/>
            <path fill="#649323" d="M176.984 79.401h.686c.37 0 .67-.3.67-.67V71.95c0-.37-.3-.67-.67-.67h-.686c-.371 0-.671.3-.671.67v6.78c0 .371.3.671.67.671M184.106 72.154a2.291 2.291 0 1 0 4.583 0 2.291 2.291 0 0 0-4.583 0M179.438 71.64a2.291 2.291 0 1 0 4.582 0 2.291 2.291 0 0 0-4.582 0"/>
            <path fill="#649323" d="M176.093 72.535a2.292 2.292 0 1 0 4.584 0 2.292 2.292 0 0 0-4.584 0M183.211 69.349a3.187 3.187 0 1 0 6.373 0 3.187 3.187 0 0 0-6.373 0"/>
            <path fill="#649323" d="M178.543 68.07a3.187 3.187 0 1 0 6.373-.001 3.187 3.187 0 0 0-6.373 0"/>
            <path fill="#649323" d="M175.064 68.07a3.187 3.187 0 1 0 6.373-.001 3.187 3.187 0 0 0-6.373 0"/>
            <path fill="#649323" d="M171.877 71.255a3.187 3.187 0 1 0 6.374 0 3.187 3.187 0 0 0-6.374 0"/>
            <g transform="translate(165.47 101.954)">
                <mask id="B" fill="#fff">
                    <use xlink:href="#z"/>
                </mask>
                <path fill="url(#A)" d="M24.254 1.116L1.376 14.248c-1.823 1.048-1.836 2.782-.028 3.855l15.558 9.236c1.808 1.073 4.777 1.091 6.599.04l22.888-13.215c.907-.524 1.364-1.217 1.37-1.913v-.024c-.004-.693-.455-1.386-1.353-1.916L30.866 1.153c-.918-.54-2.134-.812-3.347-.812-1.183 0-2.364.258-3.265.775" mask="url(#B)"/>
            </g>
            <g>
                <g transform="translate(165.47 100.189)">
                    <mask id="D" fill="#fff">
                        <use xlink:href="#C"/>
                    </mask>
                    <path fill="#F1F2F2" d="M30.865 1.594C29.053.526 26.08.509 24.255 1.557L1.376 14.689c-1.824 1.046-1.836 2.782-.028 3.855l15.558 9.235c1.808 1.074 4.778 1.092 6.599.04l22.888-13.214c1.821-1.052 1.828-2.786.017-3.853L30.865 1.594z" mask="url(#D)"/>
                </g>
                <path fill="#21409A" d="M209.44 112.302l-24.204 14.28-.756-.451 24.201-14.256zM206.829 110.895l-24.204 14.282-.755-.453 24.201-14.255zM204.335 109.416l-24.203 14.281-.756-.452 24.2-14.256zM201.805 107.973l-24.203 14.281-.756-.452 24.201-14.255zM199.275 106.503l-24.203 14.281-.756-.452 24.201-14.255zM196.745 105.06l-24.203 14.282-.756-.452 24.201-14.256zM194.224 103.6l-12.48 7.379-.755-.452 12.477-7.354z"/>
            </g>
            <g transform="translate(162.824 100.189)">
                <mask id="F" fill="#fff">
                    <use xlink:href="#E"/>
                </mask>
                <path fill="url(#A)" d="M24.255 1.556L1.376 14.69c-1.823 1.048-1.837 2.782-.028 3.856l15.557 9.234c1.808 1.074 4.778 1.092 6.6.04l22.887-13.213c1.822-1.052 1.83-2.786.018-3.854L30.865 1.594c-.917-.54-2.133-.811-3.346-.811-1.183 0-2.364.257-3.264.773" mask="url(#F)"/>
            </g>
            <g>
                <path fill="#FFC107" d="M193.689 100.459c-1.813-1.068-4.787-1.084-6.61-.037l-22.88 13.132c-1.823 1.046-1.835 2.782-.028 3.855l15.558 9.236c1.808 1.073 4.778 1.091 6.6.04l22.887-13.215c1.822-1.052 1.829-2.785.017-3.853l-15.544-9.158z"/>
                <path fill="#649323" d="M206.792 110.978L182.59 125.26l-.756-.452 24.201-14.256zM204.182 109.571l-24.204 14.282-.755-.453 24.2-14.255zM201.688 108.093l-24.203 14.28-.756-.451 24.2-14.256zM199.158 106.65l-24.203 14.28-.756-.451 24.2-14.255zM196.628 105.18l-24.203 14.28-.756-.451 24.201-14.255zM194.098 103.737l-24.203 14.282-.756-.453 24.201-14.255zM191.577 102.276l-12.48 7.379-.755-.452 12.477-7.353z"/>
            </g>
            <g transform="translate(165.47 94.895)">
                <mask id="I" fill="#fff">
                    <use xlink:href="#G"/>
                </mask>
                <path fill="url(#H)" d="M24.254 1.56L1.376 14.691c-1.823 1.047-1.836 2.782-.028 3.855l15.558 9.235c1.808 1.074 4.777 1.091 6.599.04l22.888-13.215c.907-.523 1.364-1.217 1.37-1.913v-.024c-.004-.693-.455-1.386-1.353-1.915L30.866 1.596c-.918-.54-2.134-.812-3.347-.812-1.183 0-2.364.258-3.265.775" mask="url(#I)"/>
            </g>
            <g>
                <g transform="translate(165.47 94.012)">
                    <mask id="K" fill="#fff">
                        <use xlink:href="#J"/>
                    </mask>
                    <path fill="#F1F2F2" d="M30.865 1.155C29.053.087 26.08.07 24.255 1.118L1.376 14.25c-1.824 1.047-1.836 2.782-.028 3.856l15.558 9.234c1.808 1.074 4.778 1.092 6.599.04l22.888-13.214c1.821-1.052 1.828-2.786.017-3.853L30.865 1.155z" mask="url(#K)"/>
                </g>
                <path fill="#649323" d="M209.44 105.686l-24.204 14.281-.756-.451 24.201-14.256zM206.829 104.28l-24.204 14.28-.755-.451 24.201-14.256zM204.335 102.8l-24.203 14.282-.756-.452 24.2-14.255zM201.805 101.358l-24.203 14.282-.756-.453 24.201-14.255zM199.275 99.888l-24.203 14.281-.756-.452 24.201-14.256zM196.745 98.445l-24.203 14.282-.756-.453 24.201-14.255zM194.224 96.984l-12.48 7.38-.755-.452 12.477-7.355z"/>
            </g>
        </g>
        <g>
            <g transform="translate(162.824 191.787)">
                <mask id="M" fill="#fff">
                    <use xlink:href="#L"/>
                </mask>
                <path fill="#FFC107" d="M11.249 34.624c-.61 0-1.22-.228-1.693-.685l-4.564-4.407A16.35 16.35 0 0 1 6.082 5.05L11.144.966a2.439 2.439 0 0 1 3.062 3.795L9.142 8.845a11.482 11.482 0 0 0-4.256 8.418 11.477 11.477 0 0 0 3.492 8.762l4.563 4.407a2.437 2.437 0 0 1-1.693 4.192" mask="url(#M)"/>
            </g>
            <path fill="#80B537" d="M170.041 201.748a2.693 2.693 0 0 1-1.692-4.788l4.366-3.756a2.692 2.692 0 1 1 3.382 4.19l-4.366 3.757a2.683 2.683 0 0 1-1.69.597"/>
            <g transform="translate(187.445 289.325)">
                <mask id="O" fill="#fff">
                    <use xlink:href="#N"/>
                </mask>
                <path fill="#649323" d="M7.507 2.45L1.606.332.536 7.402c0 .355.193.68.502.853l1.734.962a9.574 9.574 0 0 0 9.424-.08l7.218-4.167a.833.833 0 0 0 .418-.723V2.564s-.404-.154-.738-.346L16.15 1.027a3.596 3.596 0 0 0-3.597 0L10.865 2l-1.098-.895-2.26 1.346z" mask="url(#O)"/>
            </g>
            <path fill="#F1F2F2" d="M194.952 292.597l-6.97-2.503v5.017c0 .354.191.68.501.852l1.734.961a9.567 9.567 0 0 0 9.423-.081l6.955-4.015a1.363 1.363 0 0 0 0-2.36l-3.001-1.733a3.596 3.596 0 0 0-3.598 0l-.93.537-1.494.332-2.62 2.993z"/>
            <path fill="#649323" d="M195.734 295.2c0-.973.69-2.167 1.531-2.652.842-.486 1.531-.09 1.531.883s-.69 2.167-1.531 2.653c-.842.485-1.531.088-1.531-.885"/>
            <path fill="#D1D3D4" d="M189.393 292.07c-1.882-1.087-1.882-2.865 0-3.952 1.882-1.086 4.961-1.086 6.844 0 1.881 1.087 1.881 2.865 0 3.952-1.883 1.086-4.962 1.086-6.844 0"/>
            <path fill="#649323" d="M178.344 282.482l-5.901-2.12-1.07 7.071c0 .354.193.68.503.853l1.733.962a9.574 9.574 0 0 0 9.424-.08L190.25 285a.832.832 0 0 0 .418-.723v-1.683s-.404-.153-.738-.345l-2.945-1.192a3.596 3.596 0 0 0-3.597 0l-1.687.973-1.098-.894-2.26 1.346z"/>
            <path fill="#F1F2F2" d="M178.344 283.303l-6.97-2.504v5.018c0 .354.192.68.502.852l1.733.961a9.567 9.567 0 0 0 9.424-.081l6.954-4.015a1.363 1.363 0 0 0 0-2.361l-3-1.732a3.596 3.596 0 0 0-3.598 0l-.931.537-1.493.332-2.62 2.993z"/>
            <path fill="#649323" d="M179.126 285.905c0-.971.69-2.166 1.531-2.652.842-.485 1.532-.088 1.532.884 0 .973-.69 2.166-1.532 2.653-.841.485-1.53.088-1.53-.885"/>
            <path fill="#D1D3D4" d="M172.785 282.776c-1.882-1.087-1.882-2.865 0-3.952 1.882-1.086 4.962-1.086 6.844 0 1.882 1.087 1.882 2.865 0 3.952-1.882 1.086-4.962 1.086-6.844 0"/>
            <path fill="#F1F2F2" d="M175.792 282.704a4.266 4.266 0 0 1-4.266-4.267v-51.224a4.267 4.267 0 0 1 8.532 0v51.224a4.266 4.266 0 0 1-4.266 4.267"/>
            <path fill="#414042" d="M171.526 238.918v-11.525c0-2.337 1.8-4.373 4.136-4.444a4.266 4.266 0 0 1 4.397 4.265v22.274l-3.588-2.05a9.812 9.812 0 0 1-4.945-8.52"/>
            <path fill="#F1F2F2" d="M192.654 291.844a4.266 4.266 0 0 1-4.266-4.266v-51.225a4.266 4.266 0 0 1 8.532 0v51.225a4.266 4.266 0 0 1-4.266 4.266"/>
            <path fill="#E6E7E8" d="M192.654 232.088c-.26 0-.514.026-.762.07a4.265 4.265 0 0 1 3.505 4.196v51.224a4.263 4.263 0 0 1-3.505 4.193c.248.046.502.073.762.073a4.266 4.266 0 0 0 4.266-4.266v-51.224a4.266 4.266 0 0 0-4.266-4.266"/>
            <path fill="#F1F2F2" d="M171.526 222.377l-.49 13.57c0 1.716.916 3.299 2.401 4.158l15.615 9.014c2.977 1.72 6.7-.43 6.7-3.868v-27.543a4.8 4.8 0 0 0-2.4-4.157l-15.614-9.015c-2.979-1.719-6.212 14.402-6.212 17.84"/>
            <path fill="#414042" d="M195.752 240.672v-22.964c0-1.715-.915-3.3-2.4-4.158l-15.614-9.014c-2.56-1.477-5.303 10.202-6.027 15.707l-.17 1.686a8.06 8.06 0 0 0-.015.448l-.252 6.998c.73 2.016 2.436 3.768 4.147 4.917 2.528 1.696 5.515 2.538 8.451 3.343 2.935.805 5.926 1.623 8.48 3.279 1.461.948 2.616.641 3.4-.242"/>
            <path fill="#80B537" d="M171.037 195.279l1.186 18.449-.848 8.395c-.163 1.616-.677 3.362-.35 4.933.495 2.38 2.442 4.477 4.397 5.787 2.526 1.696 5.515 2.54 8.45 3.343 2.934.806 5.927 1.623 8.48 3.28 2.865 1.858 4.564-1.095 4.564-3.787v-12.447l1.219-17.752a5.264 5.264 0 0 0-2.633-4.558l-17.12-9.884c-3.263-1.885-7.345.472-7.345 4.241"/>
            <path fill="#649323" d="M195.503 200.922l-2.623-1.514c-2.07-1.194-4.65.35-4.561 2.74.14 3.833.473 8.796 1.25 11.771l.43 1.648c.729 2.792.67 5.729-.16 8.492-.669 2.231-1.417 4.509-1.504 6.399-.091 1.953-.375 4.063-.194 5.961.036.373.086.74.147 1.1 1.422.51 2.797 1.126 4.064 1.947 2.865 1.858 4.563-1.095 4.563-3.787v-12.447l1.22-17.752a5.263 5.263 0 0 0-2.632-4.558"/>
            <path fill="#FFC107" d="M184.586 200.478a2.438 2.438 0 0 1-2.438-2.437v-9.585a2.438 2.438 0 0 1 4.875 0v9.585a2.437 2.437 0 0 1-2.437 2.437M198.512 240.733a2.437 2.437 0 0 1-1.97-3.87l3.204-4.409c3.565-4.904 3.317-13.386-.52-17.796l-5.33-6.13a2.438 2.438 0 1 1 3.677-3.2l5.333 6.13c5.353 6.154 5.713 17.082.783 23.863l-3.204 4.407a2.43 2.43 0 0 1-1.973 1.005"/>
            <path fill="#4E7617" d="M197.077 205.37a2.845 2.845 0 1 0-5.06 2.603l5.215 10.131c.01.019.022.034.032.052l.753-10.962-.94-1.825z"/>
            <path fill="#80B537" d="M202.088 217.36a2.826 2.826 0 0 1-1.68-.874l-7.78-8.323a2.845 2.845 0 1 1 4.157-3.886l7.781 8.322a2.846 2.846 0 0 1-2.478 4.76"/>
            <path fill="#FFC107" d="M200.763 239.801a3.695 3.695 0 1 1-7.39-.001 3.695 3.695 0 0 1 7.39.001M186.134 195.5h-3.744v-16.237h12.022v7.961a8.277 8.277 0 0 1-8.278 8.277"/>
            <g transform="translate(179.869 175.688)">
                <mask id="Q" fill="#fff">
                    <use xlink:href="#P"/>
                </mask>
                <path fill="#1E327A" d="M11.313.258H7.246A7.056 7.056 0 0 0 .19 7.315v8.8c0 1.056.857 1.913 1.913 1.913h3.856a5.356 5.356 0 0 0 5.355-5.356V7.315a5.555 5.555 0 0 0 5.327-4.143l.767-2.914h-6.094z" mask="url(#Q)"/>
            </g>
            <path fill="#FFC107" d="M193.352 187.381a1.765 1.765 0 1 1-3.53 0 1.765 1.765 0 0 1 3.53 0"/>
        </g>
        <g>
            <g transform="translate(45 183.598)">
                <mask id="T" fill="#fff">
                    <use xlink:href="#R"/>
                </mask>
                <path fill="url(#S)" d="M24.135 1.147L1.428 14.182c-1.81 1.038-1.822 2.76-.028 3.825l15.441 9.167c1.794 1.065 4.742 1.083 6.55.04l22.717-13.116c1.807-1.043 1.815-2.764.016-3.823l-15.428-9.09c-.91-.537-2.118-.807-3.322-.807-1.174 0-2.345.256-3.239.769" mask="url(#T)"/>
            </g>
            <path fill="#8DC63F" d="M75.697 183.468c-1.799-1.06-4.752-1.076-6.562-.037L46.43 196.465c-1.811 1.039-1.823 2.76-.028 3.826l15.44 9.166c1.795 1.066 4.743 1.084 6.55.04l22.716-13.115c1.809-1.044 1.816-2.765.017-3.824l-15.427-9.09z"/>
            <path fill="#FFF" d="M89.193 193.536L64.54 208.082l-.77-.46L88.421 193.1zM86.534 192.103L61.88 206.65l-.77-.46 24.65-14.522zM83.994 190.597L59.34 205.143l-.77-.46 24.652-14.521zM81.417 189.127l-24.653 14.547-.77-.46 24.65-14.522zM78.84 187.629l-24.654 14.547-.77-.46 24.652-14.522zM76.263 186.16L51.61 200.705l-.77-.46 24.65-14.522zM73.6 185.272l-12.385 7.323-.751-.448 12.385-7.3z"/>
            <g transform="translate(81 161.598)">
                <mask id="W" fill="#fff">
                    <use xlink:href="#U"/>
                </mask>
                <path fill="url(#V)" d="M24.542 1.485L1.835 14.519C.024 15.558.013 17.28 1.807 18.345l15.441 9.167c1.794 1.064 4.742 1.082 6.55.039l22.716-13.115c1.808-1.043 1.816-2.764.017-3.823L31.103 1.522c-.91-.536-2.117-.806-3.322-.806-1.174 0-2.345.256-3.239.769" mask="url(#W)"/>
            </g>
            <g>
                <path fill="#8DC63F" d="M112.103 161.806c-1.798-1.06-4.75-1.076-6.56-.037l-22.708 13.034c-1.81 1.039-1.823 2.76-.028 3.826l15.441 9.166c1.794 1.066 4.742 1.084 6.55.04l22.716-13.115c1.808-1.044 1.816-2.765.017-3.824l-15.428-9.09z"/>
                <path fill="#FFF" d="M125.11 172.246l-24.023 14.174-.75-.448 24.02-14.149zM122.517 170.85l-24.02 14.175-.752-.45 24.02-14.148zM120.043 169.382L96.02 183.557l-.75-.449 24.019-14.149zM117.53 167.95l-24.02 14.174-.751-.448 24.02-14.15zM115.02 166.491L91 180.665l-.752-.448 24.02-14.15zM112.51 165.059l-24.023 14.175-.75-.448 24.02-14.15zM110.007 163.61l-12.386 7.323-.75-.448 12.384-7.3z"/>
            </g>
            <g transform="translate(22 210.598)">
                <mask id="Z" fill="#fff">
                    <use xlink:href="#X"/>
                </mask>
                <path fill="url(#Y)" d="M14.987 1.236l-.564.266L.101 1.416l.055 6.567c0 .592.313 1.139.825 1.438L13.618 16.8c1.055.61 2.783.61 3.839 0l12.955-7.377c.351-.2.567-.572.565-.976l-.003-1.205c0-.055-.011-.107-.019-.159l-.118-5.481-11.514-.07-.491-.287C18.301.938 17.6.784 16.899.784c-.693 0-1.385.151-1.912.452" mask="url(#Z)"/>
            </g>
            <g>
                <path fill="#8DC63F" d="M39.457 203.825c-1.056-.609-2.786-.613-3.844-.008l-12.662 7.237c-1.058.604-1.06 1.598-.005 2.208l12.672 7.316c1.055.61 2.783.61 3.84 0l12.587-7.268c1.056-.61 1.056-1.607 0-2.216l-12.588-7.269z"/>
                <path fill="#FFC107" d="M37.172 216.23l-1.754-2.56a.31.31 0 0 0-.183-.11l-4.093-.933c-.201-.047-.276-.211-.127-.28l3.036-1.387c.059-.028.087-.075.076-.126l-.611-2.633c-.031-.13.184-.196.363-.113l3.63 1.704a.39.39 0 0 0 .229.032l3.716-.693c.183-.034.39.09.352.21l-.793 2.44c-.015.049.01.102.066.145l2.908 2.206c.143.109.057.25-.146.242l-4.12-.196c-.08-.004-.151.019-.188.059l-1.92 2.055c-.094.1-.355.065-.441-.061"/>
            </g>
        </g>
        <g>
            <g transform="translate(-6 248.075)">
                <mask id="ab" fill="#fff">
                    <use xlink:href="#aa"/>
                </mask>
                <path d="M6.047 3.684c8.062-4.656 21.254-4.656 29.316 0 8.062 4.654 8.062 12.271 0 16.925-8.062 4.655-21.254 4.655-29.316 0-8.062-4.654-8.062-12.271 0-16.925" mask="url(#ab)"/>
            </g>
            <path fill="#649323" d="M24.197 256.45c-.774 2.37-5.04 3.708-8.875 2.857-2.914-.645-4.688-2.459-4.111-4.224.775-2.37 5.041-3.708 8.876-2.858 2.913.646 4.688 2.46 4.11 4.225zm10.538-3.266c-.001-.424-.6-.769-1.34-.769l-2.858.002c-.474 0-1.257.498-1.376.348-.196-.248-.126-.539.209-.73l2.021-1.165c.523-.3-2.8-.16-3.323-.462l.027-2.52c-.523-.302-1.37-.302-1.893 0l-2.036 1.171c-.321.185-.802.238-1.219.135a43.777 43.777 0 0 0-.875-.205c-.424-.095-.7-.33-.7-.592v-1.66c0-.427-.599-.77-1.339-.77h-4.658c-.739 0-1.339.343-1.339.77v1.645c0 .271-.305.505-.748.601-.28.061-.556.127-.827.198-.431.115-.935.075-1.271-.118l-2.029-1.16c-.524-.3-1.372-.299-1.893.003l-.24 2.742c-.522.302-3.563-.052-3.039.248l2.044 1.17c.322.183.414.46.237.7-.124.167-.926-.326-1.38-.326l-2.888.004c-.74.001-1.338.348-1.336.773l.011 3.914c.003.425.603.77 1.343.768l1.677-.003-.041 3.233a.452.452 0 0 0-.002.168c.03.171.153.338.381.467l3.301 1.892c.32.184.759.241 1.173.2l.023.011v-.015c.254-.028.5-.085.697-.198l2.033-1.175c.32-.184.802-.238 1.219-.135.29.071.604.143.875.204.424.094.701.33.701.59l.005 1.662c.001.425.602.77 1.341.77l4.658-.005c.74 0 1.338-.346 1.336-.772l-.004-1.645c-.001-.272.305-.507.747-.602.267-.058.531-.12.789-.19.431-.113.936-.072 1.271.12l2.025 1.161c.196.114.441.17.694.198v.022l.035-.018c.412.04.847-.019 1.164-.202l3.289-1.898c.217-.125.338-.282.375-.444l.015-.008-.001-.076-.001-.035-.041-3.306h1.647c.739 0 1.338-.346 1.338-.772l-.004-3.914z"/>
            <path fill="#649323" d="M31.797 248.73l-.014-2.103h-3.016l-.671-.385c-.523-.3-1.371-.3-1.893 0l-.67.385h-4.161v-1.535c0-.425-.6-.77-1.34-.77h-4.656c-.74 0-1.34.345-1.34.77v1.535h-4.23l-.644-.37c-.524-.298-1.372-.297-1.893.005l-.633.365H3.599v2.057c-.01.205.118.412.39.567l2.044 1.169 23.338-.03 2.02-1.164c.24-.138.364-.315.385-.496h.02z"/>
            <path fill="#8DC63F" d="M11.211 251.382c.775-2.37 5.041-3.708 8.875-2.857 2.914.645 4.688 2.46 4.111 4.225-.775 2.369-5.04 3.707-8.876 2.858-2.913-.647-4.687-2.46-4.11-4.226m18.538 2.789l3.652-.002c.74-.001 1.338-.346 1.337-.771l-.004-2.68c0-.426-.6-.771-1.339-.77h-2.858c-.474 0-.88-.174-1.048-.43-.1-.153-.21-.304-.328-.453-.197-.248-.126-.538.21-.732l2.02-1.163c.523-.302.523-.79 0-1.09l-3.296-1.894c-.523-.301-1.37-.301-1.893 0l-2.036 1.173c-.32.184-.802.237-1.219.134-.29-.071-.605-.143-.875-.205-.424-.094-.7-.33-.7-.591v-1.662c0-.424-.599-.77-1.339-.77h-4.658c-.739 0-1.339.346-1.339.77v1.646c0 .27-.305.505-.748.6-.28.062-.556.128-.827.2-.43.114-.936.074-1.27-.12l-2.03-1.16c-.524-.298-1.372-.298-1.893.004l-3.284 1.902c-.522.3-.519.789.005 1.088l2.044 1.169c.322.185.413.46.237.702-.124.167-.249.347-.354.504-.164.244-.572.403-1.026.404l-2.888.004c-.74 0-1.338.346-1.336.772l.011 2.68c.002.426.603.769 1.343.768l2.858-.003c.474-.001.881.174 1.048.429.101.154.211.305.33.454.197.247.127.538-.207.73l-2.018 1.167c-.522.302-.52.789.004 1.09l3.301 1.89c.523.3 1.371.3 1.893-.002l2.033-1.175c.32-.184.802-.237 1.22-.134.29.07.603.142.874.203.424.095.701.329.701.59l.005 1.663c.001.426.602.769 1.341.768l4.658-.004c.74-.001 1.338-.346 1.336-.771l-.004-1.646c0-.271.305-.505.747-.602.267-.058.53-.121.79-.19.43-.113.935-.072 1.27.12l2.024 1.163c.524.299 1.372.299 1.894-.002l3.29-1.898c.521-.301.52-.788-.003-1.09l-2.04-1.17c-.32-.184-.412-.46-.234-.701.297-.401.602-.878.618-.906"/>
            <path fill="#BF9105" d="M123.94 264.488c-.62 1.896-4.034 2.968-7.104 2.287-2.332-.516-3.752-1.969-3.29-3.382.62-1.896 4.035-2.967 7.104-2.287 2.332.517 3.753 1.97 3.29 3.382zm8.436-2.614c-.001-.34-.482-.616-1.074-.616l-2.287.001c-.38 0-1.007.4-1.101.28-.158-.199-.101-.432.168-.586l1.617-.932c.418-.24-2.241-.129-2.66-.369l.022-2.018c-.42-.242-1.098-.242-1.516 0l-1.63.938c-.256.147-.642.19-.975.107a44.037 44.037 0 0 0-.7-.164c-.34-.076-.561-.263-.561-.473v-1.329c0-.34-.48-.618-1.072-.618h-3.728c-.592 0-1.072.277-1.072.618v1.316c0 .218-.244.404-.598.481-.225.05-.446.102-.664.16-.343.09-.748.06-1.016-.095l-1.624-.929c-.42-.24-1.098-.239-1.515.002l-.193 2.195c-.417.242-2.852-.042-2.432.2l1.636.934c.258.148.33.37.189.562-.098.134-.74-.26-1.104-.26l-2.312.002c-.591.001-1.07.278-1.07.62l.01 3.132c.002.34.482.615 1.075.614l1.342-.002-.032 2.588a.355.355 0 0 0-.002.134c.024.137.122.27.304.375l2.643 1.514c.257.147.607.193.939.16l.018.01v-.013c.203-.023.4-.068.558-.158l1.627-.94c.256-.149.642-.19.976-.109.232.056.483.114.7.162.34.076.562.264.562.474l.004 1.33c0 .34.48.616 1.073.615l3.728-.003c.592 0 1.072-.277 1.07-.618l-.003-1.317c-.001-.217.244-.405.598-.482.213-.047.424-.097.63-.15.346-.092.75-.06 1.019.094l1.62.93c.157.09.354.136.556.158v.018l.028-.015c.33.031.678-.016.932-.162l2.632-1.519c.174-.099.27-.225.3-.356l.012-.006v-.06l-.001-.029-.033-2.645h1.318c.592 0 1.07-.278 1.07-.618l-.001-3.133z"/>
            <path fill="#BF9105" d="M130.023 258.309l-.011-1.684h-2.415l-.536-.308c-.42-.24-1.098-.24-1.516 0l-.535.308h-3.331v-1.228c0-.341-.48-.617-1.072-.617h-3.728c-.592 0-1.072.276-1.072.617v1.228h-3.386l-.516-.295c-.42-.24-1.098-.24-1.515.002l-.507.293h-2.43v1.647c-.01.164.093.329.312.454l1.636.936 18.68-.025 1.618-.932c.19-.11.29-.252.307-.396h.017z"/>
            <path fill="#FFC107" d="M113.546 260.43c.62-1.895 4.034-2.967 7.104-2.286 2.332.517 3.752 1.969 3.29 3.382-.62 1.897-4.035 2.967-7.104 2.288-2.332-.518-3.753-1.97-3.29-3.383m14.838 2.232l2.923-.001c.592-.001 1.071-.276 1.071-.617l-.003-2.145c0-.341-.48-.616-1.073-.616h-2.287c-.379 0-.705-.14-.839-.344a4.624 4.624 0 0 0-.263-.363c-.157-.2-.1-.431.168-.585l1.617-.932c.418-.241.418-.632 0-.872l-2.637-1.517c-.419-.241-1.098-.24-1.516 0l-1.63.939c-.257.148-.642.19-.975.108a37.036 37.036 0 0 0-.7-.164c-.34-.076-.56-.265-.56-.474v-1.33c0-.34-.48-.616-1.073-.616h-3.728c-.593 0-1.072.276-1.072.616v1.318c0 .217-.244.404-.599.48-.225.049-.445.103-.663.16-.344.09-.748.059-1.017-.094l-1.624-.93c-.419-.24-1.097-.238-1.514.003l-2.629 1.52c-.418.243-.416.633.004.873l1.635.936c.258.147.332.369.19.56-.099.135-.199.28-.283.405-.13.195-.457.322-.822.323l-2.31.003c-.593 0-1.07.278-1.07.618l.01 2.146c0 .34.481.616 1.074.615l2.288-.004c.38 0 .705.14.84.345.08.122.167.243.262.363.158.198.102.43-.166.585l-1.615.934c-.417.24-.416.63.003.872l2.642 1.513c.42.24 1.098.24 1.515-.002l1.628-.94c.256-.148.642-.191.976-.11.232.058.483.116.7.165.34.075.561.263.561.473l.004 1.329c.001.34.482.617 1.073.617l3.73-.004c.591 0 1.07-.278 1.07-.618l-.005-1.317c0-.218.245-.405.598-.482.214-.046.425-.097.632-.152.345-.091.75-.057 1.017.096l1.621.93c.42.24 1.097.24 1.515 0l2.633-1.52c.418-.24.418-.631 0-.871l-1.634-.937c-.257-.148-.33-.37-.187-.562.237-.32.481-.703.494-.726"/>
            <path fill="#649323" d="M93.4 215.514c-.894-.517-2.357-.517-3.252 0l-47.221 26.548a.58.58 0 0 0-.295.505v.896c0 .376.202.724.527.91l30.42 17.545c.896.517 2.359.515 3.252-.004l46.602-27.028c.486-.281.782-.802.78-1.362l-.004-.686L93.4 215.514z"/>
            <g transform="translate(42 213.075)">
                <mask id="ae" fill="#fff">
                    <use xlink:href="#ad"/>
                </mask>
                <path fill="#F9F9F9" d="M51.4 1.312c-.894-.517-2.357-.517-3.252 0L1.303 28.357c-.894.517-.894 1.361 0 1.878l30.277 17.48c.895.517 2.358.515 3.25-.004l46.718-27.113c.894-.518.893-1.365-.001-1.882L51.4 1.312z" mask="url(#ae)"/>
            </g>
            <path fill="#8DC63F" d="M88.243 218.343l19.314 11.15-2.773 1.602-19.223-11.114zM83.248 221.25l28.521 16.381-1.436.829-28.473-16.362zM78.169 224.127l28.52 16.381-1.436.829-28.472-16.361zM73.089 227.004l28.52 16.382-1.436.828L71.7 227.853zM68.008 229.882l28.521 16.38-1.436.83L66.62 230.73zM62.928 232.759l28.52 16.38-1.435.83-28.473-16.361zM57.848 235.636l28.52 16.382-1.435.828-28.473-16.361zM52.768 238.514l15.002 8.604-1.436.83-14.954-8.586z"/>
        </g>
        <g>
            <g transform="translate(302.047 276.878)">
                <mask id="ag" fill="#fff">
                    <use xlink:href="#af"/>
                </mask>
                <path fill="#4E7617" d="M6.634.959l6.2 1.66 3.523 2.223c.413.261.663.714.663 1.203v6.85l-1.89 1.093a2.307 2.307 0 0 1-2.31 0L2.088 7.791A2.675 2.675 0 0 1 .75 5.474C.75 2.402 3.665.164 6.634.959" mask="url(#ag)"/>
            </g>
            <g transform="translate(302.047 280.69)">
                <mask id="ai" fill="#fff">
                    <use xlink:href="#ah"/>
                </mask>
                <path fill="#FFF" d="M12.82 8.39L2.088 2.193A2.674 2.674 0 0 1 .865.64a4.71 4.71 0 0 0-.115 1.02c0 .956.51 1.84 1.337 2.317l10.734 6.197a2.307 2.307 0 0 0 2.308 0l1.891-1.092V7.298L15.13 8.39a2.307 2.307 0 0 1-2.31 0" mask="url(#ai)"/>
            </g>
            <path fill="#FFF" d="M318.404 281.72l-3.524-2.223-2.34-.626v4.247c0 1.408 1.396 2.55 3.119 2.55 1.723 0 3.12-1.142 3.12-2.55v-1.035a1.405 1.405 0 0 0-.375-.363"/>
            <path fill="#4E7617" d="M317.782 269.169l6.2 1.66 3.523 2.222c.414.261.663.715.663 1.204v6.85l-1.89 1.092a2.305 2.305 0 0 1-2.308 0l-10.734-6.196a2.677 2.677 0 0 1-1.338-2.317c0-3.073 2.916-5.31 5.884-4.515"/>
            <path fill="#FFF" d="M323.97 280.413l-10.734-6.197a2.666 2.666 0 0 1-1.222-1.552 4.703 4.703 0 0 0-.115 1.02c0 .956.51 1.838 1.337 2.317l10.734 6.196a2.305 2.305 0 0 0 2.308 0l1.89-1.091v-1.785l-1.89 1.092a2.305 2.305 0 0 1-2.308 0M327.505 273.051l-3.524-2.221-2.34-.627v4.247c0 1.408 1.397 2.55 3.12 2.55s3.12-1.142 3.12-2.55v-1.036a1.423 1.423 0 0 0-.376-.363"/>
            <path fill="#FFC107" d="M315.732 284.782a2.306 2.306 0 0 1-2.306-2.306v-28.462a2.306 2.306 0 1 1 4.611 0v28.462a2.306 2.306 0 0 1-2.305 2.306M324.714 276.046a2.306 2.306 0 0 1-2.306-2.306v-25.777a2.306 2.306 0 1 1 4.611 0v25.777a2.306 2.306 0 0 1-2.305 2.306"/>
            <path fill="#BF9105" d="M312.9 203.353a14.236 14.236 0 0 1-11.598-5.9l-1.294-1.78a2.305 2.305 0 1 1 3.729-2.71l1.293 1.779a9.655 9.655 0 0 0 7.538 3.995 9.657 9.657 0 0 0 7.785-3.493l5.183-6.225a2.304 2.304 0 1 1 3.543 2.95l-5.184 6.225a14.226 14.226 0 0 1-10.996 5.16"/>
            <path fill="#F1F2F2" d="M315.497 187.98l5.15-3.287c3.726-2.377 8.574.488 8.291 4.898l-1.535 23.77-.096 6.94-12.68 4.803-.704-3.96-.738-16.674-2.642-3.432 2.152-7.667a6.075 6.075 0 0 1 2.802-5.391"/>
            <path fill="#E6E7E8" d="M316.351 221.144l-.678-15.35a4.193 4.193 0 0 0-.867-2.374l-.536-.696a4.245 4.245 0 0 1-.724-3.736l1.578-5.618a6.073 6.073 0 0 1 2.801-5.39l5.153-3.287a5.435 5.435 0 0 1 1.682-.704 5.297 5.297 0 0 0-4.112.704l-5.15 3.287a6.075 6.075 0 0 0-2.804 5.39l-2.152 7.667 2.643 3.432.738 16.675.704 3.96 2.276-.862-.552-3.098z"/>
            <path fill="#231F20" d="M315.732 251.708a2.305 2.305 0 0 0-2.305 2.306v5.395c1.498.193 3.433-.185 4.61-.612v-4.783a2.306 2.306 0 0 0-2.305-2.306M327.02 252.118v-4.155a2.306 2.306 0 1 0-4.612 0v7.398a26.963 26.963 0 0 1 4.611-3.243"/>
            <path fill="#F1F2F2" d="M313.923 222.585c-1.104.476-1.933 7.854-2.024 8.859-.431 4.758-.024 11.409-.223 16.181-.1 2.382-1.138 6.948-.264 9.131.764 1.904 4.938 1.248 6.792.522 1.267-.495 2.22-1.54 3.201-2.485a27.06 27.06 0 0 1 7.267-4.991c1.138-.532 1.853-1.317 2.825-2.023.158-3.238.41-6.48.62-9.719.3-4.648-.436-9.298-2.146-13.615a31.799 31.799 0 0 1-1.328-4.101l-.913-3.715-13.807 5.956"/>
            <path fill="#E6E7E8" d="M314.328 256.27c-.875-2.182.163-6.749.262-9.13.198-4.773-.208-11.424.224-16.182.09-1.004.92-8.384 2.023-8.86.011-.003 7.042-3.036 11.064-4.77l-.17-.698-13.808 5.955c-1.104.475-1.933 7.855-2.025 8.86-.43 4.756-.023 11.408-.223 16.18-.1 2.382-1.138 6.949-.263 9.131.68 1.697 4.065 1.36 6.108.753-1.452.052-2.792-.24-3.192-1.239"/>
            <path fill="#649323" d="M313.923 219.127v3.458c3.587.374 12.303-2.836 13.807-5.955l-.326-3.27c-2.21 4.252-11.72 6.558-13.481 5.767"/>
            <path fill="#FFC107" d="M305.33 203.353a14.228 14.228 0 0 1-10.997-5.16l-5.183-6.224a2.305 2.305 0 0 1 3.543-2.95l5.184 6.225c1.93 2.319 4.767 3.583 7.784 3.493a9.655 9.655 0 0 0 7.538-3.995l1.293-1.779a2.305 2.305 0 0 1 3.729 2.71l-1.293 1.78a14.237 14.237 0 0 1-11.598 5.9M321.08 191.644a2.305 2.305 0 0 1-2.304-2.305v-7.734a2.305 2.305 0 1 1 4.61 0v7.734a2.305 2.305 0 0 1-2.305 2.305"/>
            <path fill="#FFC107" d="M318.815 186.993h3.095v-14.426h-10.679v6.84a7.584 7.584 0 0 0 7.584 7.586"/>
            <path fill="#3C3C41" d="M333.188 197.912c-.306-.845-.886-1.569-1.208-2.407-.833-2.17.255-4.488-.32-6.67-.578-2.194-1.962-4.068-2.78-6.167-.915-2.35-1.665-4.789-2.503-7.17-.858-2.437-2.445-4.285-4.996-4.945-2.453-.635-5.999-.665-8.48-.381-.332.037-.859.082-1.19.076-.975-.018-1.545.847-1.458 1.376.246 1.489 2.868 2.532 3.434 3.83.688 1.583-.1 3.239.222 4.845.404 2.017 1.554 3.813 1.902 5.841.39 2.28-1.22 4.187-.745 6.343.299 1.356 1.09 2.53 1.42 3.868.414 1.68-.13 2.982-.626 4.58-.377 1.22-.169 2.836 1.333 3.032 1.787.232 2.284-2.178 4.005-2.228 1.739-.05 2.941 2.523 4.814 1.686.772-.345 1.214-1.23 1.934-1.711.846-.566 1.722-.613 2.693-.821 1.694-.363 3.304-.89 2.55-2.977"/>
            <path fill="#649323" d="M333.188 197.912c-.306-.845-.886-1.569-1.208-2.407-.833-2.17.255-4.488-.32-6.67-.578-2.194-1.962-4.068-2.78-6.167-.915-2.35-1.665-4.789-2.503-7.17-.858-2.437-2.445-4.285-4.996-4.945-1.713-.442-3.952-.587-5.996-.54 1.606.038 3.228.2 4.539.54 2.55.66 4.137 2.508 4.995 4.946.839 2.38 1.588 4.819 2.504 7.169.818 2.099 2.202 3.973 2.78 6.167.575 2.182-.513 4.5.32 6.67.322.838.901 1.562 1.208 2.407.755 2.087-.857 2.614-2.55 2.977-.972.208-1.848.255-2.692.82-.72.483-1.162 1.367-1.935 1.712l-.03.012c.46.183.945.231 1.488-.012.772-.345 1.214-1.23 1.934-1.711.846-.566 1.722-.613 2.693-.821 1.694-.363 3.304-.89 2.55-2.977"/>
            <path fill="#FFC107" d="M293.225 189.338a2.738 2.738 0 1 1-5.477 0 2.738 2.738 0 0 1 5.477 0"/>
        </g>
        <g>
            <path fill="url(#d)" d="M22.195 43.456l-.632.529h-5.526l-.601-.552a8.599 8.599 0 0 1-2.774-6.324v-2.404h12.614v2.158a8.594 8.594 0 0 1-3.081 6.593" transform="translate(215 176)"/>
            <path fill="#649323" d="M234.895 221.673h-2.306a1.713 1.713 0 0 1-1.712-1.712v-.122h5.73v.122c0 .945-.767 1.712-1.712 1.712"/>
            <path fill="#2842A2" d="M238.405 208.141c-2.449-1.414-6.457-1.414-8.906 0-2.449 1.414-2.449 3.728 0 5.142 2.449 1.414 6.457 1.414 8.906 0 2.449-1.414 2.449-3.728 0-5.142"/>
            <path fill="#FFC107" d="M233.971 187.04c-6.369 0-11.532 5.162-11.532 11.53 0 4.04 2.082 7.59 5.227 9.65v2.608c.035.896.701 1.802 1.877 2.482 2.43 1.4 6.45 1.384 8.877-.018 1.177-.68 1.78-1.568 1.815-2.464h.04v-2.608c3.145-2.06 5.227-5.61 5.227-9.65 0-6.368-5.163-11.53-11.53-11.53"/>
            <path fill="#FFF" d="M227.523 199.829a7.54 7.54 0 0 1 7.54-7.541c3.856 0 3.558-3.215-1.356-3.215a8.9 8.9 0 0 0-8.899 8.899c0 3.117 2.715 4.499 2.715 1.857"/>
            <path fill="#F1F2F2" d="M238.42 214.3c-2.428 1.401-6.447 1.418-8.876.016-1.177-.68-1.842-1.586-1.877-2.482v.864c.035.896.7 1.802 1.877 2.482 2.429 1.402 6.448 1.386 8.877-.017 1.177-.679 1.778-1.569 1.814-2.465h.04v-.864h-.04c-.036.896-.637 1.785-1.814 2.465"/>
            <path fill="#F1F2F2" d="M238.386 216.808c-2.428 1.402-6.448 1.42-8.876.017-.692-.4-1.2-.878-1.516-1.386.16.558.371 1.098.64 1.614.25.227.54.442.876.636 2.428 1.402 6.448 1.386 8.876-.017.274-.158.515-.329.727-.508a8.646 8.646 0 0 0 .77-1.764c-.294.515-.789 1-1.497 1.408"/>
            <g transform="translate(232 176.673)">
                <mask id="ak" fill="#fff">
                    <use xlink:href="#aj"/>
                </mask>
                <path fill="#FFC107" d="M1.93 9.411h-.005a.94.94 0 0 1-.934-.944l.034-7.204a.94.94 0 0 1 .94-.936h.004a.94.94 0 0 1 .936.944L2.87 8.475a.94.94 0 0 1-.939.936" mask="url(#ak)"/>
            </g>
            <path fill="#FFC107" d="M240.817 187.914a.938.938 0 0 1-.81-1.414l3.638-6.218a.94.94 0 0 1 1.622.949l-3.638 6.218a.939.939 0 0 1-.812.465"/>
            <g transform="translate(244 186.673)">
                <mask id="am" fill="#fff">
                    <use xlink:href="#al"/>
                </mask>
                <path fill="#FFC107" d="M1.863 6.276a.939.939 0 0 1-.465-1.757L7.662.961a.939.939 0 1 1 .929 1.633l-6.264 3.56a.946.946 0 0 1-.464.122" mask="url(#am)"/>
            </g>
            <path fill="#FFC107" d="M222.122 192.856a.927.927 0 0 1-.481-.133l-6.183-3.698a.94.94 0 0 1 .965-1.613l6.182 3.698a.94.94 0 0 1-.483 1.746M227.207 187.861a.94.94 0 0 1-.822-.483l-3.5-6.298a.94.94 0 1 1 1.643-.912l3.499 6.297a.94.94 0 0 1-.82 1.396"/>
        </g>
        <g>
            <path fill="#231F20" d="M423.11 177.135c0-1.562-1.106-3.48-2.46-4.26l-11.096-6.398c-1.25-.721-2.613-.581-3.83.134a1.148 1.148 0 0 0-.33.203l-.01.006-.004.007c-.327.294-.524.785-.524 1.44v20.945l18.254 10.539v-22.616z" opacity=".048"/>
            <g transform="translate(403 167.445)">
                <mask id="ao" fill="#fff">
                    <use xlink:href="#an"/>
                </mask>
                <path fill="#4E7617" d="M.529 1.23l-.155.253c-.209.146-.287 1.075-.287 1.33v32.541c0 1.562 1.056 3.566 2.409 4.348l12.165 7.021c.191.11.927.311 1.136.238l1.583-.555c.524-.184.875-.678.875-1.234V11.546c0-1.562-1.108-3.478-2.461-4.259L4.699.888a3.467 3.467 0 0 0-1.754-.48c-.831 0-1.659.298-2.416.822" mask="url(#ao)"/>
            </g>
            <path fill="#F9F9F9" d="M405.46 168.704c-1.354-.781-2.46-.143-2.46 1.42v32.849c0 1.56 1.106 3.478 2.46 4.259l11.914 6.879c1.353.78 2.46.143 2.46-1.42v-32.848c0-1.562-1.107-3.48-2.46-4.26l-11.915-6.88z"/>
            <path fill="#FFC107" d="M404.376 174.07v26.546l14.081 8.13V182.2z"/>
            <path fill="#649323" d="M413.282 176.386a.283.283 0 0 1-.142-.038l-3.73-2.153a.285.285 0 0 1 .284-.493l3.73 2.155a.283.283 0 0 1-.142.529"/>
            <path fill="#E6E7E8" d="M411.417 205.778c-.816-.482-1.484-.097-1.484.856 0 .954.668 2.12 1.484 2.59.815.471 1.483.085 1.483-.857 0-.943-.668-2.108-1.483-2.589"/>
            <path fill="#FFF" d="M411.123 187.306c-2.324-1.342-4.226-.244-4.226 2.44 0 2.683 1.902 5.977 4.226 7.32 2.324 1.341 4.226.242 4.226-2.442 0-2.683-1.902-5.976-4.226-7.318"/>
            <path fill="#649323" d="M409.689 194.774l-.002-4.087-.84-.486 1.914-1.219 1.905 3.4-.905-.507-.007 4.091z"/>
        </g>
    </g>
</svg>
