<svg xmlns="http://www.w3.org/2000/svg" xmlns:xlink="http://www.w3.org/1999/xlink" width="458" height="279" viewBox="0 0 458 279">
    <defs>
        <path id="a" d="M.238.354h88.429v108.573H.238z"/>
        <path id="c" d="M0 .002h75.667v97.295H0z"/>
        <path id="e" d="M0 .083h43.263v63.712H0z"/>
        <path id="g" d="M0 .135h43.263V38.58H0z"/>
        <path id="i" d="M0 .154h48.87v42.013H0z"/>
        <path id="k" d="M.15.074h43.264v38.445H.15z"/>
        <path id="m" d="M0 .13h8.306v18.825H0z"/>
        <path id="o" d="M.208.681H24.72V9.97H.21z"/>
        <path id="q" d="M.174.349h16.149v13.153H.174z"/>
        <path id="s" d="M0 .891h72.474V43H0z"/>
        <path id="u" d="M.755.891h42.718v24.7H.755z"/>
        <path id="w" d="M.909 2.346l33.137 19.131c1.206.697 3.18.697 4.385 0L71.569 2.346c.885-.511 1.115-1.261.7-1.899-.15.23-.38.448-.7.632L38.431 20.212c-1.205.696-3.179.696-4.385 0L.909 1.079A1.985 1.985 0 0 1 .202.432c-.412.647-.179 1.402.707 1.914"/>
        <linearGradient id="x" x1="0%" y1="50%" y2="50%">
            <stop offset="0%" stop-color="#D3DAED"/>
            <stop offset="100%" stop-color="#99A7D8"/>
        </linearGradient>
        <path id="z" d="M.227.207h3.47v71.978H.228z"/>
        <path id="B" d="M0 .891h72.473v42.108H0z"/>
        <path id="D" d="M.755.891h42.719v24.7H.755z"/>
        <path id="F" d="M.909 2.346l33.137 19.131c1.206.697 3.18.697 4.386 0L71.569 2.346c.886-.511 1.115-1.261.699-1.899-.149.23-.379.448-.699.632L38.432 20.212c-1.206.696-3.18.696-4.386 0L.909 1.079A1.998 1.998 0 0 1 .201.432c-.411.647-.178 1.402.708 1.914"/>
        <path id="H" d="M.556 1.692l9.224 5.38 1.854-1.071L2.363.648z"/>
        <path id="J" d="M.742 1.061l3.686 2.168 1.853-1.071L2.549.017z"/>
        <path id="L" d="M.393 2.036l3.685 2.168 1.855-1.07L2.2.992z"/>
        <path id="N" d="M.303 1.504l3.685 2.167 1.854-1.07L2.11.46z"/>
    </defs>
    <g fill="none" fill-rule="evenodd">
        <g transform="translate(368.81 126.322)">
            <mask id="b" fill="#fff">
                <use xlink:href="#a"/>
            </mask>
            <path fill="#649323" d="M88.644 69.146c-.004-.109-.012-.219-.015-.327-.009-.23-.022-.46-.032-.689-.014-.268-.021-.536-.038-.805-.014-.211-.035-.424-.051-.636a67.003 67.003 0 0 0-.057-.726c-.015-.157-.023-.313-.038-.472-.035-.354-.079-.711-.12-1.067-.021-.197-.04-.393-.065-.59-.008-.063-.013-.126-.02-.19-.081-.629-.17-1.261-.27-1.894-.004-.02-.008-.038-.01-.056-.017-.11-.039-.22-.057-.33a71.798 71.798 0 0 0-.263-1.523c-.02-.1-.043-.2-.061-.3-.05-.256-.104-.512-.156-.768-.061-.301-.117-.6-.184-.902-.038-.177-.083-.355-.124-.533a52.707 52.707 0 0 0-.194-.831c-.049-.205-.092-.41-.143-.615-.064-.262-.139-.526-.207-.788-.072-.275-.142-.551-.217-.827-.036-.13-.067-.261-.103-.392-.104-.377-.22-.752-.33-1.13-.067-.228-.131-.457-.2-.685l-.054-.185c-.2-.653-.41-1.306-.628-1.958-.004-.013-.01-.026-.013-.039-.029-.084-.06-.167-.088-.251a84.422 84.422 0 0 0-.572-1.641c-.035-.096-.073-.191-.108-.287-.08-.22-.165-.44-.248-.66-.113-.302-.223-.605-.34-.906-.08-.203-.164-.405-.245-.607a80.618 80.618 0 0 0-.29-.723c-.07-.17-.135-.341-.206-.51-.148-.356-.303-.71-.457-1.066-.08-.185-.156-.372-.238-.557l-.081-.189c-.271-.612-.55-1.225-.835-1.833-.012-.027-.027-.054-.039-.08-.085-.182-.175-.36-.261-.541-.22-.461-.44-.922-.668-1.38-.037-.074-.078-.147-.114-.22-.192-.382-.391-.76-.59-1.14-.157-.305-.31-.61-.47-.914-.03-.055-.064-.11-.093-.164a93.58 93.58 0 0 0-1.638-2.92c-.048-.081-.09-.166-.139-.247-.142-.242-.292-.478-.436-.717-.24-.402-.482-.802-.729-1.199a77.346 77.346 0 0 0-.651-1.027c-.25-.392-.502-.784-.759-1.172-.086-.13-.17-.264-.257-.396-.08-.118-.166-.231-.245-.35a90.035 90.035 0 0 0-2.15-3.061c-.07-.095-.144-.187-.216-.283a86.763 86.763 0 0 0-1.379-1.81c-.028-.035-.053-.072-.081-.106a81.343 81.343 0 0 0-1.106-1.367c-.11-.134-.217-.272-.327-.405l-.026-.031c-.481-.58-.969-1.15-1.462-1.712l-.064-.07c-.14-.159-.283-.313-.424-.47-.328-.366-.655-.735-.987-1.094-.055-.06-.113-.116-.168-.176-.211-.226-.426-.446-.638-.67-.247-.257-.491-.52-.74-.775l-.26-.256c-.233-.235-.468-.464-.704-.695-.21-.207-.417-.42-.629-.623-.112-.108-.229-.211-.341-.318-.256-.242-.513-.479-.77-.715-.184-.17-.366-.346-.55-.513-.138-.124-.28-.24-.417-.363a60.4 60.4 0 0 0-.776-.676c-.163-.14-.323-.288-.487-.425-.168-.142-.339-.275-.508-.415-.254-.21-.509-.42-.764-.625-.137-.109-.271-.225-.408-.333-.213-.167-.43-.326-.644-.49-.237-.183-.473-.366-.712-.543-.1-.075-.199-.155-.3-.23-.288-.212-.581-.413-.872-.62-.201-.142-.402-.289-.605-.429-.054-.038-.107-.078-.162-.115a55.848 55.848 0 0 0-1.6-1.058l-.011-.007-.086-.052c-.497-.314-.995-.621-1.496-.916l-.37-.216c-.401-.232-.8-.455-1.198-.67-.152-.083-.304-.156-.457-.237a44.053 44.053 0 0 0-.612-.317c-.158-.08-.316-.168-.473-.246-.259-.128-.515-.242-.772-.363-.18-.085-.36-.172-.538-.254-.072-.032-.145-.07-.217-.102a42.08 42.08 0 0 0-1.518-.643l-.067-.025a38.138 38.138 0 0 0-1.446-.544c-.07-.025-.138-.044-.208-.068-.184-.064-.366-.12-.548-.18-.252-.082-.506-.171-.756-.247-.133-.04-.263-.07-.395-.109a32.612 32.612 0 0 0-.664-.183c-.166-.044-.336-.096-.502-.138-.184-.046-.364-.08-.548-.122-.222-.05-.443-.102-.662-.147-.113-.023-.227-.054-.34-.075-.212-.042-.421-.069-.633-.106-.255-.043-.51-.088-.763-.125-.085-.013-.173-.03-.258-.043-.217-.029-.427-.041-.64-.065-.272-.03-.545-.062-.814-.082-.075-.006-.153-.02-.228-.025-.188-.012-.368-.008-.553-.017-.324-.015-.648-.03-.967-.033-.085 0-.175-.008-.261-.008-.357.001-.71.012-1.06.03l-.147.01c-.253.015-.507.03-.757.053-.17.016-.336.04-.504.06-.122.014-.244.026-.365.043-.444.06-.883.127-1.315.214-.016.003-.031.009-.047.011-.13.027-.254.062-.381.09-.351.08-.7.162-1.043.258-.174.049-.343.108-.515.162-.222.07-.447.131-.665.209-.057.02-.11.047-.167.068-.34.124-.67.264-1 .407-.161.07-.328.133-.487.208-.48.225-.953.468-1.41.734-.003 0-.005.002-.007.003L.239 16.75c.46-.267.933-.51 1.417-.737.158-.075.324-.137.485-.207.33-.143.662-.284 1.002-.408.272-.1.55-.19.83-.276.172-.054.342-.114.517-.163.342-.097.692-.179 1.042-.257.128-.028.252-.064.381-.09.447-.091.902-.164 1.362-.226.12-.016.244-.03.366-.043.415-.048.835-.088 1.26-.112.05-.003.098-.008.148-.01a23.13 23.13 0 0 1 2.287.01c.26.012.519.021.781.041.27.021.542.054.813.083.3.033.597.065.899.108.253.037.508.082.763.126.323.056.646.112.973.18.22.046.441.096.663.147a30.872 30.872 0 0 1 1.713.443c.381.111.764.23 1.15.356.183.06.366.117.55.18a39 39 0 0 1 1.645.609c.026.01.051.018.077.03.573.228 1.152.48 1.734.744.178.08.358.169.537.252a45.776 45.776 0 0 1 1.858.927c.55.29 1.1.587 1.654.906.626.362 1.248.741 1.866 1.133.028.017.058.034.087.053.595.379 1.185.774 1.773 1.18.203.14.404.286.606.43.392.277.783.558 1.17.848.238.178.476.36.713.543.352.27.702.544 1.051.824a64.066 64.066 0 0 1 2.535 2.141c.325.287.646.58.968.875.257.237.513.473.768.715.326.31.65.624.972.94.235.232.471.462.704.698.336.338.667.683.998 1.029.213.223.427.443.639.67.39.417.773.843 1.156 1.27.14.158.284.312.424.47.523.596 1.041 1.2 1.552 1.814.106.129.21.263.316.392.403.491.805.984 1.198 1.486.463.591.919 1.193 1.37 1.798.077.104.158.205.235.31a89.674 89.674 0 0 1 2.139 3.045c.168.249.338.497.503.747.256.387.508.779.758 1.17.22.342.439.684.653 1.03.245.396.486.794.726 1.194a92.861 92.861 0 0 1 2.214 3.886c.192.358.377.72.565 1.08.197.38.396.757.588 1.138.268.533.527 1.068.784 1.606.086.179.174.356.259.535.328.698.646 1.4.956 2.104l.238.557a91.508 91.508 0 0 1 .952 2.297c.201.504.396 1.01.585 1.515.084.22.168.439.248.66.236.64.462 1.284.68 1.927.03.084.06.167.087.251.244.727.475 1.454.696 2.183.07.227.133.456.2.684.149.508.296 1.016.433 1.523.075.275.146.55.217.824a73.634 73.634 0 0 1 .544 2.236c.108.48.21.958.308 1.436.052.255.106.51.156.766.117.61.225 1.219.324 1.827.018.108.04.218.057.327.113.717.213 1.43.301 2.14.024.197.043.391.065.587.059.516.112 1.03.157 1.543l.058.726c.035.482.064.962.087 1.44.012.23.025.46.032.689.025.678.041 1.354.039 2.025-.002.704-.02 1.394-.051 2.073-.01.194-.025.381-.036.573-.027.466-.058.927-.099 1.38-.024.264-.053.522-.08.78a39.58 39.58 0 0 1-.261 1.966 39.061 39.061 0 0 1-.36 1.929 32.36 32.36 0 0 1-1.1 3.918c-.09.252-.174.507-.268.752-.047.123-.096.243-.144.363-.166.413-.338.817-.52 1.21-.032.072-.062.145-.095.215-.23.488-.47.964-.724 1.423-.026.047-.055.09-.082.137-.23.41-.467.81-.716 1.195-.06.092-.123.18-.182.27a22.824 22.824 0 0 1-.916 1.274c-.212.273-.43.539-.654.798-.083.097-.165.198-.25.292-.306.342-.62.673-.944.988-.05.049-.104.093-.154.14-.279.266-.565.521-.857.766a18.44 18.44 0 0 1-1.103.854c-.11.079-.218.158-.329.234-.367.251-.74.493-1.123.716l23.81-13.838a18.23 18.23 0 0 0 1.125-.714c.11-.077.218-.157.328-.236.262-.187.52-.383.774-.585.11-.089.22-.177.329-.267.292-.247.579-.502.858-.768.05-.047.102-.091.152-.138.324-.316.638-.646.944-.988.085-.096.167-.196.252-.294a19.338 19.338 0 0 0 .929-1.159c.219-.295.431-.6.639-.911.06-.092.124-.18.183-.272.019-.029.04-.056.057-.085.227-.356.444-.726.655-1.103.028-.05.058-.094.085-.144.24-.435.47-.882.69-1.343.012-.026.022-.054.035-.08.033-.07.062-.142.094-.21.182-.396.355-.801.52-1.214.05-.121.098-.241.144-.363.037-.095.077-.186.112-.282.057-.152.102-.317.157-.471.137-.39.27-.785.395-1.19.034-.112.075-.216.109-.328.044-.15.078-.312.12-.464.095-.34.184-.684.27-1.033.035-.145.078-.283.112-.431.035-.154.061-.315.094-.47.064-.298.124-.6.181-.904.03-.16.068-.313.096-.474.031-.18.053-.37.082-.553.043-.271.085-.544.123-.82.02-.145.045-.283.064-.429.03-.233.048-.477.074-.714.028-.26.057-.519.081-.782.009-.108.024-.212.033-.32.029-.347.045-.704.065-1.059.011-.192.027-.38.036-.575.002-.048.007-.095.01-.143.024-.597.038-1.204.041-1.82v-.109c.002-.563-.005-1.129-.022-1.698" mask="url(#b)"/>
        </g>
        <g transform="translate(358 140.51)">
            <mask id="d" fill="#fff">
                <use xlink:href="#c"/>
            </mask>
            <path fill="#4E7617" d="M37.725 87.106C56.179 97.762 71.24 89.178 71.3 67.972c.06-21.201-14.903-47.12-33.359-57.774C19.488-.458 4.426 8.125 4.366 29.327c-.06 21.206 14.904 47.124 33.359 57.78m.232-81.932c20.862 12.046 37.778 41.35 37.71 65.317-.068 23.973-17.094 33.676-37.957 21.63C16.848 80.079-.068 50.779 0 26.807.07 2.84 17.095-6.869 37.957 5.176" mask="url(#d)"/>
        </g>
        <path fill="#649323" d="M395.276 190.84c1.35.778 2.445.15 2.45-1.397.004-1.547-1.085-3.431-2.435-4.21-1.345-.778-2.44-.153-2.445 1.393-.005 1.547 1.084 3.436 2.43 4.213m3.411-3.396c1.051 2.362.988 4.556-.44 5.37l-.156.089c-.783.449-1.722.334-2.66-.209-1.155-.666-2.311-1.979-3.183-3.682-3.524-6.89-9.715-20.763-12.554-26.905-.459-.996.049-1.395.611-1.07.16.092.323.242.47.453 4.389 6.29 12.314 17.135 16.627 23.719.142.215.279.426.412.632.346.534.637 1.072.873 1.603M394.356 224.11l2.899 1.675.043-14.98-2.9-1.675zM412.873 196.341l-.01 3.332 13.447 7.763.01-3.332zM365.5 172.327l14.793 8.54.01-3.33-14.793-8.54z"/>
        <path fill="#433930" d="M395.267 189.354c.652.377 1.18.07 1.182-.678.002-.743-.523-1.657-1.174-2.034-.651-.375-1.184-.072-1.186.671-.002.75.526 1.665 1.178 2.041"/>
        <path fill="#649323" d="M394.517 167.258l2.9 1.675.037-13.023-2.9-1.673z"/>
        <path fill="#FFF" d="M426.31 207.436l-13.446-7.764.008-3.33 13.448 7.762-.01 3.332m-9.917 19.572l-3.59-6.219 2.065-1.171 3.59 6.214-2.065 1.176m-17.706-39.565c1.05 2.362.988 4.556-.44 5.37l-.156.089c-.784.448-1.722.333-2.66-.209-1.155-.666-2.311-1.979-3.184-3.682-3.523-6.89-9.715-20.763-12.554-26.905-.458-.996.05-1.394.612-1.07.16.092.323.243.47.453 4.389 6.29 12.314 17.134 16.628 23.72l17.378-12.697-16.094 14.93m-1.432 38.343l-2.899-1.674.042-14.98 2.9 1.673-.043 14.98m-16.953-48.247l-.009 3.33-14.793-8.54.01-3.33 14.792 8.54m-5.076 25.703l-2.052-3.553 3.615-2.054 2.05 3.547-3.613 2.06m.147-52.03l3.59 6.22-2.064 1.176-3.59-6.223 2.064-1.173m19.181 3.027l2.9 1.673-.038 13.023-2.899-1.675.037-13.021m24.038 24.29l-3.614 2.064-2.05-3.552 3.613-2.06 2.051 3.548m8.493 42.349a27.382 27.382 0 0 0 1.513-5.045c.057-.28.11-.565.16-.852.35-2.009.537-4.177.543-6.496.06-21.202-14.904-47.12-33.358-57.775-10.093-5.827-19.17-5.9-25.335-1.303a16.432 16.432 0 0 0-1.76 1.518 17.838 17.838 0 0 0-2.188 2.642 20.773 20.773 0 0 0-1.775 3.182 23.39 23.39 0 0 0-.854 2.161c-1.07 3.13-1.653 6.789-1.665 10.93-.014 4.97.797 10.199 2.285 15.43 3.075 10.81 9.041 21.627 16.587 30.18a70.299 70.299 0 0 0 3.77 3.954c3.364 3.256 6.968 6.05 10.716 8.215a40.12 40.12 0 0 0 5.092 2.495 37.872 37.872 0 0 0 1.648.612 29.971 29.971 0 0 0 3.207.901 24.96 24.96 0 0 0 3.106.482c2.87.256 5.538-.052 7.937-.887a16.279 16.279 0 0 0 2.41-1.062 15.884 15.884 0 0 0 1.4-.856 16.255 16.255 0 0 0 2.295-1.9l.237-.241a16.914 16.914 0 0 0 .686-.751c.149-.173.295-.35.438-.53a20.27 20.27 0 0 0 2.603-4.305c.104-.23.204-.463.302-.7"/>
        <path fill="#84DBB9" d="M395.267 189.354c-.652-.376-1.18-1.292-1.178-2.04.002-.744.535-1.047 1.186-.672.651.377 1.176 1.29 1.174 2.034-.003.749-.53 1.055-1.182.678m.025-4.122c-1.346-.777-2.441-.153-2.446 1.394-.004 1.547 1.084 3.436 2.43 4.213 1.35.78 2.445.15 2.45-1.396.004-1.547-1.084-3.431-2.434-4.21"/>
        <path fill="#8DC63F" d="M397.403 185.208l.41.632c.346.534.638 1.072.874 1.603l16.094-14.93-17.378 12.695zM412.803 220.79l3.59 6.218 2.065-1.176-3.59-6.214zM373.175 199.688l2.05 3.552 3.615-2.06-2.051-3.547zM373.309 152.382l3.59 6.224 2.064-1.176-3.59-6.22zM418.592 178.526l-2.05-3.547-3.615 2.06 2.05 3.552z"/>
        <g>
            <path fill="#649323" d="M142.643 98v60.156l71.325-41.18V56.821z"/>
            <path fill="#FFC65B" d="M142.643 109.28v13.159l71.325-41.18V68.101z"/>
            <path fill="#FFF" d="M210.025 93.679l-63.44 36.627v-4.504l63.44-36.627z"/>
            <path fill="#C4E29B" d="M110 79.163L142.643 98l71.325-41.18-32.643-18.838z"/>
            <path fill="#4E7617" d="M110 90.442l32.643 18.838V98L110 79.164z"/>
            <path fill="#BB8E39" d="M110 103.6l32.643 18.839v-13.16L110 90.443z"/>
            <path fill="#4E7617" d="M110 139.318l32.643 18.838v-35.717L110 103.6z"/>
            <path fill="#3B3D52" d="M191.98 111.166c1.842.072 2.584.527 6.291 1.818.101.028.2.053.298.077 3.524.867 5.118-.56 5.734-1.426.054.265.072.554.044.87-.36 1.053-3.66 2.646-7.463 1.049-2.894-1.192-3.588-1.766-4.736-1.814-1.148-.047-3.468.168-4.76-1.674.005-.433.01-.83.02-1.192.903 1.71 2.936 2.229 4.573 2.292"/>
            <path fill="#FABF49" d="M198.57 113.061c.191-3.615 2.356-4.095 2.356-4.095s2.928.494 3.377 2.669c-.616.866-2.21 2.293-5.734 1.426"/>
            <path fill="#FABAC2" d="M192.315 101.384s-.023 2.176.79 3.42c.075.115.203.245.374.385-.568.574-1.247 1.508-.78 2.366-1.245.263-3.9.12-4.76-1.268-.072-.98-.814-5.669-.814-5.669l5.19.766z"/>
            <path fill="#FFF" d="M192.698 107.555c-.467-.858.213-1.792.781-2.366 1.676 1.374 7.447 3.777 7.447 3.777s-2.165.48-2.357 4.095c-.098-.024-.197-.049-.298-.077-3.707-1.291-4.449-1.746-6.29-1.818-1.637-.063-3.67-.582-4.572-2.292.04-1.452.146-2.319.53-2.587.86 1.387 3.515 1.53 4.76 1.268"/>
            <path fill="#FABAC2" d="M173.922 116.763c-1.627-.932-2.56.311-2.655.957-1.962-.574-1.663-2.715-1.663-2.715-.538-2.44-.896-4.054-.896-4.054l4.735.933s.236 2.084.54 3.88c.008.388-.003.78-.061 1"/>
            <path fill="#FFF" d="M169.604 115.005s-.299 2.141 1.663 2.715c.096-.646 1.028-1.89 2.655-.956.058-.22.069-.612.061-1 .156.922.33 1.77.501 2.22.502 1.327 1.866 4.197 2.906 5.776 0 0-3.407-.743-5.012 2.445-.878-.96-1.576-2.035-1.828-2.89-.422-1.42-1.1-2.969-1.517-4.128-.164-1.366-.147-3.39.571-4.182"/>
            <path fill="#FABF49" d="M176.314 128.651c-1.19-.027-2.732-1.13-3.936-2.446 1.605-3.188 5.012-2.445 5.012-2.445.538.488 1.424 2.474 1.086 4.009a2.808 2.808 0 0 1-2.162.882"/>
            <path fill="#3B3D52" d="M170.55 123.314c.252.856.95 1.93 1.828 2.89 1.204 1.318 2.746 2.42 3.936 2.447a2.808 2.808 0 0 0 2.162-.882c-.16.719-.586 1.339-1.445 1.66-2.045.717-6.278-2.225-7.032-5.813-.359-1.722-.359-2.583-.682-3.157-.1-.178-.21-.659-.284-1.272.417 1.16 1.095 2.708 1.516 4.127M173.204 70.84l-11.844 6.685s-2.507-10.848 11.844-6.686"/>
            <path fill="#649323" d="M149.238 68.017s-.524 4.077.875 6.515c1.4 2.439 8.214 10.754 11.802 13.672.287 1.244 4.735 22.006 5.5 24.158 1.006 1.435 5.494 2.01 6.91-.813-.834-4.736-4.848-24.047-5.618-26.263-.769-2.216-9.902-10.716-3.803-13.801 3.409-1.722 6.459.359 6.459.359l13.672 9.88 1.11 19.612s1.793 2.511 5.381 1.507c1.292-.43 1.866-2.296 1.866-2.296L191.957 76.1l-9.711-8.467s-12.919-3.602-13.06-4.592"/>
            <path fill="#FABAC2" d="M172.439 42.46s-.477 8.096-1.123 12.316c-.107 1.53 12.378 12.553 12.378 12.553l-2.643 1.98s-13.08-9.33-13.726-11.482c-.646-2.152.114-14.399.114-14.399l5-.969z"/>
            <path fill="#E7EBF4" d="M170.143 33.86s1.36-.468 1.818.575c.663 1.51.5 5.031.478 8.024-.43.431-3.117 1.22-4.644 1.22-1.527 0 2.348-9.818 2.348-9.818M154.07 52.66c.014-.273.268-1.265.525-1.877-.001 8.777 2.71 14.88 4.526 17.982-2.078.45-4.038.539-5.658.432l-2.704-9.985s3.295-6.277 3.31-6.551"/>
            <path fill="#FFF" d="M150.099 42.615c4.831-4.784 11.347-7.998 11.347-7.998 3.597-1.587 7.405-.996 8.697-.756 1.291.239-2.488 16.073-2.488 16.073s-2.731 4.4-10.86 4.437c.872.627 6.44 1.084 11-3.09.278 2.659.918 8.594 1.391 11.76-3.04 3.326-6.707 4.998-10.065 5.724-1.815-3.102-4.527-9.205-4.526-17.982-.257.612-.51 1.604-.526 1.878-.015.274-3.31 6.55-3.31 6.55l2.704 9.986c-2.351-.155-3.986-.72-4.225-1.18 0-1.818-1.914-22.914.86-25.402"/>
            <path fill="#E7EBF4" d="M156.796 54.371c8.128-.038 10.86-4.437 10.86-4.437s.051.513.139 1.348c-4.559 4.173-10.128 3.716-11 3.09"/>
            <path fill="#FAABB2" d="M161.962 30.046s.622 3.48-.885 5.058c-1.507 1.58-3.085 3.35-.765 4.712 2.32 1.364 7.382.632 6.992-3.798-.39-4.43-5.342-5.972-5.342-5.972"/>
            <path fill="#9FC0F0" d="M160.017 78.701v-.75l.704-.058 17.797-10.275c.74-.428 2.033-.374 2.888.12l1.805 1.042 10.574 6.105.377.217 1.17-.097v.773l-1.34.774-18.002 10.394-1.34.773-1.547-.893-10.575-6.105-1.805-1.042c-.484-.28-.723-.64-.706-.978z"/>
            <path fill="#C6E2FB" d="M160.516 77.238l18.002-10.394c.74-.427 2.033-.374 2.888.12l1.805 1.042 10.574 6.105 1.548.894-1.34.773-18.003 10.394-1.34.774-1.547-.894-10.575-6.105-1.805-1.042c-.855-.494-.947-1.24-.207-1.667"/>
            <path fill="#2E3B70" d="M168.692 80.286l9.873-5.7c.406-.234 1.115-.205 1.584.066l.99.572 5.798 3.348.85.49-.736.424-9.872 5.7-.735.424-.849-.49-5.799-3.348-.99-.571c-.469-.27-.52-.68-.114-.915"/>
            <path fill="#A7CBF0" d="M173.555 76.724l5.534-3.195c.438-.253.383-.698-.123-.99l-3.576-2.065c-.505-.291-1.277-.323-1.714-.07l-5.535 3.195c-.438.252-.382.698.123.99l3.576 2.064c.506.292 1.277.324 1.715.071"/>
            <path fill="#FABAC2" d="M175.13 20.897s.86 2.798.466 4.88c.323 1.506 2.045 9.148-2.834 10.87-4.198.969-8.754-1.507-10.8-6.601-1.506.179-3.3-.754-3.372-2.835-.072-2.08.717-5.31.717-5.31l.36-4.377 8.323-2.117 7.14 5.49z"/>
            <path fill="#171636" d="M159.666 17.524s2.368-.072 4.45 2.01c2.08 2.08 10.763 5.238 13.346.86-1.077-.574-1.938-2.44-3.588-4.09-1.937-2.763-11.84-5.884-14.208 1.22"/>
            <path fill="#171636" d="M159.666 17.524s2.906.897 4.019 2.69a18.71 18.71 0 0 0 1.758 1.723s-1.364.897-1.364 2.404.287 3.408-1.525 4.843c0-1.291-1.058-3.372-2.242-3.444-1.184-.072-1.722 1.471-1.722 1.471s-3.565-5.521 1.076-9.687"/>
            <path fill="#FABAC2" d="M148.595 52.66s2.365 1.005 5.474 0c-.191 3.158 0 8.803 1.387 12.774.527.478 13.156.813 15.165 1.77 2.01.956 4.616 1.77 5.406 1.806.79.035-.574.968-1.435.61.681 1.147 3.444 5.166 3.803 6.063.359.897-.287.897-.539.753-.25-.143-1.865-2.619-1.865-2.619s-1.112 1.579-2.835 1.363c-1.112-.215-2.619-3.839-3.803-4.413-1.184-.43-16.08-.143-17.4-1.973-1.322-1.83-3.443-12.5-3.358-16.133"/>
            <path fill="#C6E2FB" d="M174.325 86.776l.115-1.853.79-12.667.136-2.162c.063-1.024.715-2.2 1.455-2.628l18.003-10.393c.266-.154.506-.188.703-.124v-.001l.008.003c.048.017.094.04.136.068l.238.12-.051.071c.143.213.216.534.19.943l-.135 2.162-.79 12.666-.116 1.854-1.34.774-18.002 10.394-.59.34-.428.601-.322-.168z"/>
            <path fill="#B0B5D1" d="M177.144 67.634l18.002-10.394c.74-.427 1.289.056 1.225 1.08l-.135 2.163-.79 12.666-.117 1.854-1.34.774-18.002 10.393-1.34.774.116-1.854.79-12.666.135-2.163c.064-1.024.716-2.2 1.456-2.627"/>
            <path fill="#FFF" d="M184.715 72.033c.213.868 1.225 1.165 2.26.664 1.034-.501 1.7-1.611 1.486-2.48-.213-.868-1.225-1.165-2.26-.664-1.034.501-1.7 1.611-1.486 2.48"/>
        </g>
        <g>
            <g transform="translate(0 114.6)">
                <mask id="f" fill="#fff">
                    <use xlink:href="#e"/>
                </mask>
                <path fill="#B8B9BB" d="M0 61.292c0 2.098 1.287 3.07 2.86 2.162L40.403 41.78c1.573-.908 2.86-3.367 2.86-5.465V.083L0 25.06v36.231z" mask="url(#f)"/>
            </g>
            <g transform="translate(0 101.08)">
                <mask id="h" fill="#fff">
                    <use xlink:href="#g"/>
                </mask>
                <path fill="#BB8E39" d="M40.403.475L2.86 22.15C1.287 23.058 0 25.517 0 27.615V38.58l43.263-24.978V2.637c0-2.097-1.287-3.07-2.86-2.162" mask="url(#h)"/>
            </g>
            <path fill="#6C7B82" d="M21.632 159.51c-5.102 2.944-9.237-.182-9.237-6.984 0-6.801 4.135-14.703 9.237-17.648 5.1-2.945 9.236.181 9.236 6.983s-4.135 14.703-9.236 17.648m0-29.359c-7.06 4.076-12.783 15.01-12.783 24.424 0 9.412 5.723 13.738 12.783 9.663 7.059-4.076 12.782-15.01 12.782-24.423 0-9.413-5.723-13.74-12.782-9.664"/>
            <path fill="#000" d="M22.004 146.482v-8.84l-.745.43v9.833l.373-.215.372-.215 4.901-2.83v-.993z"/>
            <path fill="#B8B9BB" d="M1.035 178.224l6.557 3.785 4.244-13.304z"/>
            <path fill="#FEFFFD" d="M6.589 179.693c0 2.098 1.287 3.07 2.86 2.162l37.542-21.675c1.573-.908 2.86-3.367 2.86-5.465v-36.231L6.59 143.462v36.231z"/>
            <g transform="translate(0 101.295)">
                <mask id="j" fill="#fff">
                    <use xlink:href="#i"/>
                </mask>
                <path fill="#BB8E39" d="M0 38.365l6.589 3.802 42.28-38.246L42.337.154" mask="url(#j)"/>
            </g>
            <g transform="translate(6.438 104.943)">
                <mask id="l" fill="#fff">
                    <use xlink:href="#k"/>
                </mask>
                <path fill="#FFC359" d="M40.553.414L3.011 22.089c-1.573.908-2.86 3.368-2.86 5.465V38.52L43.414 13.54V2.576c0-2.097-1.287-3.07-2.86-2.162" mask="url(#l)"/>
            </g>
            <path fill="#6C7B82" d="M28.22 163.31c-5.101 2.946-9.236-.18-9.236-6.982 0-6.801 4.135-14.703 9.236-17.648 5.101-2.945 9.237.18 9.237 6.983 0 6.801-4.136 14.703-9.237 17.648m0-29.359c-7.06 4.076-12.782 15.01-12.782 24.423 0 9.413 5.723 13.74 12.782 9.663 7.06-4.075 12.782-15.01 12.782-24.422 0-9.413-5.722-13.74-12.782-9.664"/>
            <path fill="#000" d="M28.593 150.284v-8.84l-.745.43v9.833l.372-.215.373-.215 4.9-2.83v-.993z"/>
        </g>
        <g>
            <path fill="#589FBD" d="M86.16 242.38c.378 1.314-.055 2.227.659 6.487.714 4.26 2.632 7.782 4.634 8.044.736.095 1.356.002 1.818-.294.797-.507 1.122-1.612.744-3.384-1.607-6.057 1.657-12.327 1.657-12.327s-2.465-2.196-4.333-4.813c-1.944.442-3.435 1.388-4.355 2.51-.974 1.187-1.305 2.574-.824 3.776"/>
            <g transform="translate(85 238.466)">
                <mask id="n" fill="#fff">
                    <use xlink:href="#m"/>
                </mask>
                <path fill="#FFF" d="M8.272 18.152s.198-.469-.357-.632c-.552-.163-1.405-.105-1.795.846-1.879-.582-3.626-3.942-4.3-7.965-.714-4.261-.281-5.173-.66-6.488-.48-1.203-.15-2.589.824-3.778L1.983.131C-1.237 2.303.378 4.338.603 5.737c.227 1.398-.589 7.506 2.375 11.19 2.964 3.682 5.294 1.225 5.294 1.225" mask="url(#n)"/>
            </g>
            <path fill="#FFF" d="M94.094 249.593l-.01-.15a.235.235 0 0 0-.25-.217l-1.496.1a.235.235 0 0 0-.218.25l.01.15a.236.236 0 0 0 .249.218l1.496-.101a.234.234 0 0 0 .219-.25M94.12 251.169l-.01-.15a.235.235 0 0 0-.25-.218l-1.496.101a.234.234 0 0 0-.218.25l.01.149a.237.237 0 0 0 .25.219l1.496-.102a.234.234 0 0 0 .218-.25M94.179 248.08l-.01-.15a.235.235 0 0 0-.25-.218l-1.496.101a.235.235 0 0 0-.218.25l.01.149a.237.237 0 0 0 .25.219l1.496-.102a.234.234 0 0 0 .218-.25M94.307 246.608l-.01-.15a.235.235 0 0 0-.25-.218l-1.496.1a.236.236 0 0 0-.218.25l.01.15a.237.237 0 0 0 .25.218l1.497-.1a.234.234 0 0 0 .217-.25"/>
            <path fill="#FBDFB6" d="M115.344 188.06s14.737.164 16.665-1.388c1.928-1.552 3.74-.646 3.92 1.302.178 1.95-.06 4.719-6.816 4.408-5.916.946-14.441 1.101-14.441 1.101l.672-5.422z"/>
            <path fill="#C1D1E0" d="M148.493 185.12c-.105.06-.106.158-.001.218.103.06.272.06.376 0 .105-.06.104-.158 0-.218a.417.417 0 0 0-.375 0"/>
            <path fill="#FFF" d="M130.55 190.334l9.257 5.38 12.672-7.317-9.257-5.38z"/>
            <path fill="#D257EE" d="M148.868 185.338c.105-.06.105-.158 0-.218a.41.41 0 0 0-.375 0c-.105.06-.105.158-.002.218.104.06.273.06.377 0zm-13.892 8.325c.25-.144.25-.38.003-.523a.998.998 0 0 0-.904-.001c-.25.145-.252.38-.003.524.248.144.653.144.904 0zm4.83 2.05l12.674-7.317-9.257-5.378-12.673 7.316 9.257 5.38zm3.17-13.186c.663-.382 1.745-.382 2.405.001l7.951 4.621c.66.383.655 1.01-.007 1.393l-13.16 7.598c-.664.383-1.747.382-2.406 0l-7.95-4.621c-.66-.384-.657-1.01.006-1.394l13.16-7.598z"/>
            <path fill="#C1D1E0" d="M134.075 193.139c-.25.145-.252.38-.003.524.247.144.653.144.904 0 .25-.144.25-.38.003-.523a.998.998 0 0 0-.904-.001"/>
            <g transform="translate(129.107 187.159)">
                <mask id="p" fill="#fff">
                    <use xlink:href="#o"/>
                </mask>
                <path fill="#9C85E0" d="M.213 3.717l.006.055.011.043c.004.018.008.034.014.052l.018.041A.56.56 0 0 0 .31 4a.851.851 0 0 0 .14.172l.027.027.052.042c.015.014.03.026.048.038.018.015.04.027.06.04.021.015.041.029.065.042l7.95 4.621c.05.03.105.055.16.08.015.008.031.014.048.021l.131.05.051.017.087.025.067.018.094.02c.021.004.042.009.065.012.064.012.128.021.193.027l.06.006.117.008a1.686 1.686 0 0 0 .168.002l.077-.002a2.695 2.695 0 0 0 .166-.012c.029-.002.058-.005.086-.009.025-.002.05-.006.076-.01.03-.005.06-.01.09-.017l.071-.013c.036-.008.071-.017.106-.027a2.27 2.27 0 0 0 .24-.077 1.772 1.772 0 0 0 .253-.119l13.16-7.598c.334-.193.5-.448.5-.702l.002.702c0 .254-.166.51-.5.703L11.06 9.684c-.072.04-.148.076-.227.108l-.017.008-.01.003a2.153 2.153 0 0 1-.181.061l-.014.005-.044.01c-.035.01-.07.019-.106.027l-.027.006c-.014.004-.029.006-.043.008l-.091.016c-.012.001-.024.004-.035.006l-.04.004c-.03.004-.058.008-.087.01l-.04.005h-.039c-.028.003-.057.004-.087.006l-.043.002h-.034L9.8 9.968h-.046c-.01 0-.018 0-.028-.002a5.1 5.1 0 0 1-.117-.007c-.015 0-.03 0-.046-.003l-.012-.002a2.73 2.73 0 0 1-.195-.027l-.01-.002c-.018-.002-.036-.007-.054-.011a1.743 1.743 0 0 1-.161-.038l-.087-.025-.02-.005-.03-.012a1.67 1.67 0 0 1-.133-.05l-.047-.02a2.194 2.194 0 0 1-.16-.08L.704 5.062.682 5.05l-.044-.03a.997.997 0 0 1-.06-.04C.56 4.97.545 4.955.53 4.943a.482.482 0 0 1-.062-.05l-.018-.02a.833.833 0 0 1-.072-.078l-.015-.016-.012-.018c-.015-.02-.028-.04-.04-.06C.306 4.693.3 4.685.296 4.676l-.008-.012a.695.695 0 0 1-.024-.054L.25 4.58l-.003-.012c-.006-.016-.01-.034-.015-.05l-.01-.035-.001-.01C.217 4.457.216 4.439.215 4.42.214 4.408.21 4.396.21 4.384V4.37l-.003-.702.005.05" mask="url(#p)"/>
            </g>
            <path fill="#4E7617" d="M88.777 206.056l10.81 4.169s-.688-3.247 10.255-4.692c1.93-5.048-18.277-9.33-21.065.523M110.97 216.8a4.456 4.456 0 0 1 6.268.424 4.456 4.456 0 0 1-.423 6.27l-19.723 17.222a4.457 4.457 0 0 1-6.27-.424 4.457 4.457 0 0 1 .424-6.27L110.97 216.8z"/>
            <path fill="#4E7617" d="M109.233 193.82l8.778 24.156c1.002 2.76-.435 5.84-3.196 6.843-2.76 1.004-5.84-.435-6.843-3.195l-8.777-24.156c-1.003-2.762.436-5.841 3.196-6.843 2.76-1.003 5.84.434 6.842 3.195"/>
            <path fill="#4E7617" d="M89.821 198.477s-4.647 12.696 6.055 12.696c4.256-6.605 13.966-15.65 13.966-15.65l-20.02 2.954z"/>
            <path fill="#589FBD" d="M88.929 262.146c1.087.83 1.282 1.82 4.394 4.818 3.112 2.997 6.75 4.683 8.513 3.7.649-.361 1.09-.807 1.287-1.319.336-.881-.06-1.962-1.42-3.162-4.898-3.906-6.012-10.885-6.012-10.885s-3.288-.297-6.348-1.287c-1.297 1.514-1.933 3.163-2.003 4.61-.075 1.536.486 2.845 1.589 3.525"/>
            <g transform="translate(86.8 258.27)">
                <mask id="r" fill="#fff">
                    <use xlink:href="#q"/>
                </mask>
                <path fill="#FFF" d="M16.323 11.077s-.12-.494-.662-.295c-.541.198-1.192.752-.938 1.749-1.856.651-5.262-1.007-8.2-3.836-3.111-2.997-3.308-3.988-4.395-4.818C1.025 3.197.465 1.887.54.353L.536.349c-1.292 3.66 1.217 4.335 2.232 5.324 1.015.989 3.998 6.38 8.573 7.573 4.575 1.193 4.982-2.17 4.982-2.17" mask="url(#r)"/>
            </g>
            <path fill="#FFF" d="M99.599 263.214l-.097-.113a.234.234 0 0 0-.33-.026l-1.143.972a.235.235 0 0 0-.026.33l.097.113c.084.099.232.111.33.027l1.142-.973a.234.234 0 0 0 .027-.33M100.558 264.463l-.097-.113a.234.234 0 0 0-.33-.026l-1.143.972a.235.235 0 0 0-.026.33l.097.114c.084.098.233.11.33.027l1.143-.973a.235.235 0 0 0 .026-.33M98.765 261.947l-.097-.114a.235.235 0 0 0-.33-.026l-1.142.972a.234.234 0 0 0-.027.33l.098.115c.083.098.232.11.33.026l1.142-.972a.235.235 0 0 0 .026-.33M97.991 260.689l-.097-.115a.236.236 0 0 0-.33-.026l-1.141.972a.235.235 0 0 0-.027.33l.097.115c.083.098.233.11.331.026l1.141-.972a.235.235 0 0 0 .026-.33"/>
            <path fill="#EB6830" d="M106.412 144.593c-3.663-3.217-12.968-1.039-15.343 5.792-2.375 6.829 2.363 12.593 4.794 13.422 8.767-7.385 10.549-19.214 10.549-19.214"/>
            <path fill="#4E7617" d="M99.434 222.25a4.456 4.456 0 0 1 3.445 5.255l-5.334 25.635a4.456 4.456 0 0 1-5.255 3.446 4.456 4.456 0 0 1-3.444-5.255l5.333-25.636a4.456 4.456 0 0 1 5.255-3.445"/>
            <path fill="#4E7617" d="M92.503 195.786c2.897-.483 5.662 1.491 6.146 4.389l4.229 25.351c.483 2.897-1.492 5.663-4.388 6.145-2.898.484-5.663-1.49-6.147-4.388l-4.228-25.351c-.485-2.897 1.49-5.663 4.388-6.146"/>
            <path fill="#4E7617" d="M92.233 226.626s.505 5.271.01 8.377c3.015.35 11.321-4.226-.01-8.377"/>
            <path fill="#8DC63F" d="M100.038 171.375a3.78 3.78 0 0 1 1.46-3.317 3.796 3.796 0 0 1 2.436-.795c1.951.049 3.517 1.692 3.69 3.637.398 4.483 2.56 14.451 6.566 15.975.697.263 1.493.222 2.315-.01 1.534-.432 3.178.055 4.123 1.341.015.023.03.043.046.065 1.518 2.03.664 5.026-1.756 5.793-2.603.825-5.087.804-7.424-.085-9.43-3.582-11.199-19.46-11.456-22.604"/>
            <path fill="#8DC63F" d="M105.372 168.894s2.735 7.882 2.524 14.7c-.029 5.006.538 6.342 1.946 11.929 0 3.34-14.994 11.846-21.165 3.124 2.124-5.588 3.822-14.904-.169-24.883 1.375-1.85 5.359-4.115 7.218-5.19 3.444-1.988 4.803-1.75 4.803-1.75l4.843 2.07z"/>
            <path fill="#FBDFB6" d="M96.684 172.918c2.358 1.362 5.925 1.51 7.967.33 2.042-1.177 1.786-3.237-.572-4.599-2.358-1.36-5.925-1.51-7.967-.33-2.042 1.179-1.786 3.238.572 4.6"/>
            <path fill="#FBDFB6" d="M109.842 148.196s1.441 2.57 1.162 6.928c-.28 3.576.327 7.431-.562 9.33-.89 1.902-4.97 5.421-11.172 2.404-4.862-2.627-5.42-8.158-5.42-8.158s-1.51-.859-1.732-1.63c-.504-.8-.391-3.399 2.346-1.946 2.841-8.712 12.64-10.877 15.378-6.928"/>
            <path fill="#FBDFB6" d="M97.933 170.159h4.857v-4.857h-4.857z"/>
            <path fill="#EB6830" d="M96.741 150.865s12.046 5.159 16.5-6.42c-3.562-.494-6.274-1.683-8.63-2.277-2.357-.593-9.623-.026-7.87 8.697"/>
            <path fill="#FFF" d="M102.564 173.866a1.177 1.177 0 1 0 2.355.002 1.177 1.177 0 0 0-2.355-.002"/>
            <path fill="#FFF" d="M97.933 167.673s-3.016 4.085 4.965 5.273c0 0-.371 1.466-.72 2.618-3.809-.484-12.087-4.78-4.245-8.408v.517zM102.704 168.034s3.014 1.256 1.085 4.56l1.893 1.633s2.903-4.781-2.892-6.27l-.086.077zM103.205 174.909l-.641 15.748 3.118 4.008 1.299-4.81-2.424-15.143z"/>
            <path fill="#FBDFB6" d="M100.874 193.735s14.727.566 16.697-.932c1.97-1.498 3.756-.544 3.882 1.409.126 1.953-.189 4.716-6.934 4.22-5.939.783-14.465.705-14.465.705l.82-5.402z"/>
            <path fill="#8DC63F" d="M87.734 174.966a3.78 3.78 0 0 1 1.931-3.065c.763-.43 1.65-.584 2.527-.43 1.923.336 3.23 2.193 3.115 4.141-.266 4.493.405 14.671 4.144 16.768.652.362 1.445.438 2.292.33 1.58-.202 3.135.521 3.88 1.933.012.025.024.046.038.07 1.202 2.232-.084 5.07-2.59 5.473-2.696.433-5.15.046-7.332-1.177-8.8-4.93-8.213-20.894-8.005-24.043"/>
        </g>
        <g>
            <g transform="translate(215 120.11)">
                <mask id="t" fill="#fff">
                    <use xlink:href="#s"/>
                </mask>
                <path fill="#F6F8FB" d="M33.582 1.43c1.198-.709 3.165-.721 4.371-.024L71.57 20.814c1.206.697 1.206 1.835 0 2.532L38.431 42.477c-1.205.697-3.179.697-4.385 0L.91 23.346c-1.206-.697-1.213-1.847-.015-2.556L33.582 1.43z" mask="url(#t)"/>
            </g>
            <g transform="translate(244 120.11)">
                <mask id="v" fill="#fff">
                    <use xlink:href="#u"/>
                </mask>
                <path fill="#48486A" d="M42.569 20.814L8.953 1.406C7.747.71 5.78.72 4.582 1.43L.755 3.696l37.924 21.895 3.89-2.246c1.206-.696 1.206-1.835 0-2.53" mask="url(#v)"/>
            </g>
            <path fill="#FFF" d="M252.917 125.1c.486-.278.486-.735 0-1.015-.486-.28-1.28-.28-1.764 0s-.484.737 0 1.016 1.278.279 1.764 0M255.739 126.897c.486-.28.486-.736 0-1.016-.487-.28-1.28-.28-1.764 0s-.484.737 0 1.016 1.277.279 1.764 0M258.56 128.596c.488-.279.488-.736 0-1.016-.485-.279-1.28-.279-1.763 0-.484.28-.484.737 0 1.016.484.28 1.278.28 1.764 0"/>
            <g transform="translate(215 141.11)">
                <mask id="y" fill="#fff">
                    <use xlink:href="#w"/>
                </mask>
                <path fill="url(#x)" d="M.909 2.346l33.137 19.131c1.206.697 3.18.697 4.385 0L71.569 2.346c.885-.511 1.115-1.261.7-1.899-.15.23-.38.448-.7.632L38.431 20.212c-1.205.696-3.179.696-4.385 0L.909 1.079A1.985 1.985 0 0 1 .202.432c-.412.647-.179 1.402.707 1.914" mask="url(#y)"/>
            </g>
            <g fill="#48486A">
                <path d="M237.969 134.258l.883-1.329 7.755 1.95-.948 1.426-5.101-1.32 3.169 4.23-.953 1.434zM254.052 138.245l1.835 1.219-11.333 5.289-1.821-1.21zM261.255 147.807l-.882 1.33-7.755-1.95.953-1.436 5.127 1.281-3.194-4.19.946-1.426z"/>
            </g>
        </g>
        <g>
            <path fill="#649323" d="M190.178 180.832c-.789-.455-1.784-.704-2.748-.737a6.495 6.495 0 0 0-.607.007c-2.38-.017-4.878-.599-6.836-1.73-1.834-1.059-2.84-2.39-2.986-3.684v10.88l.008.001c-.179 1.491.828 3.108 2.978 4.35.015.008.033.013.05.023l10.518-6.074c1.348-.778 1.18-2.137-.377-3.036M245.744 215.284l-18.942 10.937-21.426-12.37c-1.557-.9-3.911-.997-5.259-.219-.72.418-1.003 1-.876 1.59.013.058.03.117.05.177.366 1.417-.287 2.83-2.021 3.831-3.147 1.817-8.645 1.59-12.28-.51-1.792-1.033-2.793-2.331-2.973-3.597v10.713l.007.003c-.226 1.513.778 3.164 2.967 4.427 3.634 2.099 9.132 2.327 12.279.509 1.734-1 2.387-2.413 2.022-3.831a1.357 1.357 0 0 1-.05-.177c-.128-.59.154-1.173.875-1.589 1.348-.778 3.702-.68 5.259.217l21.426 12.371 18.942-10.936c.282-.163.417-.38.427-.607l.007-.002v-11.556l-.007-.001c-.004.233-.139.454-.427.62"/>
            <path fill="#649323" d="M255.318 209.757c-.644.372-1.77.325-2.513-.104-.36-.208-.561-.467-.603-.721.033-.132.053-.266.07-.4.254-1.91-1.028-3.99-3.788-5.583-4.634-2.675-11.643-2.966-15.656-.649-4.012 2.317-3.509 6.363 1.124 9.039.838.483 1.758.878 2.718 1.203 3.819-.666 8.44.005 11.814 1.952 2.127 1.229 3.372 2.745 3.718 4.25v1.734c.042.254.243.513.603.72.744.43 1.869.476 2.513.105l18.943-10.938v-11.544l-18.943 10.936z"/>
            <path fill="#F27630" d="M241.513 181.26c-.311.18-.735.26-1.174.248-.236-.038-.473-.07-.71-.1-3.38-.422-6.833.026-9.224 1.406-4.013 2.316-3.51 6.363 1.124 9.038.832.48 1.743.881 2.697 1.206 1.702-.296 3.56-.335 5.403-.104.237.03.474.06.71.1.439.012.863-.068 1.174-.248.331-.191.467-.455.425-.725v-11.347h-.002c-.036.198-.174.383-.423.526"/>
            <path fill="#649323" d="M190.745 210.464c.102.012.204.022.307.03 1.02.072 2.03-.09 2.752-.506 1.347-.779 1.178-2.138-.378-3.037L172 194.581v11.546l10.996 6.348c.304-.303.67-.588 1.113-.844 1.734-1 4.18-1.378 6.636-1.167z"/>
            <path fill="#C4E29B" d="M232.828 202.3c4.013-2.317 11.022-2.026 15.656.649 2.76 1.594 4.041 3.672 3.789 5.584a3.487 3.487 0 0 1-.072.4c.043.253.244.513.603.72.744.429 1.87.476 2.514.103l18.942-10.936-21.873-12.628c-.744-.43-1.869-.476-2.513-.104-.311.179-.45.424-.43.677.067.136.121.273.173.41.733 1.953-.042 3.946-2.433 5.326-3.292 1.9-8.599 2.043-12.958.557a15.173 15.173 0 0 1-2.697-1.206c-4.633-2.675-5.136-6.722-1.124-9.038 2.39-1.38 5.843-1.828 9.224-1.405.238.03.474.061.71.1.438.01.863-.069 1.174-.249.249-.142.387-.329.424-.526.057-.315-.147-.661-.604-.925l-21.873-12.628-18.556 10.713c-1.348.778-3.702.68-5.258-.218-.79-.456-1.22-1.03-1.279-1.587a1.236 1.236 0 0 1 .013-.35c-.029-1.375-1.037-2.817-2.996-3.948-3.634-2.098-9.132-2.326-12.28-.508-1.559.9-2.246 2.134-2.104 3.405.147 1.293 1.152 2.626 2.986 3.685 1.958 1.13 4.456 1.712 6.838 1.729.2-.012.402-.014.607-.007.964.033 1.958.282 2.747.737 1.556.9 1.725 2.258.378 3.036l-10.52 6.074-8.036 4.64 21.426 12.37c1.556.898 1.725 2.257.377 3.035-.72.417-1.73.58-2.751.506a6.878 6.878 0 0 1-.308-.029c-2.455-.21-4.902.167-6.636 1.167a5.375 5.375 0 0 0-1.112.844c-.788.787-1.112 1.709-.979 2.648.18 1.266 1.18 2.563 2.973 3.598 3.635 2.099 9.133 2.327 12.28.509 1.733-1 2.387-2.414 2.022-3.832a1.362 1.362 0 0 1-.051-.176c-.127-.59.155-1.173.876-1.59 1.348-.777 3.702-.68 5.258.218l21.426 12.371 18.943-10.937c.288-.165.423-.387.427-.62.005-.289-.196-.593-.607-.831a2.865 2.865 0 0 0-1.249-.348c-.228.02-.46.03-.692.041a19.384 19.384 0 0 1-6.953-.984c-.96-.325-1.88-.72-2.717-1.204-4.634-2.675-5.138-6.721-1.125-9.038"/>
            <path fill="#60AF9F" d="M330.659 214.803l-.007.004.018.008-.011-.012zM247.438 214.803v.087c.002-.028.01-.056.011-.084l-.01-.003zM316.215 255.94l-18.942 10.937-21.874-12.628c-.366-.212-.57-.477-.608-.736v11.377l.003.002c-.043.308.158.644.605.901l21.874 12.63 18.942-10.937c.303-.175.44-.412.428-.658l.005-.002V255.28h-.004c.012.248-.125.485-.429.66"/>
            <path fill="#60AF9F" d="M285.203 242.206c-4.634-2.675-11.643-2.965-15.655-.648-2.39 1.38-3.166 3.373-2.433 5.325.051.137.106.274.172.41.02.253-.118.498-.43.678-.643.371-1.769.324-2.513-.105l-21.873-12.628v11.544l21.873 12.63c.744.43 1.87.475 2.514.104.311-.18.45-.425.43-.679v-3.542c.43-.817 1.177-1.568 2.26-2.193 3.288-1.898 8.58-2.034 12.934-.553 1.43-.246 2.751-.673 3.845-1.305 4.012-2.316 3.509-6.363-1.124-9.038M325.789 250.413c-.644.372-1.77.326-2.513-.104-.36-.207-.561-.467-.604-.72.033-.133.054-.266.071-.4.253-1.912-1.028-3.99-3.788-5.584-4.634-2.675-11.643-2.965-15.655-.649-4.013 2.317-3.51 6.364 1.123 9.039.833.48 1.748.874 2.703 1.198 3.82-.667 8.453.009 11.829 1.957 2.76 1.594 4.041 3.673 3.788 5.584a3.467 3.467 0 0 1-.07.4c.042.254.243.513.603.72.744.43 1.869.476 2.513.105l18.943-10.938v-11.544l-18.943 10.936zM260.649 221.49c-.833-.481-1.894-.731-2.907-.742-.102 0-.202.001-.303.004-2.428.008-4.994-.576-6.996-1.732-2.044-1.18-3.063-2.7-3.004-4.128V226.648l.008.003c.046 1.365 1.053 2.793 2.996 3.914.02.013.045.02.065.033l10.518-6.073c1.348-.778 1.18-2.137-.377-3.036M332.61 222.434c-1.696.979-4.074 1.36-6.475 1.178a6.748 6.748 0 0 0-.615-.059c-.966-.046-1.908.123-2.592.517-1.347.779-1.179 2.138.377 3.036l10.425 6.02c.732-.74 1.062-1.593.988-2.47l.017-.002v-11.272l-.006-.007c-.008 1.146-.7 2.24-2.119 3.059"/>
            <path fill="#84DBB9" d="M303.3 242.956c4.012-2.316 11.021-2.026 15.654.649 2.76 1.594 4.042 3.672 3.79 5.584a3.647 3.647 0 0 1-.072.4c.043.254.244.513.603.72.744.43 1.87.476 2.514.104l18.942-10.937-11-6.351-10.426-6.018c-1.556-.899-1.724-2.258-.377-3.037.684-.394 1.626-.562 2.592-.517.205.01.41.03.615.06 2.401.18 4.78-.2 6.475-1.18 1.418-.817 2.111-1.911 2.119-3.058.01-1.4-1.003-2.877-3-4.03a11.176 11.176 0 0 0-1.06-.53l-.017-.009c-3.577-1.58-8.352-1.617-11.203.029-1.696.979-2.354 2.352-2.04 3.739.05.119.084.237.1.355.08.557-.211 1.102-.895 1.497-1.348.778-3.701.68-5.257-.219l-21.427-12.37-18.555 10.713c-1.348.778-3.702.68-5.258-.217-.833-.482-1.264-1.094-1.283-1.679-.001-.059 0-.118.008-.175.014-1.402-1-2.884-3.001-4.04-3.635-2.098-9.132-2.326-12.28-.508-1.342.774-2.034 1.796-2.111 2.875-.003.028-.01.056-.011.085v.001c-.06 1.428.96 2.948 3.003 4.129 2.003 1.155 4.568 1.739 6.998 1.732.1-.004.2-.006.302-.005 1.013.01 2.074.26 2.907.741 1.556.899 1.725 2.258.377 3.036l-10.518 6.072-8.037 4.64 21.874 12.629c.743.43 1.869.477 2.513.105.311-.18.449-.425.43-.678a4.679 4.679 0 0 1-.173-.41c-.733-1.952.042-3.945 2.433-5.325 4.012-2.318 11.02-2.027 15.655.649 4.633 2.674 5.136 6.721 1.124 9.037-1.094.632-2.415 1.059-3.845 1.306-1.695.292-3.545.328-5.38.099a17.92 17.92 0 0 1-.71-.1c-.438-.01-.862.069-1.174.25-.326.187-.465.447-.427.714.037.26.242.524.608.735l21.873 12.63 18.943-10.938c.304-.175.44-.412.429-.66-.014-.276-.216-.564-.61-.79-.359-.208-.807-.324-1.247-.349a19.383 19.383 0 0 1-7.66-.948 15.232 15.232 0 0 1-2.704-1.199c-4.633-2.674-5.136-6.721-1.124-9.038"/>
            <path fill="#3D8385" d="M249.091 192.838l.036.026-.08-.098c-.057-.078-.123-.151-.186-.227l-13.342-16.346-.05.147a5.073 5.073 0 0 0-2.612-1.264l-4.799-.775-2.653-2.312c-2.122-1.847-5.37-1.623-7.217.497-.054.063-.09.135-.141.2l-15.152-2.447c-2.777-.449-5.417 1.457-5.865 4.235-.448 2.777 1.457 5.416 4.234 5.864l22.277 3.597 18.027 15.705c2.12 1.85 5.368 1.626 7.217-.495 1.574-1.808 1.632-4.426.306-6.307"/>
            <path fill="#F99AB6" d="M219.397 186.941a.024.024 0 0 0-.006-.006l.005.006h.001zM219.167 186.714l-.008.012c.078.069.155.137.232.209a1.048 1.048 0 0 1-.224-.221"/>
            <path fill="#FBDFB6" d="M219.396 186.94l-.005-.005a16.214 16.214 0 0 0-1.288-1.068l-13.979-12.558a3.9 3.9 0 0 0-5.442.778 3.9 3.9 0 0 0 .778 5.442l15.695 10.844-.001.002s.642.82 1.53 1.987c.292-.255.537-.41.765-.523.334-.167.625-.227.912-.227 1.736-2.2 1.035-4.671 1.035-4.671"/>
            <path fill="#84DBB9" d="M223.796 190.68c-.065-.767-.623-1.395-1.33-1.921-1.064-.79-2.468-1.355-3.069-1.818 0 0 .7 2.47-1.036 4.672-.287 0-.577.059-.912.226a3.513 3.513 0 0 0-.765.523c.723.949 1.61 2.128 2.444 3.276.014-.014.016-.033.033-.044l.804-.49a.214.214 0 0 1 .223.365l-.805.49c-.006.004-.013 0-.02.003.168.234.333.464.493.69.018-.03.029-.062.06-.082l.805-.49a.214.214 0 0 1 .223.366l-.806.49c-.023.014-.049.007-.075.012.16.225.313.447.458.66.015-.019.02-.043.04-.056l.806-.491a.213.213 0 0 1 .222.365l-.805.49c-.015.01-.033.004-.05.008.153.23.296.449.425.651a.213.213 0 0 1 .081-.112l.806-.49a.214.214 0 0 1 .222.364l-.804.49a.206.206 0 0 1-.135.022c.149.243.273.46.366.643 1.094 2.155 1.44 4.395 2.099 4.671-.313-.3.559-1.426 1.58-.64v-.001c.94-.8 1.837-2.326 1.395-4.652-.745-3.923-2.792-6.077-2.973-8.19"/>
            <path fill="#FFF" d="M225.35 193.166c-.632-1.03-.637-2.65-1.194-3.38-.547-.715-1.65-1.016-1.69-1.027.708.526 1.265 1.154 1.33 1.922.18 2.112 2.228 4.266 2.974 8.19.442 2.326-.455 3.851-1.396 4.65v.002c-1.02-.786-1.894.34-1.58.64.029.01.056.015.084.023 4.02 1.198 5.486-7.161 1.472-11.02M219.844 196.865c.048.077.136.097.22.082a29.365 29.365 0 0 0-.208-.295c-.038.066-.054.143-.012.213"/>
            <path fill="#FFF" d="M220.943 196.445a.215.215 0 0 0 .071-.294.216.216 0 0 0-.294-.071l-.804.49c-.032.02-.043.053-.06.083.07.099.14.196.208.295.025-.005.05.002.074-.012l.805-.49zM219.09 195.888a.21.21 0 0 0 .273.074l-.234-.324c-.065.069-.09.166-.04.25"/>
            <path fill="#FFF" d="M220.188 195.468c.1-.06.132-.193.071-.293a.214.214 0 0 0-.294-.071l-.804.49c-.017.01-.02.03-.033.044l.235.324c.006-.003.014.001.02-.003l.805-.49zM220.491 197.845c.051.085.153.107.244.08l-.213-.317c-.056.068-.08.159-.031.237"/>
            <path fill="#FFF" d="M221.59 197.426a.214.214 0 0 0-.223-.365l-.805.49c-.021.014-.026.039-.04.057l.212.317c.017-.005.035.002.05-.008l.805-.491zM221.17 198.757c.035.059.096.085.16.092a15.35 15.35 0 0 0-.171-.273.204.204 0 0 0 .01.18"/>
            <path fill="#FFF" d="M222.268 198.338a.214.214 0 0 0-.223-.365l-.804.49a.206.206 0 0 0-.082.113c.06.093.117.186.17.273a.209.209 0 0 0 .134-.02l.805-.491z"/>
            <path fill="#F99AB6" d="M225.907 189.69l-.01-.002h.002l.008.002M226.219 189.727a1.08 1.08 0 0 1-.311-.037c.102.015.204.032.307.05l.004-.013"/>
            <path fill="#FBDFB6" d="M223.282 194.264c.053.248.084.537.068.924 1.464-.032 2.507-.041 2.507-.041v-.003l-1.401-.423a5.12 5.12 0 0 1-1.174-.457"/>
            <path fill="#FBDFB6" d="M246.077 193.137l-18.533-3.106a16.463 16.463 0 0 0-1.637-.341l-.009-.002s-2.368.992-3.008 3.723c.18.225.314.488.391.853.337.183.722.34 1.174.458l1.402.423 18.262 5.516a3.898 3.898 0 0 0 4.741-2.784 3.898 3.898 0 0 0-2.783-4.74"/>
            <path fill="#84DBB9" d="M225.899 189.688h-.001c-.737-.18-2.053-.928-3.334-1.267-.853-.225-1.692-.27-2.332.157-1.765 1.175-4.726.917-8.258 2.779-2.095 1.104-2.729 2.757-2.768 3.99 1.25.31.913 1.695.483 1.636.626.342 2.594-.782 4.962-1.27.2-.041.447-.08.73-.114a.209.209 0 0 1-.068-.118l-.117-.935a.215.215 0 0 1 .185-.24.215.215 0 0 1 .24.185l.116.936a.205.205 0 0 1-.037.134c.24-.025.5-.05.775-.073-.007-.017-.024-.026-.026-.045l-.117-.934a.214.214 0 0 1 .424-.054l.118.935c.003.025-.014.044-.018.067.256-.019.525-.037.8-.053-.012-.024-.033-.04-.036-.067l-.118-.935a.215.215 0 0 1 .185-.239.215.215 0 0 1 .239.186l.118.935c.004.036-.015.065-.027.097l.847-.044c-.002-.007-.01-.01-.01-.018l-.117-.935a.214.214 0 0 1 .184-.239.215.215 0 0 1 .24.186l.117.935c.002.02-.012.034-.015.052 1.42-.063 2.893-.105 4.087-.13a3.594 3.594 0 0 0-.068-.925 1.975 1.975 0 0 0-.392-.853c.64-2.73 3.009-3.722 3.009-3.722"/>
            <path fill="#FFF" d="M220.707 187.74c-.918.018-2.188 1.024-3.389 1.172-5.518-.734-11.142 5.622-7.7 8.019.025.017.045.035.07.053.43.057.768-1.328-.482-1.636.039-1.235.673-2.887 2.768-3.99 3.533-1.864 6.493-1.604 8.258-2.78.64-.427 1.479-.383 2.332-.157-.034-.025-.956-.7-1.857-.681M217.858 195.523c.081-.01.131-.07.159-.142l-.36.023c.04.074.111.13.201.119M217.926 194.349a.214.214 0 0 0-.424.053l.118.935c.003.027.025.044.037.066l.36-.022c.012-.032.031-.061.027-.097l-.118-.935zM219.093 195.505c.097-.013.157-.094.17-.187-.133.006-.266.012-.4.02a.21.21 0 0 0 .23.167"/>
            <path fill="#FFF" d="M219.16 194.331a.214.214 0 0 0-.424.053l.117.936c.002.007.01.01.01.017l.4-.019c.003-.019.017-.032.015-.053l-.118-.934zM216.688 195.629c.092-.012.148-.086.167-.172l-.38.03c.035.09.115.155.213.142"/>
            <path fill="#FFF" d="M216.756 194.455a.214.214 0 0 0-.424.053l.117.935c.002.018.019.029.026.044l.38-.03c.005-.023.022-.042.019-.067l-.118-.935zM215.552 195.666a.2.2 0 0 0 .148-.106l-.32.038a.203.203 0 0 0 .172.068"/>
            <path fill="#FFF" d="M215.62 194.492a.214.214 0 0 0-.425.053l.118.936a.21.21 0 0 0 .068.117l.32-.038a.202.202 0 0 0 .036-.133l-.117-.935z"/>
            <path fill="#FBDFB6" d="M212.132 166.404s-8.78-.325-10.451-.442c-1.672-.117-3.334 1.246-3.724 2.185-.39.939 1.686 2.839 2.217 3.121.532.282 1.2-1.495 3.16-1.375 1.961.12 10.26.597 10.26.597l-1.462-4.086z"/>
            <path fill="#FFF" d="M221.928 149.495s-2.389 6.885-2.205 12.841c.025 4.374-.47 5.54-1.7 10.422 0 2.918 13.1 10.348 18.49 2.73-1.855-4.883-3.338-13.021.148-21.74-1.201-1.615-4.68-3.594-6.305-4.533-3.01-1.737-4.196-1.529-4.196-1.529l-4.232 1.809z"/>
            <path fill="#FFF" d="M226.588 151.662a3.303 3.303 0 0 0-1.276-2.898 3.317 3.317 0 0 0-2.127-.694c-1.705.042-3.073 1.478-3.224 3.177-.348 3.916-2.236 12.625-5.736 13.956-.61.23-1.304.193-2.022-.009-1.34-.377-2.777.048-3.603 1.172-.012.02-.026.037-.04.057-1.326 1.772-.58 4.39 1.534 5.06 2.275.72 4.445.703 6.486-.074 8.238-3.13 9.783-17 10.008-19.747M195.945 174.063l-.003.002h.007zM215.866 185.568l1.38.797.005-.002h-.001l-1.38-.797-18.544-10.706-1.377-.795h-.007l1.38.797z"/>
            <path fill="#B9B8F1" d="M223.951 172.616l-5.7-3.291c-.014-.008-.035-.01-.05-.018l5.78 3.338c-.012-.009-.016-.02-.03-.029"/>
            <path fill="#EF5E16" d="M223.384 179.505l-6.452-3.724.13 2.08.369 5.908.003.045 4.813-2.778 1.02-.59c.482-.278.535-.7.117-.94M223.982 172.645l-5.78-3.338c-.445-.228-1.166-.197-1.67.072l.117 1.854.233 3.74 1.493.864c.45.26 1.245.227 1.766-.074l3.683-2.127c.505-.29.564-.728.158-.991"/>
            <path fill="#FFF" d="M217.582 186.19v-.018l-.331.19zM217.183 183.912l-.083.049.003.044.33-.19-.002-.046z"/>
            <path fill="#FFF" d="M223.825 173.636l-3.684 2.127c-.52.3-1.315.334-1.767.073l-1.492-.862-.233-3.74-.116-1.855c.504-.27 1.225-.3 1.669-.072.014.008.035.01.049.018l5.7 3.291c.014.009.017.02.03.029.407.263.348.7-.156.991m7.981 2.73l-15.951-9.21c-.246-.37-.537-.678-.845-.857l-18.544-10.705c-.274-.159-.521-.194-.724-.128v-.001l-.008.003a.619.619 0 0 0-.14.07l-.246.123.004.004c.212-.096.48-.073.782.101l18.544 10.706c.009.005.018.015.028.02.461.28.888.837 1.161 1.467.173.396.286.819.31 1.22l.025.382.114 1.845.21 3.363.05.806.13 2.08.394 6.305.083-.048.248-.143-.37-5.908-.129-2.08 6.451 3.725c.419.24.366.663-.116.94l-1.02.59-4.813 2.778-.331.192.028.448.119 1.91.001-.001.33-.191 1.26-.727 10.892-6.289 1.86-1.074c.487-.281.724-.641.718-.983-.005-.274-.164-.537-.505-.733"/>
            <path fill="#EF5E16" d="M203.02 169.134c.22-.895 1.261-1.201 2.328-.685.056.027.106.063.16.093.222.126.427.276.606.447.6.578.926 1.361.766 2.015-.22.894-1.263 1.2-2.328.684a2.999 2.999 0 0 1-1.219-1.094 2.391 2.391 0 0 1-.28-.635 1.642 1.642 0 0 1-.033-.825zm-7.07 4.931l1.375.794 18.544 10.707 1.381.797-.12-1.91-.027-.448-.003-.045-.393-6.304-.13-2.081-.05-.806-.21-3.363-.116-1.844-.023-.383a3.714 3.714 0 0 0-.31-1.22c-.275-.63-.7-1.187-1.162-1.467-.01-.005-.019-.015-.028-.02l-18.544-10.706c-.301-.174-.57-.196-.783-.1-.325.146-.519.575-.478 1.212l.139 2.228.814 13.047.12 1.91.003.002z"/>
            <path fill="#EF5E16" d="M232.311 177.1c.006.34-.23.701-.718.983l-1.86 1.073-10.892 6.288-1.26.728.001.019-.331.171-.004.002-1.38-.795-18.545-10.707-1.38-.797v.797l1.38.797 18.544 10.705 1.381.798 1.594-.92 10.892-6.289 1.86-1.073c.498-.289.744-.66.726-1.007h.001v-.773h-.009z"/>
            <path fill="#FFF" d="M206.114 168.99a3.046 3.046 0 0 0-.607-.448c-.053-.03-.103-.066-.16-.093-1.066-.516-2.107-.21-2.327.685-.064.261-.043.543.034.824.059.216.151.43.28.636.278.445.701.843 1.218 1.094 1.066.516 2.107.21 2.328-.684.16-.654-.166-1.437-.766-2.015"/>
            <path fill="#433930" d="M221.02 128.265c3.2-2.81 11.328-.907 13.404 5.06 2.075 5.966-2.065 11-4.189 11.726-7.659-6.451-9.215-16.786-9.215-16.786"/>
            <path fill="#FBDFB6" d="M229.518 153.01c-2.06 1.19-5.176 1.319-6.96.289-1.784-1.03-1.56-2.829.5-4.018 2.06-1.19 5.176-1.318 6.96-.288 1.784 1.03 1.56 2.828-.5 4.017"/>
            <path fill="#FBDFB6" d="M218.023 131.412s-1.259 2.245-1.015 6.053c.245 3.124-.285 6.492.491 8.151.778 1.661 4.342 4.736 9.76 2.1 4.247-2.295 4.736-7.127 4.736-7.127s1.317-.75 1.512-1.425c.44-.698.342-2.968-2.05-1.7-2.481-7.61-11.042-9.502-13.434-6.052"/>
            <path fill="#FBDFB6" d="M224.184 150.6h4.243v-4.243h-4.243z"/>
            <path fill="#433930" d="M229.469 133.744s-10.524 4.507-14.416-5.609c3.113-.43 5.481-1.47 7.54-1.989 2.06-.518 8.406-.022 6.876 7.598"/>
            <path fill="#FBDFB6" d="M231.299 173.015s-8.535 2.086-10.175 2.43c-1.64.345-2.866 2.11-2.985 3.12-.119 1.01 2.396 2.27 2.985 2.396.589.127.746-1.766 2.664-2.186 1.919-.42 10.033-2.229 10.033-2.229l-2.522-3.531z"/>
            <path fill="#FBDFB6" d="M221.944 175.396s-2.231.032-3.086-.237c-.713-.222-.452 1.186 1.519 1.203 1.97.017 1.567-.966 1.567-.966"/>
            <path fill="#FFF" d="M236.598 153.355a3.305 3.305 0 0 0-2.48-1.966 3.328 3.328 0 0 0-2.207.378c-1.487.835-2.027 2.745-1.367 4.316 1.523 3.627 3.92 12.208 1.447 15.02-.432.487-1.063.78-1.793.937-1.361.292-2.433 1.339-2.637 2.718a1.208 1.208 0 0 1-.01.07c-.344 2.186 1.54 4.152 3.72 3.757 2.348-.424 4.259-1.455 5.7-3.095 5.823-6.614.712-19.6-.373-22.135"/>
        </g>
        <g>
            <path fill="#649323" d="M279.104 70.597a8.171 8.171 0 0 1-.38 1.32l-.778 1.915 2.37 1.369-.721-2.649a33.632 33.632 0 0 1-.49-1.955M287.693 77.632c.124-.153.188-.355.189-.612 0-.385-.117-.764-.358-1.147-.24-.383-.62-.729-1.137-1.027l-2.215-1.279-.008 2.661 1.99 1.15c.424.244.754.386.992.42.241.038.424-.013.547-.166"/>
            <path fill="#649323" d="M344.663 79.882l-5.301-3.06.017-6.092 5.3 3.06-.016 6.092zm-.023 8.115l-5.301-3.06.017-6.087 5.3 3.06-.016 6.087zm-.023 8.115l-5.301-3.061.017-6.086 5.3 3.06-.016 6.087zm-.023 8.12l-5.301-3.06.017-6.092 5.3 3.06-.016 6.091zm-.023 8.12l-5.301-3.061.017-6.091 5.3 3.06-.016 6.091zm-.024 8.114l-5.3-3.06.017-6.086 5.3 3.06-.017 6.086zm-.022 8.115l-5.301-3.06.017-6.086 5.3 3.06-.016 6.086zm-6.929-52.779l-5.296-3.058.017-6.091 5.296 3.058-.017 6.091zm-.023 8.115l-5.297-3.058.018-6.086 5.296 3.058-.017 6.086zm-.023 8.115l-5.297-3.058.018-6.086 5.296 3.058-.017 6.086zm-.023 8.12l-5.297-3.058.018-6.091 5.296 3.058-.017 6.09zm-.023 8.12l-5.297-3.058.018-6.092 5.297 3.058-.018 6.091zm-.023 8.115l-5.297-3.059.018-6.086 5.296 3.058-.017 6.087zm-.023 8.114l-5.296-3.057.017-6.087 5.296 3.058-.017 6.086zm-6.924-52.776l-5.3-3.06.016-6.092 5.301 3.06-.017 6.092zm-.023 8.115l-5.3-3.06.016-6.087 5.301 3.06-.017 6.087zm-.023 8.114l-5.3-3.06.016-6.086 5.301 3.06-.017 6.086zm-.023 8.12l-5.3-3.06.016-6.091 5.301 3.06-.017 6.091zm-.023 8.12l-5.3-3.06.016-6.091 5.301 3.06-.017 6.091zm-.023 8.115l-5.3-3.06.016-6.086 5.301 3.06-.017 6.086zm-.023 8.115l-5.301-3.06.017-6.087 5.301 3.061-.017 6.086zm-6.928-52.78l-5.297-3.057.017-6.091 5.297 3.058-.017 6.09zm-.023 8.116l-5.297-3.058.017-6.086 5.297 3.057-.017 6.087zm-.023 8.115l-5.297-3.058.017-6.087 5.297 3.059-.017 6.086zm-.023 8.12l-5.297-3.059.017-6.09 5.297 3.058-.017 6.09zm-.024 8.12l-5.296-3.058.017-6.092 5.297 3.058-.018 6.092zm-.022 8.114l-5.297-3.058.017-6.086 5.297 3.058-.017 6.086zm-.024 8.115l-5.296-3.058.017-6.086 5.297 3.058-.018 6.086zm-6.924-52.776l-5.3-3.061.017-6.091 5.3 3.06-.017 6.092zm-.023 8.114l-5.3-3.06.017-6.086 5.3 3.06-.017 6.086zm-.023 8.115l-5.3-3.06.017-6.086 5.3 3.06-.017 6.086zm-.023 8.12l-5.3-3.06.017-6.091 5.3 3.06-.017 6.091zm-.023 8.12l-5.3-3.06.017-6.092 5.3 3.061-.017 6.091zm-.023 8.115l-5.3-3.06.017-6.087 5.3 3.06-.017 6.087zm-.023 8.115l-5.3-3.06.017-6.087 5.3 3.06-.017 6.087zm-13.41-20.744l-.927-.535.01-3.79-3.64-2.102-.011 3.79-.923-.533.023-8.047.923.533-.01 3.303 3.641 2.103.01-3.304.927.535-.023 8.047zm-7.708-5c-.505.166-1.124.043-1.852-.378-.758-.437-1.372-.972-1.84-1.594a6.917 6.917 0 0 1-1.08-2.158 8.182 8.182 0 0 1-.362-2.373c.002-.837.144-1.486.425-1.952.281-.461.676-.71 1.194-.734.513-.025 1.08.137 1.7.494a5.42 5.42 0 0 1 1.763 1.638c.477.684.81 1.451.994 2.303l-.91-.277c-.164-.684-.396-1.242-.705-1.688a3.582 3.582 0 0 0-1.167-1.079c-.537-.31-.987-.418-1.347-.329-.365.086-.62.339-.766.752-.15.416-.223.89-.224 1.42a6.92 6.92 0 0 0 .257 1.942c.168.613.438 1.144.801 1.608.368.465.765.821 1.193 1.068.517.298.957.383 1.318.245.361-.138.604-.505.737-1.11l.922.805c-.197.759-.546 1.23-1.051 1.396zm-6.92-3.445l-.922-2.21a34.217 34.217 0 0 0-.666-1.495 5.048 5.048 0 0 0-.468-.806 2.93 2.93 0 0 0-.423-.458 3.736 3.736 0 0 0-.517-.338l-1.071-.618-.01 3.57-.927-.534.022-8.047 3.104 1.791c.622.36 1.096.706 1.422 1.04a3.8 3.8 0 0 1 .777 1.214c.193.483.29.938.288 1.385-.001.57-.163.958-.486 1.166-.323.204-.82.166-1.493-.116.241.276.431.517.558.722.27.443.523.945.763 1.513l1.213 2.893-1.164-.672zm-6.816-3.936l-.81-2.909-2.927-1.689-.777 1.992-.982-.566 2.711-6.495 1 .577 2.839 9.699-1.054-.609zm-5.746-18.2a3.551 3.551 0 0 1 1.136-1.487c.527-.403 1.275-.785 2.26-1.137 1.528-.55 2.56-1.095 3.096-1.624.536-.533.805-1.168.807-1.917.002-.783-.238-1.579-.727-2.403-.485-.816-1.115-1.453-1.899-1.905-.83-.479-1.495-.576-1.992-.293-.497.289-.753.93-.76 1.935l-1.765-1.229c.122-1.44.583-2.333 1.373-2.672.794-.336 1.853-.124 3.183.644a8.726 8.726 0 0 1 3.189 3.127c.78 1.309 1.167 2.6 1.163 3.86-.002.646-.113 1.21-.348 1.704-.23.485-.613.922-1.145 1.303-.535.382-1.422.815-2.658 1.301-1.036.401-1.703.693-1.992.882-.293.182-.54.4-.73.65l6.867 3.965-.006 1.897-9.255-5.343c-.011-.484.058-.903.203-1.257zm-.478 14.607l-.894-.516.02-6.733-2.052 5.56-.834-.482-2.008-8.02-.02 6.85-.893-.516.022-8.047 1.397.806 1.64 6.653c.15.618.26 1.081.331 1.385.077-.248.205-.603.376-1.074l1.693-4.632 1.245.719-.023 8.047zm18.03-11.057c-.55-.974-1.268-1.71-2.162-2.227-.55-.317-1.054-.462-1.5-.432-.445.03-.797.202-1.053.518l-1.612-1.175 1.378-7.479 6.965 4.022-.006 1.882-5.588-3.226-.766 3.895c.84-.193 1.726-.018 2.649.515 1.223.707 2.25 1.787 3.09 3.247.836 1.457 1.252 2.95 1.248 4.482-.005 1.455-.377 2.497-1.116 3.137-.902.78-2.131.728-3.685-.169-1.275-.735-2.31-1.748-3.113-3.03-.806-1.289-1.265-2.64-1.37-4.061l1.803.871c.129 1.083.44 2.023.925 2.815.486.787 1.074 1.385 1.76 1.78.83.48 1.529.523 2.107.135.573-.385.86-1.174.863-2.362a6.191 6.191 0 0 0-.818-3.138zm-35.02-48.37L258 86.2l96.254 55.572.198-70.077L258.2 16.122z"/>
            <path fill="#FFF" d="M272.274 71.415c-.17.471-.3.826-.376 1.074-.071-.304-.18-.767-.331-1.385l-1.64-6.653-1.397-.806-.022 8.047.893.515.02-6.85 2.008 8.021.834.482 2.051-5.56-.019 6.733.894.516.023-8.047-1.245-.719-1.693 4.632zM277.946 73.832l.777-1.915c.163-.418.287-.858.381-1.32.105.5.268 1.15.49 1.955l.723 2.649-2.371-1.37zm.682-4.357l-2.711 6.494.982.568.778-1.993 2.925 1.689.81 2.91 1.055.608-2.84-9.7-.999-.576zM286.155 77.377l-1.99-1.149.007-2.66 2.214 1.278c.517.298.898.644 1.138 1.027.24.383.359.762.358 1.147-.001.257-.065.46-.189.612-.123.153-.306.204-.547.166-.238-.034-.568-.176-.991-.42m1.262 1.966a5.85 5.85 0 0 0-.558-.722c.674.282 1.17.32 1.493.116.322-.208.485-.597.486-1.166a3.657 3.657 0 0 0-.288-1.385 3.8 3.8 0 0 0-.777-1.213c-.326-.335-.8-.681-1.422-1.04l-3.104-1.792-.023 8.047.928.535.01-3.571 1.071.618c.241.14.411.247.517.338.143.121.283.275.422.458.136.176.296.453.469.806.173.358.396.858.666 1.496l.922 2.209 1.164.672-1.213-2.893a11.57 11.57 0 0 0-.763-1.513M284.725 65.646l-6.868-3.965c.192-.25.438-.468.732-.65.288-.189.955-.481 1.991-.882 1.235-.486 2.123-.919 2.658-1.301.532-.38.915-.818 1.145-1.303.235-.494.346-1.058.348-1.705.004-1.26-.383-2.55-1.164-3.859a8.72 8.72 0 0 0-3.188-3.127c-1.33-.768-2.39-.98-3.183-.644-.79.338-1.25 1.232-1.373 2.672l1.765 1.228c.007-1.004.263-1.646.76-1.934.497-.283 1.162-.186 1.992.293.784.452 1.414 1.089 1.899 1.905.49.824.73 1.62.727 2.403-.002.75-.271 1.383-.807 1.917-.536.53-1.568 1.073-3.096 1.624-.985.352-1.733.734-2.26 1.137-.518.402-.897.9-1.136 1.488-.145.355-.214.772-.203 1.257l9.255 5.343.006-1.897zM301.953 82.941l-.01 3.304-3.64-2.103.009-3.303-.923-.533-.023 8.047.923.533.01-3.79 3.642 2.102-.011 3.79.927.535.023-8.046zM294.541 85.43c-.36.138-.801.055-1.318-.244-.427-.247-.825-.603-1.193-1.069a4.486 4.486 0 0 1-.801-1.607 6.926 6.926 0 0 1-.258-1.942c.002-.53.076-1.005.225-1.42.146-.413.4-.666.765-.752.361-.09.81.02 1.348.33.47.27.86.632 1.168 1.078.308.446.54 1.004.703 1.688l.91.277a6.326 6.326 0 0 0-.993-2.304 5.423 5.423 0 0 0-1.764-1.637c-.618-.357-1.186-.52-1.7-.494-.517.023-.912.273-1.193.734-.281.466-.423 1.115-.425 1.952-.003.769.118 1.56.362 2.373.248.81.606 1.53 1.08 2.158.468.622 1.082 1.156 1.84 1.594.728.42 1.347.544 1.852.377.505-.166.854-.637 1.051-1.396l-.922-.805c-.133.605-.376.972-.737 1.11M293.173 69.992c-.578.388-1.278.345-2.107-.135-.687-.396-1.274-.993-1.76-1.78-.485-.792-.796-1.732-.925-2.815l-1.804-.871c.106 1.42.565 2.772 1.371 4.062.802 1.281 1.838 2.294 3.113 3.03 1.554.896 2.783.949 3.685.168.74-.64 1.111-1.683 1.116-3.138.004-1.532-.412-3.024-1.247-4.481-.84-1.46-1.868-2.54-3.091-3.247-.923-.533-1.81-.708-2.65-.516l.767-3.895 5.588 3.227.006-1.883-6.965-4.02-1.378 7.478 1.612 1.175c.256-.316.608-.488 1.053-.518.446-.03.95.115 1.5.432.894.516 1.613 1.253 2.161 2.227.553.968.821 2.02.818 3.138-.003 1.187-.29 1.977-.863 2.362"/>
            <path fill="#8DC63F" d="M310.966 109.207l5.301 3.06.018-6.086-5.301-3.06zM318.033 113.286l5.297 3.058.017-6.086-5.297-3.058zM310.99 101.092l5.3 3.06.018-6.086-5.301-3.06zM325.095 117.364l5.301 3.06.017-6.086-5.3-3.06zM318.056 105.171l5.297 3.058.017-6.086-5.297-3.058zM311.012 92.977l5.301 3.06.018-6.09-5.301-3.062zM332.161 121.443l5.297 3.058.017-6.086-5.296-3.058zM325.118 109.249l5.3 3.06.018-6.086-5.3-3.06zM318.079 97.056l5.297 3.058.017-6.09-5.297-3.059zM311.036 84.857l5.3 3.06.018-6.09-5.301-3.061zM339.224 125.52l5.3 3.061.018-6.086-5.301-3.06zM332.184 113.329l5.297 3.057.017-6.086-5.296-3.058zM318.102 88.936l5.297 3.058.017-6.09-5.297-3.059zM311.058 76.737l5.301 3.06.018-6.086-5.301-3.06zM339.247 117.406l5.3 3.06.018-6.086-5.301-3.06zM332.207 105.214l5.297 3.057.017-6.09-5.296-3.059zM325.164 93.014l5.301 3.06.017-6.09-5.3-3.061zM311.082 68.622l5.3 3.06.018-6.086-5.301-3.06zM339.27 109.29l5.3 3.061.018-6.09-5.301-3.061zM332.23 97.094l5.297 3.058.017-6.091-5.296-3.058zM318.148 72.702l5.297 3.058.017-6.087-5.297-3.057zM332.253 88.974l5.297 3.058.017-6.086-5.296-3.058zM325.21 76.779l5.301 3.06.017-6.086-5.3-3.06zM318.17 64.587l5.298 3.058.017-6.091-5.297-3.058zM339.316 93.051l5.3 3.06.018-6.086-5.301-3.06zM332.277 80.859l5.296 3.058.017-6.087-5.296-3.057zM325.233 68.664l5.3 3.06.018-6.09-5.3-3.061zM339.339 84.936l5.3 3.06.018-6.086-5.301-3.06zM332.3 72.744l5.296 3.058.017-6.091-5.296-3.058zM339.379 70.73l-.017 6.091 5.3 3.06.018-6.09zM325.141 101.134l5.301 3.06.017-6.09-5.3-3.061zM318.125 80.817l5.297 3.058.017-6.087-5.297-3.058zM325.187 84.894l5.301 3.06.017-6.086-5.3-3.06zM311.105 60.507l5.3 3.06.018-6.09-5.301-3.061zM339.293 101.171l5.3 3.06.018-6.09-5.301-3.061z"/>
            <g transform="translate(354.026 69.586)">
                <mask id="A" fill="#fff">
                    <use xlink:href="#z"/>
                </mask>
                <path fill="#80B537" d="M.426 2.109L3.698.207l-.2 70.077-3.27 1.902z" mask="url(#A)"/>
            </g>
            <path fill="#649323" d="M270.165 6.16a10.194 10.194 0 0 0-.495-.11c-.02-.005-.038-.007-.058-.01-.045-.009-.088-.014-.133-.022-.108-.019-.218-.04-.325-.054-.072-.01-.142-.014-.213-.022l-.19-.02c-.043-.003-.087-.01-.13-.012-.137-.01-.27-.012-.405-.014-.041 0-.084-.004-.126-.004h-.03c-.204 0-.406.01-.604.027l-.017.002c-.161.015-.317.042-.474.068-.064.01-.13.015-.194.028l-.006.001a6.04 6.04 0 0 0-.758.207c-.026.009-.054.013-.08.022-.092.032-.18.072-.27.11-.058.024-.119.045-.177.071a5.75 5.75 0 0 0-.527.268l-3.271 1.902c.17-.1.347-.187.527-.268.057-.026.117-.048.176-.072a6.051 6.051 0 0 1 1.109-.339c.064-.012.131-.018.196-.028.158-.027.315-.054.478-.068.213-.02.43-.03.65-.03.042 0 .086.004.128.004.175.003.353.012.534.027a9.011 9.011 0 0 1 .727.094c.045.009.089.015.134.023.239.045.481.099.727.165l3.271-1.902a8.994 8.994 0 0 0-.174-.045M273.44 7.526a16.368 16.368 0 0 0-.38-.212l-.073-.04-3.272 1.902c.15.08.302.164.453.252l9.332 5.387 3.271-1.901-9.331-5.388zM285.418 14.442l-3.272 1.9 9.785 5.65 3.271-1.901zM297.848 21.618l-3.271 1.902 9.784 5.649 3.272-1.902zM310.28 28.795l-3.272 1.902 9.784 5.649 3.272-1.902zM322.71 35.972l-3.272 1.901 9.785 5.65 3.271-1.902zM335.14 43.15l-3.27 1.9 9.78 5.647 3.271-1.901zM357.72 69.79a16.385 16.385 0 0 0-.034-.979l-.02-.257-.01-.126-.016-.197c-.019-.195-.04-.39-.066-.586-.017-.14-.039-.282-.06-.423l-.013-.092-.012-.083a20.952 20.952 0 0 0-.23-1.222v-.002-.002a23.178 23.178 0 0 0-.313-1.262l-.018-.059-.022-.078a26.005 26.005 0 0 0-.344-1.115l-.046-.132-.041-.119c-.041-.117-.08-.234-.123-.351a27.273 27.273 0 0 0-.222-.592c-.034-.088-.071-.176-.107-.264a9.185 9.185 0 0 0-.048-.12l-.076-.19a25.57 25.57 0 0 0-.459-1.04l-.027-.06-.022-.048a29.591 29.591 0 0 0-.588-1.18l-.04-.078-.023-.045a29.82 29.82 0 0 0-.553-.99c-.018-.032-.038-.061-.056-.091-.285-.485-.583-.961-.894-1.427l-.034-.055a28.35 28.35 0 0 0-.73-1.036l-.015-.019-.035-.046a27.821 27.821 0 0 0-.462-.607 25.94 25.94 0 0 0-.348-.43l-.075-.092-.049-.06a26.041 26.041 0 0 0-.825-.942l-.056-.063c-.013-.014-.026-.03-.04-.043a24.976 24.976 0 0 0-.876-.895l-.069-.069-.045-.044a23.025 23.025 0 0 0-.52-.485c-.124-.11-.248-.217-.373-.325l-.093-.08-.068-.06a19.892 19.892 0 0 0-.957-.76l-3.272 1.901c.347.26.69.534 1.026.82l.092.08c.317.274.631.558.938.854l.07.069c.311.303.617.615.916.94l.055.06c.298.325.59.66.875 1.004l.073.09c.278.34.55.685.813 1.04.01.015.022.029.033.044a28.33 28.33 0 0 1 1.673 2.537c.218.371.431.747.633 1.127l.038.075c.214.406.419.817.612 1.231l.026.057c.19.408.368.82.536 1.233l.048.118c.16.402.311.805.451 1.21a24.896 24.896 0 0 1 .431 1.366l.023.076a23.18 23.18 0 0 1 .33 1.325c.096.437.176.873.242 1.306l.013.09c.06.405.108.807.141 1.207l.01.126c.033.416.053.829.055 1.237l3.272-1.901z"/>
            <path fill="#4E7617" d="M341.65 50.697l-.014 4.802c-.002.841.588 1.865 1.32 2.288.729.42 1.324.081 1.326-.76l.013-4.657c5.724 4.27 10.115 12.455 10.153 19.322l-96.25-55.57c.072-6.251 3.815-9.374 8.87-8.016l-.013 4.334c-.002.841.589 1.865 1.321 2.288.729.42 1.323.081 1.326-.76l.013-4.792c.15.08.302.164.453.252l9.332 5.387-.014 4.802c-.002.841.589 1.865 1.321 2.288.728.42 1.323.081 1.326-.76l.013-4.802 9.785 5.65-.014 4.8c-.002.842.588 1.866 1.317 2.286.732.423 1.327.084 1.33-.757l.013-4.802 9.784 5.649-.013 4.802c-.003.841.588 1.864 1.316 2.285.733.423 1.328.084 1.33-.758l.014-4.801 9.784 5.649-.013 4.801c-.003.842.584 1.863 1.316 2.286.733.423 1.327.084 1.33-.758l.013-4.801 9.785 5.649-.014 4.801c-.002.842.589 1.865 1.317 2.286.732.423 1.327.084 1.33-.758l.013-4.802 9.78 5.647z"/>
            <path fill="#FFF" d="M268.412 2.084c-.732-.423-1.327-.085-1.33.757l-.014 5.265-.012 4.334c-.003.842.588 1.865 1.32 2.288.729.42 1.323.081 1.326-.76l.013-4.792.014-4.807c.002-.842-.589-1.865-1.317-2.285M280.843 9.26c-.732-.422-1.327-.084-1.33.758l-.013 4.797-.014 4.802c-.002.841.589 1.865 1.321 2.288.728.42 1.323.081 1.325-.76l.014-4.802.014-4.797c.002-.842-.589-1.865-1.317-2.286M293.27 16.435c-.729-.42-1.323-.082-1.326.76l-.013 4.797-.014 4.802c-.002.841.588 1.865 1.317 2.285.732.423 1.327.084 1.33-.757l.013-4.802.013-4.797c.003-.842-.588-1.865-1.32-2.288M305.7 23.612c-.728-.42-1.323-.082-1.325.76l-.014 4.797-.013 4.802c-.003.841.588 1.865 1.317 2.285.732.423 1.327.084 1.329-.758l.014-4.802.013-4.796c.003-.842-.588-1.865-1.32-2.288M318.131 30.789c-.732-.423-1.323-.082-1.325.76l-.014 4.797-.014 4.802c-.002.841.585 1.862 1.317 2.285.733.423 1.327.084 1.33-.758l.013-4.802.014-4.797c.002-.841-.588-1.865-1.32-2.287M330.562 37.966c-.728-.421-1.323-.082-1.325.76l-.014 4.796-.014 4.802c-.002.842.589 1.865 1.317 2.286.732.423 1.327.084 1.33-.758l.013-4.802.014-4.797c.002-.841-.589-1.865-1.321-2.287M342.993 45.142c-.733-.422-1.328-.083-1.33.758l-.013 4.797-.014 4.802c-.003.841.588 1.865 1.32 2.288.729.42 1.324.081 1.326-.76l.013-4.657.014-4.942c.002-.842-.588-1.865-1.316-2.286"/>
            <path fill="#80B537" d="M272.997 2.343a1.413 1.413 0 0 0-.013-.13 1.604 1.604 0 0 0-.01-.066v-.003a2.37 2.37 0 0 0-.06-.273l-.015-.054-.002-.005-.003-.011-.022-.07a1.818 1.818 0 0 0-.024-.067l-.024-.065a2.166 2.166 0 0 0-.046-.11l-.002-.006-.005-.011-.03-.065a3.344 3.344 0 0 0-.033-.07l-.041-.079-.046-.081-.009-.016-.01-.019a3.02 3.02 0 0 0-.18-.273l-.001-.001-.001-.001a2.496 2.496 0 0 0-.212-.257l-.01-.01-.003-.004a2.52 2.52 0 0 0-.213-.203l-.03-.024a.038.038 0 0 0-.005-.004l-.024-.02a2.412 2.412 0 0 0-.226-.155l-.013-.008a1.887 1.887 0 0 0-.042-.024l-.055-.028-.054-.025a1.408 1.408 0 0 0-.116-.046l-.004-.001a.594.594 0 0 0-.094-.028.843.843 0 0 0-.151-.026h-.006l-.014-.002a1 1 0 0 0-.131.001.715.715 0 0 0-.077.011l-.004.002a.694.694 0 0 0-.195.074l-3.272 1.9a.65.65 0 0 1 .195-.073l.003-.001a.783.783 0 0 1 .223-.01h.006a1.076 1.076 0 0 1 .25.054c.085.03.175.07.266.124.09.052.178.113.263.182l.006.005c.084.069.165.145.243.227l.003.003c.078.084.153.173.222.268l.002.002c.068.093.131.19.19.291l.008.016c.057.1.11.202.155.307l.002.004c.047.107.087.216.12.325l.001.004c.033.11.058.22.076.327v.002c.017.11.026.217.026.322l-.014 4.807 3.272-1.902.013-4.806a1.206 1.206 0 0 0-.003-.125M285.427 9.52a2.117 2.117 0 0 0-.012-.13l-.01-.066v-.002l-.011-.065a1.616 1.616 0 0 0-.03-.139 5.536 5.536 0 0 0-.034-.124l-.002-.005a.152.152 0 0 0-.003-.011l-.022-.07a2.74 2.74 0 0 0-.074-.196l-.02-.047-.002-.005a.406.406 0 0 1-.005-.011l-.03-.065a3.344 3.344 0 0 0-.074-.149l-.046-.081-.009-.016-.01-.019a3.02 3.02 0 0 0-.18-.273l-.001-.001-.002-.002a2.757 2.757 0 0 0-.212-.257l-.008-.009-.004-.004-.042-.043a2.882 2.882 0 0 0-.171-.16l-.03-.023-.006-.006-.023-.019-.058-.044a3.555 3.555 0 0 0-.113-.077 1.552 1.552 0 0 0-.056-.034l-.012-.008a1.352 1.352 0 0 0-.271-.124.675.675 0 0 0-.094-.028 1.153 1.153 0 0 0-.151-.026h-.006a.993.993 0 0 0-.145 0 .709.709 0 0 0-.077.01h-.001l-.003.002a.694.694 0 0 0-.195.073L279.9 9.168a.647.647 0 0 1 .198-.075.798.798 0 0 1 .223-.011h.006c.078.008.16.025.245.054l.003.001c.087.03.176.07.268.123.09.052.177.114.263.183l.006.005a2.502 2.502 0 0 1 .246.23c.078.084.152.173.222.268l.001.002c.069.093.132.19.19.291l.01.016a3.339 3.339 0 0 1 .156.31 2.977 2.977 0 0 1 .12.33c.034.11.06.22.076.327v.001a2 2 0 0 1 .027.323l-.014 4.797 3.272-1.901.013-4.797a1.809 1.809 0 0 0-.004-.125M297.858 16.697a1.413 1.413 0 0 0-.012-.13l-.01-.066v-.002-.001a2.126 2.126 0 0 0-.041-.203l-.019-.07-.016-.055-.001-.003-.003-.012a2.734 2.734 0 0 0-.022-.069l-.024-.067a2.178 2.178 0 0 0-.073-.182l-.004-.01a2.242 2.242 0 0 0-.104-.213l-.047-.085a.549.549 0 0 0-.008-.014l-.01-.018a3.65 3.65 0 0 0-.182-.276l-.06-.077a2.347 2.347 0 0 0-.153-.18l-.01-.01-.005-.005a2.325 2.325 0 0 0-.212-.203l-.03-.024-.007-.005-.022-.019a1.805 1.805 0 0 0-.229-.157l-.013-.008-.042-.023a1.035 1.035 0 0 0-.107-.053 1.197 1.197 0 0 0-.052-.022l-.054-.02-.01-.004-.004-.001-.038-.012a.889.889 0 0 0-.166-.037l-.04-.004h-.006l-.013-.002a.794.794 0 0 0-.209.013h-.003a.638.638 0 0 0-.194.074l-3.272 1.902a.658.658 0 0 1 .194-.074h.004a.777.777 0 0 1 .222-.012h.006c.077.007.159.025.244.053a1.49 1.49 0 0 1 .269.124c.09.052.178.114.264.183l.006.005a2.6 2.6 0 0 1 .247.231c.156.167.297.358.415.562l.008.015c.058.1.11.203.156.308l.002.004c.046.107.086.216.12.324v.005c.033.11.059.22.076.328.018.11.027.218.026.323l-.013 4.797 3.271-1.901.014-4.798a1.206 1.206 0 0 0-.004-.124M310.289 23.874a2.293 2.293 0 0 0-.012-.13l-.01-.066v-.004a2.325 2.325 0 0 0-.042-.202l-.018-.07-.016-.054-.001-.005-.004-.01a2.734 2.734 0 0 0-.022-.07l-.023-.067-.025-.065a2.6 2.6 0 0 0-.025-.064l-.021-.05a.01.01 0 0 1-.002-.002l-.005-.011-.029-.065a3.344 3.344 0 0 0-.121-.232l-.009-.015-.01-.018a3.445 3.445 0 0 0-.181-.275v-.001a2.757 2.757 0 0 0-.06-.077l-.05-.063-.051-.06a2.107 2.107 0 0 0-.052-.057l-.01-.01-.005-.006-.04-.04a1.75 1.75 0 0 0-.113-.11 2.718 2.718 0 0 0-.06-.052l-.03-.024-.006-.005-.023-.019-.058-.044a1.807 1.807 0 0 0-.17-.113l-.013-.008-.042-.023a1.38 1.38 0 0 0-.223-.099l-.004-.001-.039-.013-.054-.014a.834.834 0 0 0-.111-.022l-.04-.004h-.006l-.013-.002a.659.659 0 0 0-.13.001.715.715 0 0 0-.077.011l-.002.001h-.003a.69.69 0 0 0-.195.074l-3.271 1.901a.656.656 0 0 1 .198-.074.777.777 0 0 1 .221-.011h.006c.078.007.16.025.244.053l.004.001c.085.03.175.07.265.123.091.052.179.114.264.183l.007.005c.084.068.165.145.243.227l.004.004c.156.167.296.358.415.562l.008.015c.057.1.11.203.156.307l.001.005c.047.107.087.215.12.324l.001.005c.033.11.059.22.076.327v.001c.017.11.026.217.026.323l-.013 4.797 3.271-1.902.014-4.797a1.824 1.824 0 0 0-.004-.124M322.72 31.051a2.21 2.21 0 0 0-.022-.196v-.002l-.012-.065a1.28 1.28 0 0 0-.03-.139 3.182 3.182 0 0 0-.019-.07l-.015-.054-.002-.005c0-.004-.002-.007-.003-.011l-.022-.069-.023-.067a5.179 5.179 0 0 0-.05-.13l-.021-.048a.023.023 0 0 1-.002-.004l-.005-.01a1.6 1.6 0 0 0-.063-.134 2.562 2.562 0 0 0-.04-.08l-.047-.083-.009-.015a3.17 3.17 0 0 0-.404-.55l-.01-.012-.005-.005a4.518 4.518 0 0 0-.096-.096 2.22 2.22 0 0 0-.117-.106l-.03-.024-.006-.005-.023-.019a2.458 2.458 0 0 0-.058-.044l-.058-.041a1.412 1.412 0 0 0-.113-.072l-.012-.008a1.097 1.097 0 0 0-.097-.052 1.301 1.301 0 0 0-.054-.025l-.052-.022-.054-.02-.01-.003-.003-.002-.04-.013a1.918 1.918 0 0 0-.109-.027 1.16 1.16 0 0 0-.057-.01c-.013 0-.026-.002-.038-.003h-.006l-.015-.002a.974.974 0 0 0-.13.001.708.708 0 0 0-.076.01v.001l-.004.001a.7.7 0 0 0-.194.074l-3.272 1.901a.652.652 0 0 1 .194-.073l.003-.001a.777.777 0 0 1 .228-.01 1.043 1.043 0 0 1 .248.054c.086.03.175.07.266.123.09.052.179.114.264.183l.006.005c.085.068.166.145.243.227l.005.004c.156.167.296.358.415.562l.008.015c.057.1.11.203.155.307l.002.005c.047.107.087.215.12.324l.001.005a2.563 2.563 0 0 1 .076.329c.017.109.026.217.026.322l-.014 4.797 3.272-1.902.013-4.797a1.206 1.206 0 0 0-.003-.124M335.15 38.228a2.293 2.293 0 0 0-.012-.13l-.01-.066v-.002l-.01-.065a2.844 2.844 0 0 0-.065-.263l-.002-.005a2.359 2.359 0 0 0-.049-.147 2.6 2.6 0 0 0-.071-.177l-.001-.005-.005-.01-.03-.065a2.69 2.69 0 0 0-.13-.247l-.009-.018a3.445 3.445 0 0 0-.292-.416l-.05-.06a2.107 2.107 0 0 0-.053-.057l-.01-.01-.004-.006a2.346 2.346 0 0 0-.213-.202l-.03-.024a.104.104 0 0 0-.007-.006l-.022-.018-.058-.044a2.282 2.282 0 0 0-.17-.113l-.014-.008-.041-.023c-.018-.01-.036-.02-.054-.028a1.53 1.53 0 0 0-.159-.068c-.004 0-.007-.001-.011-.003l-.004-.001c-.013-.004-.025-.01-.038-.013a1.215 1.215 0 0 0-.166-.036l-.04-.004h-.005l-.014-.002a.659.659 0 0 0-.13.001.696.696 0 0 0-.076.011h-.002l-.004.001a.69.69 0 0 0-.194.074l-3.272 1.901a.652.652 0 0 1 .195-.073h.003a.788.788 0 0 1 .222-.013h.006c.078.008.16.026.244.054l.003.001c.086.03.175.07.266.123.09.052.179.114.264.182l.006.006a2.6 2.6 0 0 1 .243.227l.004.004a3.115 3.115 0 0 1 .58.884v.005a2.974 2.974 0 0 1 .122.329c.033.11.058.218.075.327v.002c.018.109.027.216.027.321l-.014 4.797 3.272-1.9.013-4.798a1.824 1.824 0 0 0-.004-.124M347.58 45.467a2.133 2.133 0 0 0-.025-.261v-.002a2.19 2.19 0 0 0-.011-.065l-.014-.07a2.635 2.635 0 0 0-.035-.14l-.016-.053-.001-.004-.003-.012a8.166 8.166 0 0 0-.046-.137l-.025-.065-.025-.064-.02-.047a3.626 3.626 0 0 0-.11-.23c-.017-.027-.032-.054-.048-.082l-.008-.015-.01-.019a3.011 3.011 0 0 0-.182-.274l-.001-.002a3.353 3.353 0 0 0-.212-.256l-.009-.01a.05.05 0 0 1-.004-.004l-.04-.043a2.908 2.908 0 0 0-.202-.183l-.006-.006a1.782 1.782 0 0 0-.25-.175l-.013-.007a1.106 1.106 0 0 0-.096-.052 1.557 1.557 0 0 0-.054-.025l-.053-.023a2.158 2.158 0 0 0-.064-.023l-.004-.001c-.013-.005-.026-.01-.039-.013a1.248 1.248 0 0 0-.167-.037l-.039-.004h-.006l-.014-.002a.985.985 0 0 0-.13.001.709.709 0 0 0-.077.011h-.001l-.004.002a.705.705 0 0 0-.195.073l-3.272 1.902a.646.646 0 0 1 .196-.074h.002a.774.774 0 0 1 .224-.012h.006a1.076 1.076 0 0 1 .248.055c.087.03.176.07.268.123a2.04 2.04 0 0 1 .269.188c.083.068.165.144.241.226l.005.005c.077.083.152.173.221.267l.002.002a3.115 3.115 0 0 1 .354.614l.001.004c.047.107.087.216.12.325l.001.004c.033.11.059.22.076.328.018.11.027.218.026.323l-.014 4.942 3.272-1.901.014-4.942v-.06"/>
        </g>
        <g>
            <g transform="translate(265 150.11)">
                <mask id="C" fill="#fff">
                    <use xlink:href="#B"/>
                </mask>
                <path fill="#48486A" d="M33.582 1.43c1.198-.71 3.165-.72 4.37-.023L71.57 20.814c1.206.697 1.206 1.835 0 2.532L38.432 42.477c-1.206.697-3.18.697-4.386 0L.909 23.346c-1.206-.697-1.213-1.848-.015-2.556L33.582 1.43z" mask="url(#C)"/>
            </g>
            <g transform="translate(294 150.11)">
                <mask id="E" fill="#fff">
                    <use xlink:href="#D"/>
                </mask>
                <path fill="#5C629E" d="M42.57 20.814L8.952 1.406C7.747.71 5.78.72 4.583 1.43L.754 3.697l37.923 21.894 3.891-2.246c1.206-.696 1.206-1.835 0-2.53" mask="url(#E)"/>
            </g>
            <path fill="#FFC107" d="M302.917 155.1c.486-.279.486-.736 0-1.016-.487-.279-1.28-.279-1.764 0-.484.28-.484.737 0 1.016.484.28 1.277.28 1.764 0M305.739 156.896c.487-.279.487-.736 0-1.016-.486-.279-1.28-.279-1.764 0-.484.28-.484.737 0 1.016.484.28 1.278.28 1.764 0M308.56 158.596c.487-.279.487-.736 0-1.016-.485-.279-1.28-.279-1.763 0-.484.28-.484.737 0 1.016.484.28 1.278.28 1.764 0"/>
            <g transform="translate(265 171.11)">
                <mask id="G" fill="#fff">
                    <use xlink:href="#F"/>
                </mask>
                <path d="M.909 2.346l33.137 19.131c1.206.697 3.18.697 4.386 0L71.569 2.346c.886-.511 1.115-1.261.699-1.899-.149.23-.379.448-.699.632L38.432 20.212c-1.206.696-3.18.696-4.386 0L.909 1.079A1.998 1.998 0 0 1 .201.432c-.411.647-.178 1.402.708 1.914" mask="url(#G)"/>
            </g>
            <g fill="#FFF">
                <path d="M299.88 159.468l-1.808 1.043 9.225 5.381 1.854-1.07zM295.586 176.752l-1.807 1.043 9.224 5.38 1.855-1.07z"/>
            </g>
            <g transform="translate(283 170.11)">
                <mask id="I" fill="#fff">
                    <use xlink:href="#H"/>
                </mask>
                <path d="M.556 1.692l9.224 5.38 1.854-1.071L2.363.648z" mask="url(#I)"/>
            </g>
            <g fill="#FFF">
                <path d="M304.618 166.124l-1.807 1.043 9.224 5.38 1.855-1.07zM293.62 163.61l-1.807 1.044 21.526 12.564 1.854-1.07zM276.631 173.615l-1.807 1.044 23.655 13.723 1.855-1.071z"/>
            </g>
            <g transform="translate(297 163.11)">
                <mask id="K" fill="#fff">
                    <use xlink:href="#J"/>
                </mask>
                <path d="M.742 1.061l3.686 2.168 1.853-1.071L2.549.017z" mask="url(#K)"/>
            </g>
            <g fill="#FFF">
                <path d="M297.11 173.69l-1.807 1.042 3.685 2.17 1.854-1.072zM315.966 176.752l-1.807 1.043 3.685 2.169 1.854-1.071zM300.825 171.842l-1.807 1.043 8.053 4.712 1.855-1.071z"/>
            </g>
            <g transform="translate(294 168.11)">
                <mask id="M" fill="#fff">
                    <use xlink:href="#L"/>
                </mask>
                <path d="M.393 2.036l3.685 2.168 1.855-1.07L2.2.992z" mask="url(#M)"/>
            </g>
            <g transform="translate(295 181.11)">
                <mask id="O" fill="#fff">
                    <use xlink:href="#N"/>
                </mask>
                <path d="M.303 1.504l3.685 2.167 1.854-1.07L2.11.46z" mask="url(#O)"/>
            </g>
            <g fill="#FFF">
                <path d="M287.092 175.71l-1.807 1.045 8.053 4.71 1.855-1.07zM280.162 171.712l-1.807 1.044 5.99 3.428 1.854-1.071zM291.754 166.455l-1.807 1.044 3.685 2.168 1.854-1.07zM310.958 165.892l-1.807 1.043 14.834 8.588 1.854-1.07zM287.102 167.615l-1.807 1.043 8.878 5.311 1.854-1.071zM294.278 156.11l-1.807 1.043 2.556 1.506 1.855-1.07zM290.903 158.102l-1.807 1.043 2.556 1.506 1.855-1.07zM287.528 160.093l-1.807 1.044 2.556 1.506 1.855-1.07zM284.153 162.086l-1.807 1.043 2.556 1.506 1.855-1.07zM280.778 164.078l-1.807 1.043 2.556 1.506 1.855-1.07zM277.403 166.07l-1.807 1.043 2.556 1.505 1.855-1.07zM274.028 168.061l-1.807 1.043 2.556 1.506 1.855-1.07zM270.653 170.052l-1.807 1.044 2.556 1.506 1.855-1.07z"/>
            </g>
        </g>
    </g>
</svg>
