<svg xmlns="http://www.w3.org/2000/svg" viewBox="0 0 759.77 740.57"><defs><style>.cls-1{fill:#f2f2f2;}.cls-12,.cls-13,.cls-2,.cls-6{fill:none;stroke-linecap:round;stroke-linejoin:round;}.cls-13,.cls-2{stroke:#a4a4a4;}.cls-2{stroke-width:3px;}.cls-3{fill:#900;}.cls-4{fill:#e49d75;}.cls-5{fill:#d38d6a;}.cls-6{stroke:#e0e0e0;stroke-width:2px;}.cls-7{fill:#e0e0e0;}.cls-8{fill:#ffc78e;}.cls-9{fill:#ffd98e;}.cls-10{fill:#a4a4a4;}.cls-11{fill:#ffe4ad;}.cls-12{stroke:#900;}.cls-12,.cls-13{stroke-width:6px;}</style></defs><title>tse_urun_ilu2</title><g id="katman_2" data-name="katman 2"><g id="katman_1-2" data-name="katman 1"><g id="Layer_2" data-name="Layer 2"><g id="vector"><path class="cls-1" d="M529.11,196.15c60.5,79.91,134.28,145.12,130.28,204.77-4,59.5-85.76,113.3-176.37,162S292.81,655.34,215,628,81,502,64.74,402.39,71.77,202,130,122.66,281.11-14.9,351.31,3.37,468.61,116.1,529.11,196.15Z"/><line class="cls-2" x1="412.19" y1="406.42" x2="412.19" y2="656.46"/><rect class="cls-3" x="502.09" y="144.19" width="31.3" height="44.02" rx="12"/><path class="cls-4" d="M397.09,679.09c-1.11,2.77-8.68,19.76-8.68,19.76l24.46,9.32,7.3-24.28Z"/><polygon class="cls-4" points="537.16 655.07 542.19 673.63 520.17 684.4 505.65 669.29 537.16 655.07"/><path class="cls-5" d="M505.6,299.43c-2.51,2.9-23.3,27.84-24.79,29.81s-62.36,20.47-65.57,21.33-14.75,5.88-18,5.88-13.68-3.45-18-2.74-18.11,8.78-16.78,12,150.21-7.53,150.21-7.53l16.23-50.51Z"/><line class="cls-6" x1="534.8" y1="532.44" x2="496.97" y2="727.32"/><polygon class="cls-7" points="674.21 214.44 759.77 214.44 678.63 532.44 521.82 532.44 521.82 511.74 609.62 453.44 674.21 214.44"/><path class="cls-3" d="M497,514.2c4.34,8.87,41,133.39,42,140.63-4.67,4.9-24.92,15.8-33.57,16.51C490.73,659.81,449.68,563,449.68,563S463.66,482.66,497,514.2Z"/><path class="cls-3" d="M673.54,395.58c3.18,3.78,13.47,59.57,15,74,2.35,22.68-41.62,55.9-103.69,55.9-20.49,0-88.33-4.57-107.82-11.93-1,12.33-50.14,166.11-55.71,171.68-9.15,2.39-22.68-2.58-26.06-6s23.48-215.86,31-229.58,160.74-24,160.74-24Z"/><path class="cls-8" d="M567.18,236.34c28.77,16.79-14.25,90.13-19.69,92-8.67-1-38.86-18.65-44.52-31.64C501.75,288.72,542.61,222,567.18,236.34Z"/><path class="cls-9" d="M583.12,205.9c48.09,0,94.4,183.59,92.5,190.94-3.89,15.07-82.67,42.63-95.31,30.79C548.34,397.71,489.38,205.9,583.12,205.9Z"/><line class="cls-6" x1="669.59" y1="532.44" x2="707.42" y2="727.32"/><polygon points="414.72 708.91 402.17 740.57 334.42 710.38 341.15 696.82 390.63 698.29 414.72 708.91"/><polygon points="542.6 671.34 559.25 701.05 493.08 734.57 486.81 720.78 519.17 683.33 542.6 671.34"/><path class="cls-5" d="M571.73,185.68c1.09,6.08,8,24.41,11,27.77s-13.15,23-31.11,19.4c-.54-6.17-2.67-23.64-5.49-26.54S571.73,185.68,571.73,185.68Z"/><ellipse class="cls-4" cx="540.21" cy="158.33" rx="37.15" ry="50.46" transform="translate(-22.46 175.39) rotate(-18.07)"/><path d="M510.63,89.63c19.92,0,71.11,35.39,71.11,71,0,19.11-3.38,24-4.66,24s-13.64-9.59-13.64-16.48-2.43-17.08-4.8-17.08c-4,0-4.59,4.45-14.65,4.45-3.85,0-11.08-4.59-11.08-9.86-8.17.14-8.17,2.84-19.38,2.84-12.7,0-43.9-6.42-43.9-16.28,0-6.68,8.71-11.28,17.29-9.65-5.81-3.11-11-9.53-11-13.78,0-6,7.5-10.06,13.31-10.06,6.89,0,12.83,2.9,15.8,5.74C502.66,100.37,505,89.63,510.63,89.63Z"/><circle class="cls-4" cx="557.05" cy="161.08" r="10.33"/><rect class="cls-10" y="391.89" width="518.61" height="14.54"/><polygon class="cls-7" points="474 368.27 259.3 368.27 258.76 368.27 44.06 368.27 0 391.76 258.76 391.76 259.3 391.76 518.07 391.76 474 368.27"/><line class="cls-2" x1="65.31" y1="406.42" x2="65.31" y2="711.38"/><line class="cls-2" x1="106.41" y1="406.42" x2="106.41" y2="656.46"/><line class="cls-2" x1="453.3" y1="406.42" x2="453.3" y2="711.38"/><rect class="cls-10" x="305.85" y="369.9" width="91.95" height="6.3"/><rect class="cls-10" x="190.79" y="362.06" width="17.6" height="20.95"/><ellipse class="cls-1" cx="373.99" cy="379.38" rx="20.62" ry="9.64"/><path class="cls-4" d="M520.26,309.45c-3,3.27-21.36,29.67-23.34,32.46-42,4.9-97.5,18.37-99.54,18.44s-25.38-7.49-28.51-6.94-9.53,11.77-9.26,14.08,18.65,13.41,39.81,13.13c4-.27,5.31-2.45,9.46-2.45s99,7.33,115.46-1.27c8.95-4.69,34.1-40.06,34.1-42.71S520.26,309.45,520.26,309.45Z"/><path class="cls-11" d="M580.13,244.9c28.76,16.79-14.25,90.13-19.69,92-8.68-1-38.86-18.65-44.53-31.64C514.69,297.28,555.55,230.55,580.13,244.9Z"/><rect class="cls-7" x="175.87" y="102.07" width="8.43" height="271.37"/><polygon class="cls-10" points="184.29 102.07 184.29 237.75 184.29 373.44 224.15 358.86 224.15 237.75 224.15 116.64 184.29 102.07"/><rect class="cls-3" x="540.61" y="144.19" width="31.3" height="44.02" rx="12"/><path class="cls-12" d="M557.05,149.74c0-5.55,1.92-38.24-16.44-47.89"/><path class="cls-13" d="M556.26,188.21c0,3.19-1.26,21.28-15,21.28"/></g></g></g></g></svg>